<?xml version="1.0" standalone="no"?>
<!DOCTYPE svg PUBLIC "-//W3C//DTD SVG 1.1//EN" "http://www.w3.org/Graphics/SVG/1.1/DTD/svg11.dtd" >
<svg>
<metadata>
Created by FontForge 20120731 at Tue Sep 20 10:20:22 2016
 By www-data
Typeface (c)WOODCUTTER MANERO MMXVI All Rights Reserved
</metadata>
<defs>
<font id="Torrebruno" horiz-adv-x="1014" >
  <font-face 
    font-family="Torrebruno"
    font-weight="400"
    font-stretch="normal"
    units-per-em="2048"
    panose-1="2 0 5 0 0 0 0 0 0 0"
    ascent="1638"
    descent="-410"
    x-height="1427"
    cap-height="1430"
    bbox="40 -302 2104 1646"
    underline-thickness="150"
    underline-position="-142"
    unicode-range="U+0020-2122"
  />
    <missing-glyph />
    <glyph glyph-name="space" unicode=" " horiz-adv-x="508" 
 />
    <glyph glyph-name="space" unicode="&#xa0;" horiz-adv-x="508" 
 />
    <glyph glyph-name="exclam" unicode="!" horiz-adv-x="672" 
d="M406 1433q81 0 109 -87q7 -46 7 -67q0 -57 -41 -214q-27 -143 -27 -299v-22q0 -139 32 -388v-57q0 -19 -15 -51q17 -82 17 -108q0 -71 -67 -123q-16 -12 -51 -17q-87 0 -125 118q-5 26 -5 36q12 111 70 111q5 0 5 5v14q-43 35 -44 60q-12 39 -12 99q7 164 7 207h3
q0 3 -3 3l3 17v144q0 137 -7 414l-3 5q0 109 92 183q31 17 55 17zM291 1180q0 -220 -5 -445q0 -336 50 -376h5q12 0 15 79v36q0 74 -3 128q0 133 51 670v12q-7 110 -48 110q-58 0 -65 -214zM459 1327q8 -24 24 -31h10q5 0 5 5v7q0 20 -32 29q-3 0 -7 -10zM459 1279
q0 -19 29 -29v2q0 13 -19 27h-10zM447 1250v-2q6 -27 22 -27q2 5 2 7q-7 17 -17 22h-7zM440 1204l-3 -9q14 -12 25 -12h2q5 0 5 4q0 7 -17 17h-12zM406 930v-5q0 -15 15 -15q9 4 9 8v4q0 15 -14 15q-10 -4 -10 -7zM404 590l-5 -7q3 -18 10 -19h7q5 0 5 4v5q0 17 -17 17z
M404 501q0 -16 21 -29h5v2q0 17 -19 27h-7zM406 443v-5q6 -12 19 -12q10 0 12 10q-1 6 -12 12h-14q-5 -1 -5 -5zM421 349q0 -19 21 -19q20 3 20 14q-4 15 -29 15q-11 -5 -12 -10zM269 149q0 -39 70 -55q60 11 60 58q-20 79 -58 79q-42 0 -70 -62q-2 -10 -2 -20zM418 212
q0 -16 27 -34q9 3 9 15q0 11 -29 21q-4 -2 -7 -2z" />
    <glyph glyph-name="quotedbl" unicode="&#x22;" horiz-adv-x="947" 
d="M471 1451l-2 -7q-25 -72 -137 -180q-34 -35 -45 -68q-19 -53 29 -160l-1 -12l-1 -2q-4 -11 -65 6l-10 4q-130 45 -124 198q4 32 11 51l3 8q9 25 97 135q66 108 90 176q42 40 98 21l8 -3q61 -21 61 -107q-1 -30 -12 -60zM449 1504l-4 1q-29 8 -128 -74q-117 -62 -140 -125
q-24 -71 48 -136l4 -1q10 -4 67 109q139 164 144 179q6 10 11 25l1 4q4 11 -3 18zM245 1082q-15 0 -19 -12l3 -4l13 -4q7 2 10 1l3 9q0 7 -10 10zM214 1119q-12 5 -17 -10l-2 -5q-1 -3 8 -12q20 -4 25 11q-1 11 -14 16zM375 1577l-2 1q-17 -1 -25 -10l-2 -7q22 -3 28 14z
M193 1153l-9 3q-11 4 -20 -5l-2 -6q0 -10 11 -14q12 -4 18 3l5 13q1 5 -3 6zM169 1187l-10 6q-20 3 -22 -4l-3 -6q1 -10 12 -14l7 -2q9 0 13 12zM796 1451l-2 -7q-25 -72 -137 -180q-34 -35 -45 -68q-19 -53 29 -160l-1 -12l-1 -2q-4 -11 -65 6l-10 4q-130 45 -124 198
q4 32 11 51l3 8q9 25 97 135q66 108 90 176q42 40 98 21l8 -3q61 -21 61 -107q-1 -30 -12 -60zM774 1504l-4 1q-29 8 -128 -74q-117 -62 -140 -125q-24 -71 48 -136l4 -1q10 -4 67 109q139 164 144 179q6 10 11 25l1 4q4 11 -3 18zM570 1082q-15 0 -19 -12l3 -4l13 -4
q7 2 10 1l3 9q0 7 -10 10zM539 1119q-12 5 -17 -10l-2 -5q-1 -3 8 -12q20 -4 25 11q-1 11 -14 16zM700 1577l-2 1q-17 -1 -25 -10l-2 -7q22 -3 28 14zM518 1153l-9 3q-11 4 -20 -5l-2 -6q0 -10 11 -14q12 -4 18 3l5 13q1 5 -3 6zM494 1187l-10 6q-20 3 -22 -4l-3 -6
q1 -10 12 -14l7 -2q9 0 13 12z" />
    <glyph glyph-name="numbersign" unicode="#" horiz-adv-x="1336" 
 />
    <glyph glyph-name="dollar" unicode="$" horiz-adv-x="2028" 
d="M937 439q0 -10 -4 -15q6 5 16 5q12 -1 17 2q-4 4 -13 4t-13 -4q-2 7 -3 8zM970 453q7 -2 7 -3q-1 -5 -7 -8l-11 11q-4 -15 -4 -14q2 1 33 -4q0 5 -18 29v-11zM789 604l-2 -2zM1080 1255q1 9 10 7q10 -2 9 -10q-12 -2 -19 3zM1187 935q8 -6 11 4q4 -7 8 -6q21 2 14 2
q-11 -7 -13 -17q-1 -12 9 -20q9 7 -11 -73q1 -2 15 -4q-1 -16 -6 -22t-5 -18q-6 4 -12 -6q-6 -9 -6 -20q-8 2 -13 -4q-5 -4 -10 0q4 -6 4 -11q-24 0 -40 8q-1 0 2 3q2 3 1 4q-2 1 -7 0t-7 0q-4 2 -23 19q-18 16 -33 21q-22 9 -22 30q-18 -2 -14 11q-3 -8 -11 -10
q-8 -3 -8 10q-1 -5 -33 -15q12 16 0 19q6 11 27 12q24 2 28 6q0 8 -9 7q-9 -2 -9 0q16 13 8 39q-6 24 -19 28q0 1 4 3q3 1 3 4q1 -3 -11 0q-12 40 26 37q-1 -1 -11 -26q2 -5 7 -2t8 -2q-11 -13 12 -20q8 -3 43 -9q-4 -6 -4 -11q13 2 44 6q31 3 56 9q9 1 7 14zM1215 918
q3 4 1 10q11 2 7 -10q-3 -11 -10 -8q-1 4 2 8zM1088 773q0 -17 -4 -22l-26 4q-2 11 6 20q8 10 12 6q1 -3 -1 -8q-3 -3 -2 -7q20 5 15 7zM1160 629q-3 5 -6 5q-3 -6 3 -8q6 -1 4 -7q-4 0 -26 -8q4 -6 8 -7q2 9 -15 0q6 -11 -15 -29q0 2 11 0q1 1 -7 -18q-3 -8 -7 -4
q3 -11 -1 -20q-3 -8 1 -17q-8 -1 -12 -14q-4 -12 1 -16q-1 -5 -8 -2q-6 3 -7 6q-7 -5 0 -26q-7 -1 -22 -15q-13 -11 -22 -7q-2 5 7 4t7 4q-3 0 -14 1q-10 1 -15 1q-17 -1 -15 -17q19 10 19 0q7 -11 -13 -13q-19 -1 -20 17q-3 -4 -19 -12q2 -5 7 -2q7 5 12 2q1 -5 -5 -8
t-3 -10q2 -5 -26 11q-2 -8 8 -7q10 0 7 -8q-19 -2 -37 15q9 2 0 -15q-4 0 -9 6q-4 5 -13 2q1 2 11 3q-10 1 -23 9q-14 8 -21 10q2 6 5 6q16 -3 10 -2q0 4 -6 9q-5 4 -5 9q-5 -2 -2 -7t-2 -8q-1 6 -8 6t1 -6q-3 -5 -8 4q-6 11 -11 11q2 7 8 3q6 -5 3 -10q2 0 4 4q1 3 4 3
q-1 0 -7 4t-15 3q0 6 -5 13q-4 8 -6 2q-6 2 -3 7q5 7 3 11q-2 0 -4 -7q-6 13 -26 43q-13 20 -14 38q-1 -1 -7 -3q-4 -1 -5 -4q1 -1 -1 12q0 8 -10 6q8 9 -7 7q2 8 6 6q1 0 4 -3q3 -2 5 -3q3 1 2 5q-3 6 -1 8q-1 0 -20 2q9 7 5 9q-1 0 -5 1q-5 0 -7 1q1 6 -4 7q2 4 5 3
q7 -3 6 -3q-26 20 -25 56q-7 1 -8 -8q-3 2 -4 10q-2 10 -3 12q12 1 25 6t19 5v-11q27 14 51 -20q-1 1 26 -53q17 -12 33 -41q10 2 19 0q0 -1 -2 -3t-2 -4q10 3 4 11q-2 3 -9 5q-7 3 -10 6q7 12 15 11q1 -19 11 -18q-8 -2 0 14q9 4 10 -2q3 -8 5 -9q1 11 13 12t13 7
q5 -3 48 -8q-9 -24 -8 -29q-4 1 -8 -2q-5 -3 -10 -2q0 -12 13 -6q11 6 9 -1q2 6 14 10t15 8q-16 -41 -89 -31q-74 10 -76 61q-1 -1 -4 -2q-2 -2 -4 -2q20 -56 70 -70q0 -1 -2 -3q-1 -2 -1 -4q3 0 10 3q5 2 12 1q8 -3 0 -4q-7 -1 -11 0q2 -13 17 -7q17 8 23 -1q-6 11 -4 12
q-1 0 15 3q-6 -10 -4 -18q4 5 20 3q15 -3 21 8v-19q13 7 7 23q-11 -2 -18 3q0 5 11 4q11 -2 11 4q5 -2 2 -7q-3 -6 2 -8q7 2 5 7q-3 10 -2 15q-2 0 15 15q8 0 6 -3q-3 -5 -2 -8q20 13 11 18q7 0 12 12q5 9 17 6q-4 9 -2 13t10 -2q-1 5 -6 11t-5 11q12 4 16 19q3 13 -2 22
q40 47 37 44q12 -3 15 -15q6 8 8 6l3 -9l11 7q12 -34 11 -33q-6 5 -11 -11q-9 -29 -8 -26q-5 -1 -8 3zM833 765q2 -18 8 -25q-9 3 -12 -4q-4 -10 -6 -10q-9 -1 -6 3q6 6 6 8q-7 -7 -16 -2q-13 6 -18 5q0 -5 9 -6q8 -2 6 -8q-14 -3 -18 18q4 3 17 19q12 15 23 21q5 -3 7 -19z
M850 734q-2 1 -2 3q-2 -1 -3 -11h-11q-1 8 6 12q6 4 12 -1q0 -3 -2 -3zM1002 655q6 2 12 1q0 -4 3 -10q2 -6 1 -12q-56 -28 -140 -4q-1 5 -6 14q-5 8 -5 15q82 -14 118 -7q5 -17 7 -18q-10 -1 0 18q3 0 10 3zM1043 637q-11 -3 -22 0q-3 23 11 30q11 -5 11 -30zM1004 787
q3 -8 -8 -6q3 -4 11 -8q0 -4 -8 -4q-7 0 -3 -7q-4 1 -6 10q-1 8 -5 9q-6 2 -1 3q4 1 4 -3q5 2 3 7q-4 5 1 7q8 -1 12 -8zM887 700q30 -7 47 -10q60 -10 69 10q6 -1 14 -5q9 -5 12 -6q-4 16 -11 3q-8 -7 -35 -11q-20 -3 -24 -18q-2 1 -76 11q-56 7 -49 48q10 -9 11 -7
q-2 -3 3 14q17 -8 4 -22q8 -1 35 -7zM1080 965q3 8 -40 0q40 18 33 18q-1 -14 7 -18zM1111 929q-10 -4 -16 -5q1 6 -4 8q-3 2 6 2q17 1 20 1q3 -1 -6 -6zM1415 957q4 -23 0 -22q-14 -2 -22 -33q-3 -1 -4 4h-7q5 8 10 36q3 19 16 26q17 -10 7 -11zM756 968q5 -14 15 -14
q-4 -6 -14 -3q-3 1 -9 4q-4 2 -6 2q-1 24 3 30q6 -3 11 -19zM827 971q8 -2 7 -10l-26 -4q0 3 4 9q4 5 3 10q1 -1 12 -5zM591 1060q-2 2 0 7q2 6 3 4q40 -86 26 -117q17 -6 20 -52q4 -57 10 -70q6 27 11 30q-15 20 -18 53q-2 38 18 53q-11 0 -10 6q1 10 -1 13q-3 1 18 3
q-7 -9 6 -15q12 -5 1 -14q5 -6 21 -14q15 -8 20 -15q64 20 59 14q0 -8 7 -11v15q5 -2 15 2q8 4 11 -2q-6 1 -9 -4q-4 -5 -10 -3q-2 -6 4 -8q6 -1 4 -7q-7 2 -23 -6q-16 -9 -32 -5q18 -18 51 -3q54 25 52 25q-8 3 -11 7q12 1 15 12q5 22 3 18q15 -4 21 -28q6 -29 8 -31
q15 22 -7 66q-21 44 -37 37q2 -3 4 22q-24 19 -78 34q-66 20 -84 29q10 6 8 13q0 2 -3 7t-5 9q18 -1 19 7q-8 9 -1 14q8 6 8 8q-11 2 -11 4q7 75 7 74q1 4 11 3q-8 10 0 21q9 10 0 20l22 18q2 -7 7 -15q4 -6 4 -14q38 9 44 15q-1 3 12 22q0 -5 7 -8q6 18 30 29q38 17 40 19
q2 -7 3 -7q26 29 56 14q3 5 1 11q-2 5 2 8q7 -7 17 -6q11 0 13 -2q-1 -4 -10 -10q-7 -5 -5 -15l11 7q2 -14 4 -15q2 8 3 8q3 -16 12 -19q0 2 -1 6v5q1 6 8 4q-4 -14 23 -21q30 -7 32 -23q-12 -3 -11 0q4 -1 5 -10q2 -8 6 -9q3 5 1 11q-1 5 3 8q10 -9 7 -22q26 -2 26 -8h-15
q-4 -22 0 -18q9 1 20 -4q13 -5 6 -14q-4 -2 -9 8q-4 7 -10 -1q10 0 7 -6q-7 -12 -7 -9q7 -8 23 -13q14 -5 18 -12q-17 -9 -15 0q11 -3 7 -13l-7 -17q0 -7 7 -23q7 -14 5 -23q1 2 3 1q3 0 4 -3q-7 3 -7 -4q-1 -7 -4 -7q-38 -13 -63 -37q-11 10 -26 2q-27 -15 -33 -16
q4 -22 -8 -34q-14 -14 -14 -22q1 0 -6 3q-3 1 -5 -3q4 0 3 -4t-7 -3q3 -17 -4 -51q-5 -26 4 -41q-5 -3 -6 -11t-8 -11q-6 10 7 -110q2 -3 8 -7q5 -4 7 -8q3 -51 -45 -49q-47 3 -55 45q39 37 19 133q-2 -12 -3 -35q0 -26 -1 -36q-5 -43 -26 -65q-15 15 -8 38q6 22 23 32
q-38 3 -81 -44t-84 -41q1 10 -4 10q-1 0 -5 -1t-6 -2q-3 10 -12 18q-8 7 -10 19q8 -77 64 -157q16 -22 52 -66q34 -42 49 -64q13 -39 52 -74q15 5 26 -3q-11 -2 -11 -4q7 -12 58 -16q44 -3 41 -24q26 -2 33 7q3 -9 18 -11q135 25 170 70q16 21 36 74q20 51 37 73
q15 18 64 59q41 34 58 62q-5 13 -15 192q2 0 5 -3q3 -1 6 -1q27 54 35 139q9 91 -13 144q-8 152 -29 215q-35 110 -129 124q-11 15 -8 26q-59 19 -99 77q-70 18 -194 16q-161 -1 -203 2q-23 -18 -55 -40q-9 -6 -31 -15q-20 -8 -28 -15q-12 -8 -48 -99q-5 -12 -48 -169
q2 -12 0 -40q-2 -30 0 -45q17 -134 37 -151zM655 799q-4 13 2 19q-9 1 -9 -17q1 -17 5 -20q5 4 2 18zM1519 193q2 2 6 -2q4 -3 2 -4t-6 2t-2 4zM1522 170q3 2 7 0q3 -2 0 -5t-6 0t-1 5zM1524 148q2 2 5 1q2 -2 1 -5q-1 -2 -4 0t-2 4zM1524 138q2 2 5 0t1 -4t-5 0t-1 4z
M1523 127q1 4 4 1q4 -2 2 -5q-1 -3 -3 -1q-3 2 -3 5zM1522 116q1 2 4 0q3 -1 1 -4q-2 -2 -5 0q-2 2 0 4zM1525 176q0 -1 -4 1q-3 3 -2 4q2 2 4 -1q3 -2 2 -4zM1514 225q2 2 5 -1q3 -2 1 -3q-2 -2 -5 0t-1 4zM1368 105q-10 44 0 142q1 15 8 25t14 8q20 -7 11 -41
q-28 -97 -14 -135q12 -37 37 -40q46 -6 58 60q9 54 -4 122q-8 38 2 43q13 6 19 -28q19 -93 15 -136q-5 -73 -63 -81q-67 -9 -83 61zM1505 72q2 3 5 2q2 -2 0 -5t-4 -1q-3 2 -1 4zM1409 225q-1 -3 -3 -1q-3 2 -1 5q1 3 3 0q2 -2 1 -4zM1418 244q-1 -1 -5 1q-3 3 -1 5t5 -1
q2 -4 1 -5zM1402 218q2 2 4 1q3 -1 1 -4t-5 -1q-2 2 0 4zM1513 276q-2 -2 -6 0q-3 3 -2 4q2 1 6 -1t2 -3zM1509 251q2 2 5 0q3 -1 2 -2q-1 -2 -5 -1q-3 1 -2 3zM1509 262q2 2 6 0q5 -2 2 -5t-7 0q-4 2 -1 5zM1480 294q-17 -9 -10 -42q29 -136 -17 -171q-11 -8 -29 -1
q-17 7 -22 21q-16 51 14 117q19 44 -4 59q-6 3 -13 6q-14 6 -24 -2q-9 -8 -10 -23q-8 -150 -3 -165q12 -34 45 -58q44 -32 88 5q39 34 44 86q-1 -13 -15 117q-4 36 -13 49q-10 13 -31 2zM882 -118q2 1 5 -2t2 -4q-2 -1 -5 2t-2 4zM885 -138q2 2 5 0q4 -2 1 -4q-3 -3 -5 0
q-3 2 -1 4zM887 -157q1 2 3 1q3 -2 2 -4t-4 0t-1 3zM887 -165q2 1 4 0q3 -2 1 -4q-2 -1 -5 0q-2 2 0 4zM886 -174q1 2 3 0q3 -2 2 -4q-1 -3 -3 -1t-2 5zM884 -184q2 2 4 0q3 -1 1 -3t-4 -1q-2 2 -1 4zM888 -133q-1 -1 -4 1q-2 2 -1 3q1 2 3 0t2 -4zM878 -92q2 2 4 0
q3 -2 1 -3t-4 0q-3 2 -1 3zM754 -194q-9 38 -1 122q4 33 20 27q17 -6 8 -34q-23 -83 -11 -116q10 -31 31 -34q39 -5 49 52q9 46 -3 104q-6 32 2 36q11 5 16 -24q16 -79 13 -115q-5 -63 -54 -69q-56 -8 -70 51zM871 -221q1 2 3 1q3 -1 1 -4t-4 -1t0 4zM789 -92q-1 -2 -3 0
q-3 2 -1 4q1 2 3 0q1 -2 1 -4zM796 -75q-1 -1 -4 1q-2 2 -1 4q2 1 4 -1q2 -3 1 -4zM783 -97q1 2 3 1t0 -4q-1 -2 -3 -1q-2 2 0 4zM877 -48q-2 -2 -5 0t-1 4q1 1 4 -1q4 -2 2 -3zM874 -69q1 1 4 0t2 -2t-4 -1q-3 1 -2 3zM873 -60q2 2 6 0t1 -4q-2 -2 -5 0t-2 4zM849 -33
q-14 -7 -9 -35q25 -116 -14 -146q-10 -7 -25 -1q-14 6 -18 18q-14 43 11 100q17 37 -3 50q-5 3 -11 5q-12 5 -20 -2q-8 -6 -9 -19q-7 -128 -2 -141q10 -29 37 -49q39 -27 76 4q33 29 37 73q-1 -10 -12 100q-4 31 -12 42t-26 1zM1219 148q-10 -7 -10 -22q1 -9 2 -24
q1 -19 2 -24q2 -37 -17 -38q-18 -1 -16 35q1 15 9 89q6 54 6 90q0 40 33 44q63 7 87 -29q17 -23 7 -53q-10 -29 -34 -43q-27 -15 -13 -34q27 -35 36 -60q5 -13 3 -24q-3 -11 -10 -11q-14 0 -23 33q-14 47 -40 69q-11 9 -22 2zM1222 61q2 2 6 1q4 -2 1 -5q-3 -2 -6 0t-1 4z
M1227 73h2v-2v-2q0 -4 -7 0q-3 1 -1 4q1 4 3 2q1 -2 3 -2zM1221 82q2 2 5 0q3 -1 1 -3t-5 0t-1 3zM1220 94q3 2 5 0q3 -3 1 -4q-3 -2 -5 0q-3 2 -1 4zM1333 204q1 -3 -2 -2q-4 1 -5 3q-1 3 2 3t5 -4zM1318 190q2 2 5 1t1 -3t-5 -1t-1 3zM1314 175q-1 2 1 3q6 4 2 5q2 0 3 -3
q0 -3 -2 -4q-3 -2 -4 -1zM1325 77q-1 -2 -4 0t-1 4q1 2 4 1q2 -2 1 -5zM1331 66q-2 -2 -3 0q-3 4 -2 5q5 1 6 -2q1 -2 -1 -3zM1329 59q0 3 4 1q3 -1 2 -4q-2 -2 -5 -1q-2 2 -1 4zM1277 71q10 -46 37 -50h1q14 -2 22 13t3 29q-8 22 -31 61q-16 26 -2 37q26 18 33 39
q16 45 -24 79q-38 32 -92 26q-33 -4 -34 -45q0 -5 -16 -191q-3 -36 14 -46t35 -3q17 7 13 42q-3 23 -4 42q-1 15 8 19q10 5 18 -7q13 -17 19 -45zM1244 200q-9 7 -5 20q12 32 35 31q12 0 16 -13q5 -14 -4 -25q-8 -8 -20 -14q-13 -6 -22 1zM1230 258q3 3 6 0q4 -3 1 -6
q-2 -3 -6 0t-1 6zM1231 236q-9 3 -2 -5q-7 8 2 5zM1260 276q-14 0 -28 -11q-13 -11 -15 -26q0 -1 -3 -21q-2 -15 6 -25q9 -10 23 -7q71 15 64 64q-4 24 -47 26zM749 139q27 -35 37 -60q5 -13 2 -24t-9 -11q-14 0 -24 33q-13 47 -40 69q-11 9 -21 2q-11 -7 -10 -22
q0 -9 1 -24q2 -19 2 -24q2 -37 -16 -38q-19 -1 -16 35q1 15 9 89q5 54 6 90q0 40 33 44q62 7 87 -29q16 -23 6 -53q-9 -29 -34 -43q-27 -15 -13 -34zM696 61q3 2 6 1q4 -2 1 -5q-2 -2 -6 0q-3 2 -1 4zM701 73h2q1 -1 1 -2v-2q0 -4 -8 0q-3 1 -1 4q2 4 3 2q2 -2 3 -2zM695 82
q2 2 5 0q4 -1 1 -3q-2 -2 -5 0t-1 3zM695 94q2 2 5 0q2 -3 0 -4q-2 -2 -5 0t0 4zM807 204q2 -3 -2 -2t-5 3q-1 3 2 3t5 -4zM793 190q1 2 4 1t1 -3q-1 -2 -4 -1t-1 3zM789 175q-2 2 0 3q6 4 2 5q3 0 3 -3q1 -3 -2 -4q-2 -2 -3 -1zM800 77q-2 -2 -4 0q-3 2 -2 4t4 1q3 -2 2 -5
zM805 66q-2 -2 -3 0q-3 4 -2 5q5 1 6 -2q1 -2 -1 -3zM803 59q1 3 4 1q4 -1 2 -4q-2 -2 -4 -1q-3 2 -2 4zM814 200q16 45 -23 79q-39 32 -93 26q-33 -4 -33 -45q0 -5 -16 -191q-3 -36 14 -46q16 -10 34 -3q17 7 13 42q-3 24 -4 42q-1 15 9 19q9 5 18 -7q12 -17 19 -45
q10 -46 37 -50v0q14 -2 23 13q8 15 2 29q-7 22 -31 61q-16 26 -1 37q25 18 32 39zM740 199q-13 -6 -22 1q-8 7 -4 20q11 32 34 31q12 0 17 -13q5 -14 -5 -25q-8 -8 -20 -14zM704 258q3 3 7 0q3 -3 1 -6q-3 -3 -7 0t-1 6zM705 236q-9 3 -1 -5q-8 8 1 5zM707 265
q-14 -11 -16 -26l-3 -21q-2 -15 6 -25q9 -10 23 -7q71 15 64 64q-4 24 -46 26q-15 0 -28 -11zM622 59q0 3 4 1q3 -1 2 -4q-2 -2 -5 -1q-2 2 -1 4zM619 71q5 1 6 -2q1 -2 -1 -3q-2 -2 -3 0q-3 4 -2 5zM613 81q1 2 4 1q2 -2 1 -5q-1 -2 -4 0t-1 4zM574 77q-14 47 -40 69
q-11 9 -22 2q-10 -7 -10 -22q1 -9 2 -24q1 -19 2 -24q2 -37 -17 -38q-18 -1 -16 35q1 15 9 89q6 54 6 90q0 40 33 44q63 7 87 -29q17 -23 7 -53q-10 -29 -34 -43q-27 -15 -13 -34q27 -35 36 -60q5 -13 3 -24q-3 -11 -10 -11q-14 0 -23 33zM515 61q2 2 6 1q4 -2 1 -5
q-3 -2 -6 0t-1 4zM520 73h2v-2v-2q0 -4 -7 0q-3 1 -1 4q1 4 3 2q1 -2 3 -2zM514 82q2 2 5 0q3 -1 1 -3t-5 0t-1 3zM513 94q3 2 5 0q3 -3 1 -4q-3 -2 -5 0q-3 2 -1 4zM626 204q1 -3 -2 -2q-4 1 -5 3q-1 3 2 3t5 -4zM611 190q2 2 5 1t1 -3t-5 -1t-1 3zM607 175q-1 2 1 3
q6 4 2 5q2 0 3 -3q0 -3 -2 -4q-3 -2 -4 -1zM602 124q-16 26 -2 37q26 18 33 39q16 45 -24 79q-38 32 -92 26q-33 -4 -34 -45q0 -5 -16 -191q-3 -36 14 -46t35 -3q17 7 13 42q-3 24 -4 42q-1 15 8 19q10 5 18 -7q13 -17 19 -45q10 -46 37 -50h1q14 -2 22 13t3 29
q-8 22 -31 61zM537 200q-9 7 -5 20q12 32 35 31q12 0 16 -13q5 -14 -4 -25q-8 -8 -20 -14q-13 -6 -22 1zM523 258q3 3 6 0q4 -3 1 -6q-2 -3 -6 0t-1 6zM524 236q-9 3 -2 -5q-7 8 2 5zM553 276q-14 0 -28 -11q-13 -11 -15 -26l-3 -21q-2 -15 6 -25q9 -10 23 -7q71 15 64 64
q-4 24 -47 26zM1475 -169q23 -30 31 -52q4 -11 2 -20t-8 -9q-12 0 -20 28q-12 40 -34 58q-10 8 -19 2t-8 -19q-1 11 3 -41q2 -31 -14 -32t-14 30q1 13 8 76q5 46 5 76q0 35 28 38q53 6 74 -24q14 -20 6 -46q-8 -25 -29 -36q-24 -13 -11 -29zM1430 -236q2 2 5 1q3 -2 1 -4
q-3 -2 -5 -1q-3 2 -1 4zM1434 -226h2v-2v-1q0 -4 -7 0q-2 1 -1 4q2 3 3 1t3 -2zM1429 -218q1 1 4 0t1 -2q-2 -2 -4 0q-3 1 -1 2zM1428 -208q2 2 5 0q2 -2 0 -3q-2 -2 -5 0q-2 2 0 3zM1524 -114q1 -2 -2 -2q-3 1 -4 3q-1 3 2 2q3 0 4 -3zM1512 -126q1 2 3 1q3 -1 2 -2
q-2 -2 -4 -1q-3 0 -1 2zM1508 -138q-1 1 1 2q5 4 2 5q7 -3 0 -7q-2 -2 -3 0zM1518 -222q-1 -2 -4 -1q-2 2 -1 4t3 1q3 -1 2 -4zM1523 -232q-2 -1 -3 1q-3 3 -2 3q5 1 5 -1q1 -2 0 -3zM1520 -237q1 2 4 0q3 -1 2 -3q-2 -2 -4 -1q-2 2 -2 4zM1530 -117q14 38 -20 67
q-33 27 -79 22q-28 -3 -28 -38q0 -4 -14 -163q-2 -30 12 -39q14 -8 29 -2q15 5 11 35q-2 20 -3 36q-1 12 7 16t16 -6q10 -15 16 -39q8 -38 31 -42h1q12 -2 19 11t2 25q-6 18 -26 52q-14 22 -2 31q22 16 28 34zM1467 -118q-11 -5 -19 1q-7 6 -4 16q10 28 30 27q10 0 14 -11
q4 -12 -4 -21q-7 -7 -17 -12zM1436 -68q3 2 6 0q3 -3 1 -5t-6 0q-3 2 -1 5zM1437 -87q-7 3 -1 -4q-6 7 1 4zM1438 -62q-11 -9 -13 -22q0 1 -2 -18q-2 -13 5 -21q7 -9 19 -6q61 13 55 54q-3 21 -40 22q-12 0 -24 -9zM1871 -240q-15 -7 -28 -5q-16 3 -43 14q-29 12 -24 24
q2 8 28 -6q22 -13 40 -11q22 2 23 26q2 29 -44 57q-48 29 -48 58q0 7 2 13q8 26 40 31q28 3 58 -11q10 -6 14 -15q4 -8 -2 -11q-16 -7 -32 12q-10 13 -22 13q-10 0 -21 -10q-12 -10 -12 -20q-2 -15 49 -64q49 -48 41 -77q-3 -11 -19 -18zM1895 -179q-2 -2 -4 2q-7 10 2 3
q3 -3 2 -5zM1900 -240q-2 -2 -3 1q-2 3 -1 4q1 2 3 -1q3 -2 1 -4zM1905 -214q0 -2 -2 -3q-3 -1 -5 1t-1 4t2 0q6 -5 6 -2zM1897 -227q2 2 4 -1q3 -2 1 -4q-1 -2 -4 0q-2 3 -1 5zM1890 -246q1 1 3 -2q1 -2 0 -4q-2 -1 -3 2t0 4zM1889 -86q0 2 3 0q3 -1 3 -3t-3 0q-3 1 -3 3z
M1903 -87q-1 -2 -4 1q-4 2 -3 4t5 -1q3 -2 2 -4zM1910 -84q0 -2 -4 1q-3 2 -3 5q1 2 4 -1t3 -5zM1880 -90q1 2 5 0q5 -2 4 -3q0 -2 -5 0q-4 2 -4 3zM1874 -88q13 -12 23 -11h1q12 2 13 14q0 12 -9 21q-60 51 -106 24q-32 -18 -25 -54q4 -19 54 -52q44 -29 37 -57
q-3 -9 -13 -13q-21 -9 -44 9q-1 1 -2 1q-9 8 -19 8t-12 -7q-6 -16 4 -27q7 -9 10 -11q44 -26 93 -24q26 1 30 39q4 35 -10 57q-4 7 -69 62q-10 8 -12 15q-3 17 9 24q11 5 25 -1q5 -2 22 -17zM1809 222q6 16 24 23t24 -7q11 -29 6 -75q-4 -42 -23 -74q-9 -13 -26 -10
q-18 3 -20 19t1 55q2 37 14 69zM1797 209q-2 -2 -5 0q-2 3 1 5q3 3 5 0t-1 -5zM1785 133q3 1 4 -2q2 -3 -1 -5q-3 -1 -4 2q-2 3 1 5zM1788 142q-3 -2 -5 1q-1 3 1 5q3 1 5 -2q2 -2 -1 -4zM1801 228q-3 -2 -5 1q-2 4 1 5q4 1 6 -2q1 -3 -2 -4zM1806 239q-3 -2 -5 1t2 4
q3 2 5 -1q2 -2 -2 -4zM1850 94q14 33 17 77q4 46 -6 75q-11 33 -36 30q-12 -1 -16 -4q-23 -17 -31 -113q-9 -101 36 -100q20 0 36 35zM1878 257q18 -35 17 -88q-1 -54 -21 -90q-23 -41 -60 -39q-51 3 -59 87q-6 59 12 105q19 52 58 59q34 5 53 -34zM1899 241q-2 -2 -4 -1
q-2 2 -2 4q1 3 4 1q4 -1 2 -4zM1899 212q-3 2 -2 5t3 3q5 0 6 -6q1 -8 -7 -2zM1902 175q1 3 5 2q3 -1 1 -5q-1 -5 -4 -3q-2 2 -2 6zM1907 142q-3 -4 -5 -2q-3 2 -3 4q0 3 3 2q3 0 4 2t-2 3q-4 1 -3 3q0 3 2 1t3 0q2 2 0 4q-7 8 -1 4t6 -12q-1 -5 -4 -9zM1899 128q-3 1 -1 4
q2 2 4 2q6 0 4 -3q-2 -6 -7 -3zM1889 94q2 2 5 1q2 -1 0 -5q-2 -3 -5 -1t0 5zM1885 57q27 39 31 100q3 62 -19 102q-25 46 -72 39q-33 -6 -54 -46q-19 -37 -22 -88q-2 -51 12 -89q17 -42 48 -49q46 -12 76 31zM390 163q-4 -42 -24 -74q-8 -13 -26 -10q-17 3 -19 19t1 55
q2 37 14 69q5 16 23 23q19 7 24 -7q12 -29 7 -75zM324 209q-3 -2 -5 0q-2 3 0 5q3 3 5 0q3 -3 0 -5zM312 133q3 1 4 -2q2 -3 -1 -5q-3 -1 -5 2q-1 3 2 5zM315 142q-3 -2 -5 1q-1 3 1 5q3 1 5 -2q1 -2 -1 -4zM328 228q-3 -2 -5 1q-3 4 1 5q3 1 5 -2t-1 -4zM333 239
q-3 -2 -5 1t1 4q4 2 6 -1q1 -2 -2 -4zM336 272q-23 -17 -31 -113q-9 -101 35 -100q21 0 37 35q14 33 17 77q4 46 -6 75q-11 33 -36 30q-12 -1 -16 -4zM426 241q-2 -2 -4 -1q-3 2 -2 4q1 3 4 1q3 -1 2 -4zM426 212q-3 2 -2 5t3 3q5 0 6 -6q1 -8 -7 -2zM429 175q1 3 5 2
q3 -1 1 -5q-2 -5 -4 -3q-3 2 -2 6zM434 142q-3 -4 -5 -2q-3 2 -3 4q0 3 3 2q3 0 4 2t-3 3q-3 1 -2 3q0 3 2 1q1 -2 3 0t0 4q-7 8 -1 4t5 -12q0 -5 -3 -9zM426 128q-3 1 -1 4q2 2 4 2q5 0 4 -3q-2 -6 -7 -3zM281 127q-5 59 12 105q20 52 59 59q34 5 53 -34q18 -35 17 -88
q-2 -54 -22 -90q-22 -41 -60 -39q-51 3 -59 87zM415 94q3 2 5 1q3 -1 1 -5q-3 -3 -5 -1q-3 2 -1 5zM298 252q-19 -37 -22 -88t12 -89q16 -42 48 -49q46 -12 76 31q27 39 30 100q4 62 -18 102q-25 46 -72 39q-33 -6 -54 -46zM562 -146q-3 -36 -21 -65q-7 -12 -23 -9t-17 17
q-2 14 0 49q3 33 13 61q5 14 21 20q17 7 21 -6q10 -25 6 -67zM504 -105q-3 -2 -5 1q-2 2 1 4q2 2 4 0q2 -3 0 -5zM493 -172q2 1 4 -2q1 -3 -2 -4q-2 -1 -3 2q-2 3 1 4zM495 -164q-2 -1 -4 1q-1 3 1 4q3 1 4 -1q2 -2 -1 -4zM507 -88q-3 -1 -4 2q-2 3 1 4t4 -2q2 -2 -1 -4z
M512 -78q-3 -2 -5 1t1 4q3 2 5 -1q2 -2 -1 -4zM514 -49q-20 -15 -28 -100q-7 -90 32 -89q40 1 48 100q3 40 -6 67q-10 29 -31 26q-11 -1 -15 -4zM594 -76q-1 -2 -3 -1q-3 2 -2 4t4 1t1 -4zM594 -102q-2 2 -1 4q0 3 2 3q4 0 5 -5q1 -7 -6 -2zM597 -135q1 3 4 2t1 -5
q-1 -3 -3 -2q-3 2 -2 5zM594 -162q0 2 3 2q2 -1 3 1t-2 3q3 -1 0 3q1 -1 3 1q1 2 0 3q-7 7 -1 4q5 -4 4 -11q-1 -15 -7 -10q-2 2 -3 4zM594 -176q-2 1 -1 3q2 2 4 2q5 0 4 -3q-2 -5 -7 -2zM466 -177q-5 52 10 93q18 46 53 52q29 5 47 -29q15 -32 14 -79q-1 -48 -18 -80
q-21 -37 -54 -35q-45 3 -52 78zM585 -207q2 2 4 1q3 -1 1 -4t-5 -1q-2 2 0 4zM461 -144q-2 -45 11 -79q14 -38 42 -45q41 -10 68 29q24 34 27 89q3 54 -17 90q-22 41 -63 34q-62 -10 -68 -118zM393 -146q-3 -36 -21 -65q-7 -12 -23 -9t-18 17q-1 14 1 49q2 33 13 61
q5 14 21 20q16 7 21 -6q10 -25 6 -67zM334 -105q-2 -2 -4 1q-2 2 0 4q3 2 5 0q2 -3 -1 -5zM323 -172q3 1 4 -2q2 -3 -1 -4q-2 -1 -4 2q-1 3 1 4zM326 -164q-2 -1 -4 1q-1 3 1 4t4 -1q1 -2 -1 -4zM338 -88q-3 -1 -5 2t1 4t5 -2q2 -2 -1 -4zM342 -78q-2 -2 -4 1t1 4q3 2 5 -1
q1 -2 -2 -4zM345 -49q-20 -15 -28 -100q-8 -90 32 -89t48 100q3 40 -6 67q-10 29 -32 26q-11 -1 -14 -4zM425 -76q-2 -2 -4 -1q-2 2 -1 4q0 2 3 1t2 -4zM425 -102q-3 2 -2 4q1 3 3 3q4 0 5 -5q1 -7 -6 -2zM428 -135q1 3 4 2t1 -5q-1 -3 -4 -2q-2 2 -1 5zM425 -162q0 2 2 2
q3 -1 4 1t-2 3q3 -1 -1 3q2 -1 3 1q2 2 0 3q-6 7 -1 4q6 -4 5 -11q-1 -15 -8 -10q-2 2 -2 4zM425 -176q-3 1 -1 3q1 2 4 2q5 0 3 -3q-1 -5 -6 -2zM296 -177q-5 52 11 93q18 46 52 52q30 5 47 -29q16 -32 15 -79q-1 -48 -19 -80q-20 -37 -53 -35q-45 3 -53 78zM416 -207
q2 2 4 1t0 -4t-4 -1t0 4zM292 -144q-3 -45 10 -79q15 -38 43 -45q40 -10 67 29q24 34 28 89q3 54 -17 90q-22 41 -64 34q-61 -10 -67 -118zM667 -77q1 2 3 0q2 -3 0 -4q-1 -2 -2 0q-2 2 -1 4zM683 -241q32 -1 31 2q7 -13 -20 -22q-11 -3 -26 2q-16 6 -22 16q-20 38 -13 112
q7 72 29 92q18 15 42 3q11 -5 13 -16q3 -11 -3 -15q-9 -8 -14 8q-2 7 -14 7q-13 0 -19 -10q-19 -29 -20 -87q-1 -56 14 -78q9 -14 22 -14zM654 -125q2 5 6 -1q1 -2 0 -3q-2 -1 -3 0q-3 1 -3 4zM661 -98q2 1 3 -1q2 -2 0 -4t-3 1q-2 2 0 4zM714 -76q0 1 2 -1q3 -2 3 -4
q-1 -2 -3 1q-2 2 -2 4zM724 -76q0 -2 -2 0q-3 2 -3 4q0 3 2 1q3 -3 3 -5zM692 -66q4 -4 4 -10q0 -12 13 -17q8 -3 20 8q5 5 4 17q0 12 -8 21q-24 31 -55 19q-37 -14 -43 -122q-4 -61 22 -107q17 -30 47 -24q11 2 19 6q11 5 16 19q4 14 -3 22q-13 15 -31 2q-5 -4 -15 3
q-10 8 -14 19q-17 59 8 129q3 9 7 14q4 4 9 1zM1566 -238q0 8 13 14q11 4 11 -11q0 -11 -12 -14q-12 -2 -12 11zM1562 -238q1 -26 16 -29q22 -5 27 17q3 16 -3 28q-4 7 -24 2q-16 -4 -16 -18zM279 -38q2 2 5 -2q3 -5 2 -6q-2 -1 -5 3t-2 5zM278 -54q2 -4 3 -2t-3 5
q-3 4 -1 5q3 0 7 -5q3 -4 0 -7t-6 0q5 -5 0 4zM273 -62q2 1 5 -1q3 -3 1 -4q-3 -1 -6 2q-2 2 0 3zM270 -70q2 2 5 -1q2 -3 0 -5t-4 1t-1 5zM270 -79q0 1 2 -2q3 -2 2 -4q0 -1 -2 2q-3 3 -2 4zM266 -86q2 2 3 -1q2 -3 1 -5q0 -2 -2 1q-3 2 -2 5zM265 -95q1 2 3 0q2 -3 1 -5
q-2 -2 -4 0q-1 3 0 5zM262 -115q-2 2 -2 4t1 0q2 -1 4 0q3 1 1 2q4 -4 -1 5q4 -7 4 -8q-4 -8 -7 -3zM257 -128q2 1 4 0q3 -2 0 -4q-2 -2 -4 0q-2 3 0 4zM211 -245q-16 -2 -23 27q-8 32 -10 38q-3 12 -10 13q-7 0 -11 -12q-5 -14 -11 -37q-7 -29 -24 -30q-17 -2 -22 27
q-4 26 -10 71q-7 53 -10 72q-5 33 11 37q18 4 14 -28q-9 -89 5 -139q4 -12 11 -12q8 0 11 13q1 8 7 41q4 27 24 33q18 6 24 -21q8 -38 11 -50q4 -12 9 -11q6 0 9 12q7 34 22 138q4 32 19 32q14 1 8 -30q-4 -19 -17 -76q-12 -48 -16 -78q-5 -29 -21 -30zM246 -178q0 2 2 0
q2 -3 2 -5t-2 1q-2 2 -2 4zM244 -187q2 2 5 0q2 -1 0 -3t-4 0t-1 3zM242 -202q1 2 4 0q3 -3 1 -4q-1 -1 -4 1t-1 3zM240 -209q2 2 5 -1q2 -2 0 -4q-1 -1 -4 1q-2 3 -1 4zM239 -217q2 1 4 -1t1 -3q-2 -1 -4 1t-1 3zM240 -242q-7 6 0 -3q-7 9 0 3zM242 -238q-1 -1 -3 0
q-3 2 -2 4q1 1 3 -1q3 -2 2 -3zM236 -249q1 2 4 0q3 -3 2 -5q-1 -3 -4 0t-2 5zM156 -212q0 2 2 0q3 -2 1 -4q-1 -2 -2 0q-2 3 -1 4zM151 -224q1 1 3 -1q2 -1 2 -3q-1 -2 -4 0q-2 2 -1 4zM149 -237q2 2 4 0q3 -2 2 -4q-2 -1 -4 1q-3 1 -2 3zM147 -244q2 1 5 0q3 -2 1 -4
q-2 -1 -4 1q-3 2 -2 3zM146 -251q1 1 4 -1q3 -1 1 -3q-1 -1 -4 1t-1 3zM112 -108q-1 -1 -3 0q-3 2 -1 3q1 2 3 0q2 -1 1 -3zM115 -93q-3 -2 -5 -1q-3 2 -1 3q2 2 5 1q3 -2 1 -3zM115 -85q-1 -2 -4 -1t-1 3q1 2 4 1t1 -3zM117 -71q0 -2 -3 0q-2 1 -2 3q1 2 4 0q2 -2 1 -3z
M119 -64q-1 -2 -3 0t-1 3q0 2 3 0q2 -1 1 -3zM194 -146q1 2 4 0q2 -2 1 -3q-1 -2 -4 0q-2 1 -1 3zM196 -142q-6 3 -6 4q-1 2 2 1q4 0 6 -4q3 -3 -2 -1zM234 -57q-6 -54 -15 -102q-3 -13 -7 -13q-4 1 -5 13q-1 15 -4 22q-7 22 -42 10q-22 -7 -26 -34l-2 -10q-2 -12 -8 -12
q-6 -1 -8 12q-6 37 7 92q7 31 -1 39q-11 9 -30 5q-22 -4 -18 -33q2 -18 11 -77q7 -47 9 -78q3 -31 13 -41q6 -7 30 -5q21 2 25 32q1 4 2 14q1 8 2 13q1 12 7 12q5 -1 7 -13q6 -27 13 -39q14 -24 39 -18q16 4 18 34q5 91 32 152q14 31 5 43q-11 16 -32 13q-19 -2 -22 -31z
M217 298q40 5 36 -9q-2 -10 -41 -12h-1h-1q-36 -3 -38 -40q-5 -78 5 -146q5 -35 -8 -41q-6 -3 -10 6q-5 8 -5 23q-1 24 1 78q2 53 1 78q0 15 -11 25t-25 9q-34 -2 -38 8q-5 13 31 14q59 1 104 7zM265 265q-2 -1 -5 1t-1 3t5 0q3 -2 1 -4zM194 79q-1 -2 -5 0q-3 2 -2 4t5 0
q3 -1 2 -4zM204 50q-2 -3 -6 0q-5 3 -3 5q1 2 6 0q4 -3 3 -5zM198 61q-6 7 1 5q-7 2 -1 -5zM177 237q0 5 6 1q2 -1 1 -3q0 -2 -2 -2q-5 0 -5 4zM115 246q36 -5 36 -33q0 -24 -2 -71q-1 -47 -1 -72q0 -16 10 -29q10 -15 24 -16h7q13 1 17 19q3 16 -2 32q-23 71 -14 144
q4 32 42 33h5q33 0 37 16q4 12 -5 29q-6 11 -45 5q-25 -4 -117 -7q-15 0 -24 -6q-9 -7 -6 -15q9 -24 37 -29q-1 1 1 0zM1227 -63q1 1 4 0q3 -2 1 -3t-4 0q-2 2 -1 3zM1187 -56h-2q-30 -3 -32 -34q-5 -66 4 -124q5 -30 -6 -35q-14 -7 -14 24q0 21 1 66q2 46 2 67
q-1 13 -10 22q-9 8 -22 7q-28 -2 -32 7q-4 11 27 12q50 1 88 6q34 4 31 -8q-2 -8 -35 -10zM1172 -224q-1 -2 -4 0q-3 1 -2 3t4 0q2 -2 2 -3zM1180 -250q-1 -2 -5 1q-4 2 -3 4t5 0t3 -5zM1175 -240q-5 6 1 4q-6 2 -1 -4zM1157 -90q0 4 5 1q2 -1 1 -3q0 -1 -2 -1q-4 0 -4 3z
M1097 -39q-32 -1 -25 -18q8 -21 32 -25h1q30 -5 30 -29q0 -20 -1 -60t-2 -61q0 -14 9 -25q9 -13 21 -14h5q12 1 15 17q2 13 -2 27q-19 60 -12 123q4 27 36 27l4 1q29 0 32 13q3 11 -5 25q-5 9 -38 4q-21 -3 -100 -5zM1050 -63q2 1 4 0q3 -2 1 -3q-1 -1 -4 0q-2 2 -1 3z
M1011 -56h-2q-31 -3 -33 -34q-4 -66 4 -124q5 -30 -6 -35q-13 -7 -13 24q-1 21 1 66q1 46 1 67q0 13 -10 22q-9 8 -22 7q-28 -2 -32 7q-4 11 27 12q50 1 89 6q34 4 31 -8q-3 -8 -35 -10zM995 -224q-1 -2 -4 0q-3 1 -2 3t4 0t2 -3zM1003 -250q-1 -2 -5 1q-4 2 -2 4q1 2 5 0
q3 -2 2 -5zM998 -240q-5 6 1 4q-6 2 -1 -4zM981 -90q0 4 4 1q2 -1 2 -3q-1 -1 -3 -1q-3 0 -3 3zM921 -39q-32 -1 -26 -18q8 -21 32 -25h1q30 -5 30 -29q0 -20 -1 -60t-1 -61q0 -14 8 -25q9 -13 21 -14h5q12 1 15 17q3 13 -2 27q-19 60 -11 123q3 27 36 27l3 1q29 0 32 13
q3 11 -5 25q-5 9 -38 4q-21 -3 -99 -5zM1599 118q2 2 5 0t0 -4q-2 -2 -5 0q-3 1 0 4zM1601 138q-3 -2 -5 0q-3 2 0 5t6 1q2 -3 -1 -6zM1568 57q-5 12 -5 29q-1 23 0 81q1 53 0 83q-1 38 22 43q21 4 30 -37q11 -49 54 -146q7 -15 12 -14q6 1 6 17q2 51 -3 147q-2 40 12 40
q13 0 11 -40q-6 -163 -8 -179q-3 -41 -22 -40q-14 0 -27 41q-4 13 -12 37q-9 25 -12 36q-19 60 -22 68q-7 15 -14 13t-7 -19q1 -51 11 -129q4 -38 -13 -41q-7 -2 -13 10zM1634 251q-1 -2 -5 -1q-4 2 -3 4q1 3 5 1q4 -1 3 -4zM1636 239q1 -5 -3 -3q-5 3 -5 6t4 2t4 -5z
M1637 265q1 -3 0 -5q-2 -2 -4 -1q-5 3 -2 3q2 1 1 3q-2 3 -6 4q-5 2 -4 5t5 1q5 -2 10 -10zM1645 208q-2 -3 -5 -2q-4 1 -2 4q2 2 5 1q4 -1 2 -3zM1641 199q1 2 5 1q3 -2 2 -4q-1 -3 -5 -1t-2 4zM1712 56q-3 -3 -5 -1q-3 2 -1 4q3 2 6 1q2 -2 0 -4zM1720 208q-1 -3 -3 -3
q-4 0 -4 3q-1 4 0 6q2 2 3 0q5 -6 4 -6zM1721 229q-2 -3 -5 0t-1 5t5 -1q3 -2 1 -4zM1723 252q-3 -3 -6 0q-3 4 -1 6q3 2 6 0q4 -2 1 -6zM1717 280q2 2 5 -1q8 -9 5 -12q-3 -6 -9 -2q-3 2 -2 4t3 0t2 1t-3 6t-1 4zM1718 245q0 2 3 -1q4 -2 2 -5q-2 -2 -4 1t-1 5zM1705 38
q3 3 6 1q4 -2 1 -5t-6 -1t-1 5zM1605 192q3 1 9 -15q25 -73 33 -105q10 -40 18 -47q11 -9 31 -9q21 1 23 42q4 140 9 175q7 45 -1 57q-9 16 -32 15q-21 0 -17 -37q6 -49 4 -102q0 -17 -6 -18q-5 -1 -10 15q-14 41 -21 87q-8 50 -42 52h-9q-17 -1 -27 -14q-11 -13 -10 -30
q4 -66 -1 -177q-2 -33 14 -50q12 -15 34 -10q20 4 14 47q-13 83 -15 107q-2 17 2 17zM1077 69q-10 8 -12 24q0 3 -1 10q-1 6 -1 9q-1 15 3 25q5 11 11 10q25 -5 27 -37q2 -22 -8 -37q-7 -12 -19 -4zM1053 71q0 4 6 1q2 -2 1 -4t-3 -2q-4 0 -4 5zM1057 98q-2 -2 -5 -1t-1 4
q2 2 5 0q2 -2 1 -3zM1057 123q0 -3 -7 0q-3 1 -2 4q2 3 4 1q5 -3 5 -5zM1055 143q-3 -2 -7 -1q-3 2 -1 4t6 0q4 -1 2 -3zM1054 152q-1 -1 -4 1q-3 1 -3 3q1 1 5 0q4 -2 2 -4zM1054 83q2 2 5 0q2 -3 1 -4q-2 -2 -5 0t-1 4zM1045 164q-8 -8 -6 -23q1 -10 4 -28q3 -22 4 -29
q2 -16 14 -26q12 -11 24 -3q23 14 26 46q2 31 -18 51q-10 10 -27 15q-13 4 -21 -3zM1055 56q-1 -3 2 -3q4 0 3 3q0 3 -3 3q-2 0 -2 -3zM1068 250q-3 -3 -6 0q-3 2 -1 4t6 1t1 -5zM1070 270q1 -4 -3 -1q-3 3 -3 5q-1 3 3 1q3 -1 3 -5zM1076 256q4 14 20 2q15 -12 8 -25
q-2 -5 -6 -9q-9 -10 -18 -1q-9 8 -7 23q1 6 3 10zM1111 232q6 14 -2 33t-21 22q-14 4 -25 -9q-10 -11 -11 -27q-1 -5 -1 -11q-2 -15 8 -26q9 -11 23 -7q20 7 29 25zM1119 31q-4 -1 -6 3q-1 3 -1 5q1 2 3 0q2 -3 4 -3q2 1 1 3q-3 6 -1 4q-6 7 2 3q-3 1 0 3t5 -1q5 -6 -1 -13
q-3 -3 -6 -4zM1032 42q-10 11 -11 27q-2 99 0 198q1 43 33 51q19 5 37 0q14 -5 29 -24t17 -34q4 -34 -26 -59q-27 -23 -20 -24q14 -4 31 -29q9 -14 10 -27q5 -38 -16 -63q-21 -24 -58 -27q-15 -1 -26 11zM1106 35q2 2 3 -1q3 -11 -3 -4q-3 2 0 5zM1137 62q-3 -1 -5 2t-1 4
q2 1 5 -2q4 -3 1 -4zM1138 123q-2 -2 -3 2q0 4 1 5q1 0 3 -3q1 -3 -1 -4zM1141 77q-2 -1 -4 2q-2 4 1 5q2 2 4 -2q2 -3 -1 -5zM1127 59q4 1 7 -3q3 -3 -1 -5q-5 -2 -7 2q-3 4 1 6zM1135 146q-21 29 -3 47q12 11 16 21q21 52 -20 89q-39 34 -85 18q-30 -10 -29 -54
q3 -101 2 -205q0 -33 11 -43q14 -14 44 -11q42 4 64 31q21 28 15 71q-2 18 -15 36zM868 63q2 0 3 3l-4 4q-4 0 -4 -3q0 -4 5 -4zM870 209q-1 -39 24 -33q12 2 21 -1t8 -8q-2 -17 -25 -14q-11 1 -21 -8q-10 -10 -12 -24q-2 -10 -4 -29q-1 -13 6 -22q1 0 3 -1t1 -3q9 -7 21 -5
q14 2 25 3q33 5 33 -7q-1 -11 -38 -13q-27 -1 -35 -2q-15 0 -25 11q-11 11 -10 26q0 25 4 88q4 61 4 94q1 35 36 37q20 0 50 2q15 0 20 -9t-9 -12q-13 -3 -35 -2q-15 1 -28 -8q-14 -10 -14 -24v-36zM889 257q-1 -3 -4 1q-4 3 -3 6q1 2 5 -1q3 -3 2 -6zM881 252q2 2 6 -1
q4 -4 2 -6q-2 -1 -6 2q-4 4 -2 5zM880 242q1 1 5 -2t2 -5t-5 2q-4 4 -2 5zM879 230q2 2 5 -1q3 -2 2 -3q-2 -2 -5 0q-3 3 -2 4zM879 219q1 3 4 1t2 -5t-4 -1q-3 3 -2 5zM879 208q2 2 5 0q2 -1 1 -3q-2 -2 -5 -1q-3 2 -1 4zM883 196q-2 -1 -5 0t-1 3t5 0q2 -1 1 -3zM882 185
q-2 -3 -5 0q-3 2 0 4q2 2 5 0t0 -4zM938 160q-2 -2 -5 1q-2 2 -1 4q1 3 4 0q3 -4 2 -5zM982 281q-3 -1 -6 2q-2 3 0 5q3 1 6 -2t0 -5zM894 218q1 14 15 26q12 11 27 12h7q35 2 45 15q9 13 0 25q-7 12 -41 10q-20 -1 -66 -3q-35 -2 -36 -37q-2 -98 -9 -192q-3 -37 5 -47
q9 -9 45 -8q34 2 46 3q35 4 37 24q2 14 -7 23q-5 5 -45 1h-5q-15 -2 -24 7t-8 23q3 35 32 34t33 17q2 9 -4 20q-8 13 -19 14q-31 4 -28 32v1zM1665 -234q2 0 3 3q-2 1 -4 3q-3 0 -3 -2q0 -4 4 -4zM1757 -42q3 1 5 -2q3 -2 0 -4q-2 -1 -5 2q-2 2 0 4zM1683 -68q-1 -3 -4 0
q-2 3 -2 5q1 2 4 0q3 -3 2 -5zM1677 -73q1 2 5 -1q3 -3 1 -4q-2 -2 -5 1t-1 4zM1675 -81q2 1 5 -2t1 -4q-1 -2 -4 2q-3 3 -2 4zM1675 -91q1 1 4 -1t1 -3q-1 -2 -4 0q-3 3 -1 4zM1675 -101q1 2 3 1q3 -2 2 -5q-1 -2 -4 0q-3 3 -1 4zM1675 -110q1 1 4 0q2 -2 0 -3q-1 -2 -3 0
q-3 1 -1 3zM1678 -120q-2 -1 -4 -1q-3 1 -1 3q1 2 4 0q2 -1 1 -2zM1677 -130q-2 -3 -4 0q-3 2 0 4q2 2 4 0q3 -2 0 -4zM1703 -52q-13 1 -24 -7q-12 -8 -12 -20v-31q-1 -32 21 -28q26 6 24 -8t-22 -11q-23 3 -28 -27q-1 -9 -3 -25q-1 -11 5 -19q2 0 3 -1t1 -2q7 -6 18 -5
q11 2 21 3q28 4 28 -6q0 -9 -32 -11q-23 -1 -30 -1q-13 -1 -22 9q-9 9 -8 22q0 21 3 75q3 52 4 80q1 30 30 31q17 1 43 2q13 0 17 -7q5 -8 -7 -11q-11 -2 -30 -2zM1724 -151q-1 -2 -3 0t-1 4t3 0q3 -3 1 -4zM1733 -27q-17 -1 -56 -2q-31 -2 -31 -32q-2 -83 -8 -163
q-3 -32 4 -40t38 -7q30 1 40 2q30 3 32 20q1 13 -6 20q-5 5 -39 1h-2h-2q-30 -3 -27 26q2 30 27 29q24 -1 28 14q1 8 -4 17q-6 11 -16 12q-26 3 -24 28v0q3 31 36 33h6q29 1 38 13q8 10 1 21q-7 10 -35 8zM1280 -234q2 0 3 3q-2 1 -3 3q-4 0 -4 -2q0 -4 4 -4zM1372 -42
q3 1 6 -2q2 -2 0 -4q-3 -1 -5 2q-3 2 -1 4zM1298 -68q-1 -3 -3 0q-3 3 -3 5q1 2 4 0q3 -3 2 -5zM1292 -73q1 2 5 -1q3 -3 1 -4q-2 -2 -5 1t-1 4zM1290 -81q2 1 5 -2t2 -4q-2 -2 -5 2q-3 3 -2 4zM1290 -91q2 1 4 -1q3 -2 2 -3q-2 -2 -5 0q-3 3 -1 4zM1290 -101q1 2 3 1
q3 -2 2 -5q-1 -2 -4 0q-2 3 -1 4zM1290 -110q2 1 4 0q2 -2 1 -3q-2 -2 -4 0q-3 1 -1 3zM1293 -120q-1 -1 -4 -1q-3 1 -1 3t4 0q2 -1 1 -2zM1292 -130q-2 -3 -4 0q-2 2 0 4t4 0q3 -2 0 -4zM1318 -52q-13 1 -24 -7q-12 -8 -12 -20v-15v-16q-1 -32 21 -28q26 6 24 -8t-21 -11
q-24 3 -29 -27q-1 -9 -2 -25q-2 -11 5 -19q1 0 2 -1t1 -2q8 -6 18 -5q11 2 21 3q28 4 28 -6q0 -9 -32 -11q-23 -1 -30 -1q-13 -1 -22 9q-9 9 -8 22q0 21 4 75q3 52 3 80q1 30 30 31q18 1 43 2q13 0 17 -7q5 -8 -7 -11q-11 -2 -30 -2zM1340 -151q-1 -2 -4 0q-2 2 -1 4t3 0
q3 -3 2 -4zM1292 -29q-30 -2 -31 -32q-2 -83 -8 -163q-3 -32 4 -40q8 -9 38 -7q30 1 40 2q30 3 32 20q1 13 -6 20q-5 5 -39 1h-2h-2q-30 -3 -27 26q2 30 27 29q24 -1 28 14q1 8 -4 17q-6 11 -16 12q-26 3 -24 28h1q2 31 36 33h5q30 1 38 13q8 10 1 21q-7 10 -35 8
q-17 -1 -56 -2z" />
    <glyph glyph-name="percent" unicode="%" horiz-adv-x="1086" 
d="M783 1428h3q88 0 139 -75q4 -6 4 -13v-10q0 -54 -157 -248q-86 -123 -132 -231q-77 -184 -122 -376q-49 -307 -85 -383q-56 -92 -101 -92q-104 0 -184 119q-13 32 -17 88q0 120 129 363q173 354 309 695q106 163 214 163zM192 254q0 -69 48 -78q73 0 136 340
q84 285 159 424q76 168 180 312q44 45 44 78q-9 44 -41 44h-7q-67 0 -257 -468q-258 -536 -258 -601q-4 -21 -4 -51zM820 1292q0 -13 17 -23h10q10 3 10 20v7q0 23 -17 23q-20 -7 -20 -27zM189 1309q114 0 173 -118q17 -32 17 -85v-4q0 -123 -139 -169h-34q-89 0 -149 173
q-7 27 -7 57v14q0 114 139 132zM783 1248v-13q0 -15 34 -24l3 7v13q0 27 -24 27h-3q-5 0 -10 -10zM67 1119q0 -79 61 -105q19 -3 27 -3q77 0 112 119v6q0 62 -102 92h-23q-47 0 -68 -58q-7 -32 -7 -51zM722 1153q7 -20 27 -20h3l4 13q-7 28 -14 28h-10q-10 -4 -10 -21z
M142 1174q54 -8 54 -51q-7 -21 -27 -21h-4q-54 7 -54 44q0 22 31 28zM803 784h20q109 0 184 -116q23 -48 23 -91v-24q0 -124 -132 -173q-32 -7 -51 -7h-27q-118 0 -166 136q-21 48 -21 102v3q0 116 123 163q25 7 47 7zM678 614q0 -79 118 -129q13 -3 27 -3h14q64 10 64 78v3
q0 94 -101 156l-34 3q-88 -32 -88 -108zM766 658q47 0 64 -88q-7 -37 -34 -37h-7q-42 0 -61 74v4q6 47 38 47zM752 590q7 -20 27 -20q22 0 27 34q0 14 -17 27q-37 -12 -37 -41zM430 475q0 -4 -3 -10q9 -27 16 -27h4q7 1 13 17q-4 14 -17 20h-13zM389 237v-6q0 -9 27 -14h7
q7 0 7 7v7q0 9 -27 13h-7q-7 -1 -7 -7zM376 129l-4 -14q0 -17 21 -30h10q7 0 7 7v3q0 19 -24 34h-10z" />
    <glyph glyph-name="ampersand" unicode="&#x26;" horiz-adv-x="1319" 
d="M616 1431h17q171 0 286 -146q25 -54 25 -92q0 -58 -70 -171q-22 -40 -22 -73q19 -105 64 -221q51 -84 87 -84q11 0 34 45q25 19 44 19h12q48 0 137 -131q22 -43 22 -104v-3q0 -56 -47 -92q-17 -30 -17 -64q0 -33 45 -84q19 -36 19 -65v-14q0 -64 -117 -98l-14 -3
q-37 0 -112 84q-7 28 -28 28h-14q-63 0 -205 -112q-82 -50 -160 -50h-30q-177 0 -364 174q-118 122 -118 288q0 237 316 465q98 90 98 134q0 16 -47 42q-39 56 -39 152q0 132 142 170q28 6 56 6zM448 1249q0 -110 96 -157l5 -19v-9q0 -92 -171 -201q-180 -118 -224 -258
q-19 -60 -19 -132v-39q0 -198 190 -288q75 -28 163 -28q166 0 330 120q64 36 118 36q46 0 67 -47q33 -56 64 -56h3q25 0 25 17q-2 12 -50 114q-8 36 -8 54v25q0 45 56 182q0 12 2 17q-9 36 -36 36q-28 0 -59 -53q-21 -9 -33 -9q-81 0 -146 118q-79 182 -79 269q0 70 59 258
v8q0 101 -117 179q-31 14 -54 14h-11q-126 0 -165 -115q-6 -29 -6 -36zM591 1341q60 0 109 -114q6 -13 6 -28q0 -33 -67 -42q-68 0 -98 58q-6 11 -6 31v9q9 86 56 86zM614 1199v-3q0 -31 22 -31q34 7 34 34v14q0 17 -20 30h-6q-30 -7 -30 -44zM860 1204v-3q27 -21 42 -39v9
q0 24 -39 33h-3zM832 1126v-6q5 -11 20 -11h8q4 0 11 11v6q0 7 -22 11q-11 0 -17 -11zM636 921q7 0 20 -19q46 -17 72 -62q127 -313 141 -356q8 -32 11 -61q0 -123 -191 -221q-95 -40 -165 -40h-17q-147 0 -243 171q-31 77 -31 149q0 209 249 392q52 36 115 36h31q1 11 8 11
zM628 902q6 -17 11 -17h14v11q0 6 -25 6zM577 865v-5q0 -5 14 -9q17 6 17 12v11q-6 11 -17 11q-14 -4 -14 -20zM493 815v-11q0 -9 25 -14h3q6 0 6 5v6q-6 11 -17 17h-3zM824 801v-3q0 -15 11 -19h8q12 4 12 19v3q0 4 -9 8h-14q-4 0 -8 -8zM325 412v-6q0 -158 118 -202
q33 -11 59 -11h28q138 0 266 123q45 61 45 107q-10 118 -101 291q-52 56 -124 56q-132 0 -263 -241q-28 -58 -28 -117zM1171 512v-2q2 -9 22 -9q15 0 20 11q0 8 -25 12q-17 -6 -17 -12zM1163 470v-16q14 -20 25 -20q17 4 17 20q-9 19 -28 19zM1171 168v-3q0 -10 34 -19h5v2
q0 11 -33 20h-6z" />
    <glyph glyph-name="quotesingle" unicode="'" horiz-adv-x="601" 
d="M471 1451l-2 -7q-25 -72 -137 -180q-34 -35 -45 -68q-19 -53 29 -160l-1 -12l-1 -2q-4 -11 -65 6l-10 4q-130 45 -124 198q4 32 11 51l3 8q9 25 97 135q66 108 90 176q42 40 98 21l8 -3q61 -21 61 -107q-1 -30 -12 -60zM449 1504l-4 1q-29 8 -128 -74q-117 -62 -140 -125
q-24 -71 48 -136l4 -1q10 -4 67 109q139 164 144 179q6 10 11 25l1 4q4 11 -3 18zM245 1082q-15 0 -19 -12l3 -4l13 -4q7 2 10 1l3 9q0 7 -10 10zM214 1119q-12 5 -17 -10l-2 -5q-1 -3 8 -12q20 -4 25 11q-1 11 -14 16zM375 1577l-2 1q-17 -1 -25 -10l-2 -7q22 -3 28 14z
M193 1153l-9 3q-11 4 -20 -5l-2 -6q0 -10 11 -14q12 -4 18 3l5 13q1 5 -3 6zM169 1187l-10 6q-20 3 -22 -4l-3 -6q1 -10 12 -14l7 -2q9 0 13 12z" />
    <glyph glyph-name="parenleft" unicode="(" horiz-adv-x="660" 
d="M305 1431q55 0 153 -113q33 -59 33 -104q0 -69 -55 -83q-65 0 -147 -134q-33 -65 -33 -153q0 -229 260 -532q76 -114 76 -174q0 -70 -116 -135l-22 -3h-9q-49 0 -159 116q-66 68 -143 294q-83 253 -83 477q0 369 232 541q6 3 13 3zM103 853q0 -338 150 -624
q65 -82 116 -82q33 7 33 18v15q0 29 -125 221q-98 195 -98 388v37q0 246 159 440q34 57 34 79q0 16 -31 19q-97 0 -177 -153q-61 -159 -61 -358zM415 1217q0 -21 18 -21q8 1 15 15q0 18 -21 18q-5 0 -12 -12z" />
    <glyph glyph-name="parenright" unicode=")" horiz-adv-x="534" 
d="M211 1433q37 -33 189 -374q80 -199 80 -360q0 -304 -146 -596q-49 -70 -103 -86v6q0 3 3 3q-4 17 -17 23q-11 -5 -11 -9v-3q0 -11 14 -26v-2q-35 -9 -49 -9h-17q-80 0 -94 106q0 82 126 251q85 150 85 340v42q0 194 -94 423q-26 81 -26 131v9q0 41 55 128zM171 1236
q0 -21 69 -157q63 -169 63 -325v-63q0 -245 -155 -448q-31 -51 -31 -66v-14q0 -22 29 -26h5q72 0 137 148q80 240 80 471v20q0 268 -94 451q-37 40 -66 40h-11q-26 0 -26 -31zM286 168v-8q0 -5 11 -12q17 0 17 18v11q0 6 -6 6h-8q-4 0 -14 -15zM266 123l-3 -15q0 -17 20 -17
q14 2 14 9v8q0 4 -14 15h-17zM237 74v-8q0 -16 11 -20h6q4 0 9 8v12q0 14 -9 17h-8q-5 0 -9 -9z" />
    <glyph glyph-name="asterisk" unicode="*" horiz-adv-x="1024" 
d="M512 1646q45 -39 59 -77q16 -42 35 -188q33 -78 115 -78h5q13 0 98 23h7q21 -1 53 -17q7 0 7 -3l-4 -5q12 -12 12 -27v-10q0 -44 -118 -130q-39 -51 -39 -103v-15q0 -43 49 -124q13 -24 13 -46q0 -17 -12 -27q0 13 -21 18q-4 -1 -5 -1v-5q12 -15 21 -15v-4q-15 -5 -20 -5
h-3q-49 0 -187 115q-35 19 -66 19h-16q-59 0 -105 -75q-73 -97 -126 -97h-7q-29 0 -33 65q0 42 40 128q3 13 3 24v11q0 67 -95 134q-75 62 -75 103q0 52 88 52h4q26 -2 53 -2h15q86 0 153 90q34 60 80 220q17 52 22 52zM529 1584q0 -12 20 -18l2 3q-9 15 -20 15h-2z
M549 1539q0 -13 18 -16q2 3 2 5q0 7 -18 11h-2zM324 1253q-121 13 -139 13q-35 -4 -35 -24v-10q0 -29 102 -75q57 -44 57 -100v-16q0 -26 -32 -90q-8 -18 -8 -34q0 -7 8 -10q18 1 80 75q41 39 90 39q58 0 120 -65q69 -60 87 -60q12 2 12 11v4q0 20 -39 96q-8 21 -8 39v10
q0 71 80 120q62 49 93 85q7 8 7 20q0 8 -22 10q-9 0 -111 -25h-9q-69 0 -106 83q-35 167 -54 167h-7q-9 0 -41 -107q-52 -148 -80 -148q-19 -7 -45 -8zM542 1486q3 -8 12 -8h5q10 0 10 10q-7 6 -15 8q-8 0 -12 -10zM867 1289v-1q2 -13 7 -14h3q4 0 4 4q-4 5 -4 10q0 4 9 13
q0 2 -5 5h-5q-9 -4 -9 -17zM856 1266q0 -11 8 -18h3q0 1 2 5q-5 16 -10 16q-3 0 -3 -3zM836 1248q4 -17 10 -17h1v8q0 9 -6 14h-2q-3 0 -3 -5zM811 1227v-8q0 -2 10 -8h6q3 0 5 5v1q0 13 -8 17h-2q-9 0 -11 -7zM786 1209v-3q0 -12 11 -12h2q2 0 5 5v7q0 2 -7 6h-8
q-3 0 -3 -3zM764 1191q0 -7 8 -12h4q3 0 3 3v5q0 10 -7 14h-3q-5 -2 -5 -10zM751 1179q-2 -3 -2 -5q5 -17 10 -17h3q4 0 4 4v6q-7 12 -15 12zM694 1134v-7q7 -10 17 -10q3 0 3 5q-5 12 -17 12h-3zM669 1111v-4q3 -6 12 -6h3l8 1v7q0 5 -16 7q-7 -3 -7 -5zM646 1044v-3
q1 -5 13 -5q14 0 20 10v3q0 3 -3 3q-10 0 -30 -8zM677 1021v-5q19 0 30 -15h2v5q-7 15 -23 15h-9zM672 999q-1 -3 -1 -5q6 -13 25 -13q10 3 11 10zM412 976v-4q5 -10 12 -10l3 5v5q0 11 -8 14q-7 -2 -7 -10zM397 971v-2q0 -13 10 -20h3v2q-5 20 -13 20zM686 969v-2
q12 -13 26 -13h5v2q-9 13 -31 13zM370 947q3 -15 15 -15h4q2 0 5 5q-5 15 -17 15q-7 -2 -7 -5zM701 942v-3q0 -2 28 -15v-2q0 -3 -7 -3q8 -10 17 -10q3 5 3 10q-7 23 -30 23h-11zM357 926v-2q0 -9 13 -18h7v8q0 7 -17 12h-3zM327 891v-5q13 -12 13 -14v-6q0 -3 -5 -5h-1
q-7 0 -19 11q-3 0 -3 -5q0 -13 27 -21q19 0 21 15v1q-18 29 -31 29h-2zM295 854q7 -22 20 -22v4q0 13 -20 20v-2zM279 839l-2 -3q8 -15 20 -15h2v1q-10 17 -20 17zM265 817v-3q8 -12 22 -12v4q-9 11 -18 11h-4z" />
    <glyph glyph-name="plus" unicode="+" horiz-adv-x="1091" 
d="M523 1189h6q100 0 134 -119l6 -43q0 -14 -15 -78v-13q0 -54 106 -69q113 22 153 22q87 0 112 -47q19 -47 19 -93v-10q0 -147 -125 -196l-31 -7q-21 3 -34 3q-70 0 -100 -81v-22q0 -12 22 -87v-3q0 -111 -200 -172h-19q-101 0 -150 144q0 187 -69 187h-3q-58 -16 -112 -19
q-102 0 -141 82q-31 66 -31 109v9q21 100 150 100q148 0 190 113v18q0 35 -50 135v6q72 131 182 131zM413 998q7 -65 7 -90q0 -88 -104 -137q-27 -9 -124 -16q-104 -34 -104 -84v-7q0 -48 100 -62h4q31 0 131 25q83 0 122 -109q0 -165 56 -216q16 -9 31 -9h6q63 0 72 109
q0 30 -31 134v7q21 121 122 121h56q95 0 143 75q10 16 10 25v16q0 43 -100 50h-3q-21 0 -119 -16h-6q-117 0 -153 131v82q-11 118 -60 118q-41 0 -56 -147zM598 1123v-3q0 -24 34 -31l3 6v3q-18 25 -37 25zM598 1067l-4 -6v-6q11 -19 16 -19h13l3 16v3q0 8 -28 12zM966 780
v-9q6 -13 19 -19h3q17 0 22 12v7q-10 18 -35 18q-4 0 -9 -9zM960 727v-10q3 -9 19 -9h12q0 3 3 9q-4 16 -22 16h-6q-6 -1 -6 -6zM935 614q6 -15 22 -15q18 5 18 22v3q-5 12 -21 12q-19 0 -19 -22zM679 399v-10q1 -6 6 -6h22q6 0 6 6v7q0 5 -12 12h-13q-4 0 -9 -9zM707 302
v-9q0 -10 25 -13q6 3 9 3v13q-8 15 -25 15q-4 0 -9 -9z" />
    <glyph glyph-name="comma" unicode="," horiz-adv-x="708" 
d="M328 244h20q118 0 170 -85q13 -38 13 -78v-33q0 -172 -190 -321q-42 -26 -75 -29q-23 4 -23 13v16q26 126 26 161q0 55 -98 167q-16 27 -16 42q0 45 72 111q49 36 101 36zM194 110q14 -52 92 -52q55 -34 55 -102q0 -6 -13 -49v-6q47 0 79 154v16q-15 131 -82 131
q-131 -26 -131 -92zM476 146q0 -6 -4 -6q9 -33 20 -33h10q10 0 10 13q-13 26 -33 26h-3zM469 71v-16q8 -20 26 -20v6q-5 36 -16 36h-3q-7 -1 -7 -6zM426 -53q7 -15 14 -17h16q5 0 10 10v3q-9 17 -26 17q-14 -4 -14 -13z" />
    <glyph glyph-name="hyphen" unicode="-" horiz-adv-x="670" 
 />
    <glyph glyph-name="hyphen" unicode="&#xad;" horiz-adv-x="670" 
 />
    <glyph glyph-name="period" unicode="." horiz-adv-x="788" 
d="M489 283q83 0 98 -128v-55q0 -137 -130 -187q-15 -6 -50 -9q-94 0 -130 108q-13 24 -20 117q0 104 147 141q36 10 85 13zM286 126q14 -78 79 -78q101 21 101 91v16q-8 79 -62 79q-118 -39 -118 -108z" />
    <glyph glyph-name="slash" unicode="/" horiz-adv-x="947" 
d="M812 1424l2 -1q57 -24 74 -128q-2 -42 -9 -57q-9 -22 -107 -126q-95 -154 -149 -282q-1 -2 -3 -1q-1 -3 1 -4l-8 -12q-123 -294 -234 -674l-3 -6q-50 -120 -140 -132q-40 4 -70 17q-94 39 -80 119q11 71 42 143q351 714 449 947q3 15 10 33q31 72 108 140l5 -2
q-38 -47 -74 -133l-50 -119q-62 -148 -380 -791l-18 -41q-42 -122 2 -141l5 -2q64 -7 117 118q113 341 182 506l38 90q85 205 191 355q7 9 15 28l3 7q40 121 -3 139l2 5q44 21 82 5zM717 1415l5 -2q-2 -5 -8 -3zM810 1303l-4 -7q13 -29 8 -40q-2 -4 -11 -5l-8 4
q-9 18 -10 19l-2 -5q-7 -28 12 -36l3 -1q21 -9 38 18l2 5q14 33 -15 52l-2 1q-4 1 -11 -5zM752 1218q-3 -7 11 -26l10 -4l2 5q9 21 -12 29l-2 1q-5 3 -9 -5zM734 1189l-5 -13q-2 -4 9 -22l8 -3l2 5q6 14 -5 32q-6 0 -9 1zM696 1135q-7 -17 15 -31l5 -2q8 -3 12 7
q0 22 -18 29zM682 1101l-5 -4l-2 -5q-20 -49 8 -61q4 -2 15 6l3 7q7 17 -19 57zM623 989q-6 -13 -11 -11q-7 -33 13 -42l5 -2l14 -3l4 8q-15 46 -17 47zM593 925q-6 -6 -8 -5q-2 -23 5 -30l3 -1q13 -6 19 1l1 3q9 20 -20 32zM539 805l-4 -11q-1 -3 8 -18l2 -1q16 -7 21 6
q-6 15 -16 19zM506 755l-4 -11q-2 -4 6 -14l8 -4q14 -6 23 6q7 15 -13 27q-10 4 -20 -4zM481 674q-7 -17 15 -31q14 -3 16 3l5 10q1 4 -8 18l-15 7q-4 2 -13 -7zM465 626l-5 -10q1 -16 15 -22q9 -1 15 6q3 8 -17 25q-6 0 -8 1zM433 566l-1 -2q5 -21 14 -25q11 -1 20 4
q0 18 -17 26q-13 3 -16 -3zM401 446l-3 -8q1 -16 15 -22l5 4l1 3q6 14 -2 25l-5 2q-4 2 -11 -4zM375 377q-1 -17 15 -24l7 -3q5 -2 8 3l2 5q6 14 -4 26l-6 2q-15 7 -22 -9zM357 312l-1 -3q1 -15 15 -21l5 -2q6 -3 8 3l2 5q3 7 -16 19l-6 2q-5 1 -7 -3z" />
    <glyph glyph-name="zero" unicode="0" horiz-adv-x="832" 
d="M381 1434h12q187 0 301 -340q48 -172 48 -339q0 -308 -118 -590q-85 -165 -196 -165q-93 0 -241 151q-79 90 -108 266q-19 118 -19 227v61q0 277 90 543q81 186 231 186zM88 684v-47q5 -384 149 -495q53 -31 104 -31h2q171 0 257 323q26 124 26 281q0 486 -146 641
q-63 38 -125 38q-193 0 -248 -453q-19 -124 -19 -257zM350 1335q45 0 118 -78q68 -104 68 -365v-22q0 -368 -89 -587q-54 -111 -118 -111q-144 0 -172 385q-3 32 -3 82v12q0 269 90 554q60 130 106 130zM293 1236l-4 -10q3 -16 16 -16q4 0 7 7v7q-6 12 -19 12zM239 521v-16
q0 -157 36 -208q26 -28 61 -28h2q81 0 111 141q71 232 71 491v9q0 223 -61 276q-35 36 -64 36q-91 0 -118 -335q-38 -210 -38 -366zM275 1198l-7 -9q0 -13 9 -17h9q5 0 5 5v5q0 16 -16 16zM647 1076v-12q8 -14 17 -19h2v7q-4 24 -19 24zM654 948v-2q21 -36 40 -36h3v3
q0 13 -38 33q0 2 -2 2h-3zM661 828v-5q0 -6 24 -9q3 0 7 7v4q-15 5 -23 5q-5 -2 -8 -2zM199 800v-10q5 -9 12 -9q11 4 12 9v7q-5 10 -14 10q-10 -4 -10 -7zM671 795v-7q8 -17 23 -17l5 7q-7 17 -23 17h-5zM669 656q0 -19 21 -24q7 2 7 14q0 6 -21 12q-5 -2 -7 -2zM194 604
q2 -12 8 -12h7q3 0 9 9q0 17 -16 17q-8 -2 -8 -14zM657 597q8 -7 16 -7q12 0 14 7v7q0 6 -16 9q-14 -3 -14 -16zM624 368v-2q0 -4 9 -10h10q3 0 11 12q-1 9 -19 9q-10 -4 -11 -9zM614 335q5 -21 12 -21h2q4 0 7 7v9q0 4 -9 10h-7q-5 -1 -5 -5zM600 295v-5q0 -12 12 -16h5
q4 0 4 4v3q0 12 -11 19h-5q-5 -1 -5 -5z" />
    <glyph glyph-name="one" unicode="1" horiz-adv-x="560" 
d="M299 1430h14q53 0 118 -78q28 -40 28 -92q0 -82 -59 -369q-45 -229 -45 -418v-29q0 -75 81 -189q47 -75 47 -118q0 -80 -113 -128q-24 -9 -48 -9h-16q-111 0 -201 73q-45 50 -45 121q0 84 54 101q25 28 48 97q30 134 66 497q7 75 7 82q0 125 -97 204q-21 32 -21 73
q0 101 146 175q22 7 36 7zM136 1222q0 -19 19 -19h2q30 0 52 43l5 2h9q45 -40 45 -130q0 -265 -90 -766q-27 -99 -64 -99q-28 -18 -28 -47v-15q0 -43 137 -56q25 -3 28 -3q133 8 133 48v2q0 54 -71 54q-28 0 -28 185v49q0 169 70 743q3 22 3 49q0 72 -66 121q-17 9 -29 9
h-14q-53 0 -104 -113q-9 -27 -9 -57zM412 1340v-9q0 -10 10 -29h7v10q0 18 -12 28h-5zM400 1279l-2 -10q0 -24 21 -28l3 5v7q0 14 -17 26h-5zM389 1172v-4q0 -17 11 -17q10 2 10 14q-3 12 -17 12q-4 -1 -4 -5zM424 189v-7q8 -31 24 -31l2 5v5q0 14 -19 28h-7z" />
    <glyph glyph-name="two" unicode="2" 
d="M427 1430h14q139 0 206 -157q22 -78 22 -155v-10q0 -251 -223 -704q-24 -49 -24 -80v-7q0 -62 70 -85q17 -2 29 -2q61 5 206 24q91 0 145 -56q19 -23 19 -50v-8q0 -86 -152 -125l-39 -5q-109 7 -181 7q-49 0 -245 -17h-24q-79 0 -135 116q-15 33 -15 61v4q0 121 131 305
q213 334 246 637q-7 26 -16 26h-10q-17 0 -17 -14q10 -25 10 -29q-19 -70 -95 -70q-95 0 -138 162q-2 24 -2 36q0 95 116 169q54 27 102 27zM240 1251v-5q12 -94 61 -94h10q31 0 31 97q18 50 75 50q62 0 80 -104q2 -23 2 -43v-32q0 -176 -143 -457q-34 -82 -162 -271
q-55 -90 -63 -155v-2q0 -104 158 -129q21 3 26 3q66 0 322 -7q138 12 155 75v7q0 35 -87 41h-7q-20 0 -315 -44h-22q-87 8 -87 80q0 40 78 170q251 510 251 779q0 131 -77 176q-42 20 -82 20h-5q-115 0 -189 -107q-10 -28 -10 -48zM415 469v-9q0 -4 9 -10q17 0 17 17v7
l-12 3h-7q-4 0 -7 -8zM383 409v-5q0 -19 19 -19l3 5v9q0 13 -10 17h-5q-3 0 -7 -7zM327 290l10 -7h12q4 0 7 7v5q-3 10 -16 10t-13 -15z" />
    <glyph glyph-name="three" unicode="3" horiz-adv-x="844" 
d="M482 1422q153 0 263 -96q20 -28 20 -56q0 -91 -152 -234q-69 -80 -69 -115v-12q0 -61 108 -145q118 -140 118 -310v-39q0 -160 -113 -292q-66 -78 -226 -116q-34 -5 -74 -7q-152 0 -211 138q-67 122 -71 206q0 51 39 64l15 2q60 0 135 -135q51 -61 113 -61h15
q120 0 162 204q2 36 2 49q0 103 -245 216q-106 84 -106 159q0 100 152 226q52 60 52 99q-4 29 -27 29q-104 -34 -133 -34q-67 0 -177 81q-12 13 -12 24q0 27 84 94q81 54 252 54q0 3 86 7zM141 1319v-8q16 -27 76 -27h3q18 0 191 25h20q53 0 69 -64v-15q0 -70 -202 -248
q-73 -78 -73 -113q0 -55 110 -93q76 -12 128 -42q115 -95 115 -272q-10 -207 -125 -258q-25 -15 -59 -15h-2q-118 0 -185 125q-57 69 -83 69h-3q-22 -3 -22 -22v-15q0 -83 128 -199q56 -41 128 -41h2q208 0 297 250q25 75 25 162q0 219 -170 288q-73 51 -73 110v10
q0 47 110 196q86 129 86 199v13q0 42 -127 63h-23q-341 -18 -341 -78zM667 1201q0 -22 19 -25q4 0 8 8v7q-5 10 -15 15h-7q-5 -1 -5 -5zM645 1179l-3 -5v-3q3 -18 10 -19h10l2 12v3q-6 12 -19 12zM615 1144v-4q0 -13 12 -18q13 0 15 8v10q-6 12 -20 12q-3 0 -7 -8zM590 1125
v-3q0 -16 23 -34h2v7q-8 30 -20 30h-5zM566 1076v-3q0 -13 17 -22q10 3 10 15q-5 17 -10 17h-10q-3 0 -7 -7zM509 1017q14 -17 27 -17h10l3 12q-3 20 -20 20q-10 0 -20 -15z" />
    <glyph glyph-name="four" unicode="4" horiz-adv-x="968" 
d="M507 1430h15q47 0 98 -77q13 -28 13 -49v-3q0 -76 -142 -281q-175 -315 -175 -395v-8q0 -52 31 -52h5q52 0 72 57v18q0 14 -5 54q0 57 57 83q27 5 43 5q105 0 153 -77q20 -18 20 -34q-7 -17 -7 -23v-5q0 -14 10 -18h5l31 10q46 0 145 -88q13 -19 13 -28q0 -19 -73 -129
q-47 -52 -103 -52q-72 -42 -72 -121v-3q0 -39 5 -62q0 -97 -83 -147q-16 -5 -23 -5h-15q-85 0 -129 108q-24 112 -65 163q-35 40 -134 70q-137 91 -137 201q0 96 181 441q142 341 165 377q60 70 101 70zM94 568q0 -86 126 -137q15 -8 103 -13q106 -36 106 -129q0 -11 -5 -52
q0 -78 57 -108h18q57 22 57 114v2q0 24 -6 65q0 82 68 116q87 0 118 90v16q0 44 -49 44q-8 0 -59 -16q-44 0 -65 62q-2 3 -2 18v5q0 17 2 34q0 52 -54 70h-10q-44 -12 -44 -70v-18q5 -38 5 -42q0 -73 -160 -92q-59 0 -85 72q-5 11 -5 33v13q0 68 165 387q152 265 152 300
q5 14 5 36q-3 39 -28 39q-43 0 -114 -137q-130 -342 -234 -521q-62 -125 -62 -181zM548 1252q5 -28 26 -28h2q4 0 8 7q-5 26 -26 26h-5q-5 -1 -5 -5zM527 1208v-10q7 -13 21 -13q10 2 10 15q-5 16 -20 16q-11 -4 -11 -8zM478 1141v-10q0 -24 21 -24q20 7 20 16
q-24 23 -36 23q-5 -1 -5 -5zM450 1084v-10q1 -6 13 -11q20 4 20 19q-3 12 -18 12q-10 0 -15 -10zM396 981q2 -5 2 -8h10q19 0 19 18q-3 11 -16 11q-10 0 -15 -21zM785 570q0 -19 29 -25h2q0 15 -20 25h-11z" />
    <glyph glyph-name="five" unicode="5" horiz-adv-x="956" 
d="M316 1434q90 -8 177 -8h22q69 0 179 8q180 -19 180 -111q0 -93 -185 -118q-24 -3 -42 -3q-87 5 -96 5q-101 0 -188 -82q-31 -35 -31 -72v-9q0 -121 244 -210q211 -105 257 -226q24 -73 24 -136v-30q0 -198 -154 -362q-101 -80 -221 -80q-135 0 -335 91q-77 57 -77 102v11
q0 60 113 83h9q38 0 187 -63q27 -22 39 -22h19q118 0 147 165v56q0 110 -169 199q-40 16 -185 49q-82 44 -119 144q-19 52 -19 100q37 417 55 417q59 102 169 102zM128 937v-11q0 -119 202 -147q168 -59 237 -188q56 -105 56 -201q0 -168 -155 -230q-35 -8 -53 -8h-19
q-46 0 -146 55q-62 28 -100 28q-43 0 -50 -36q0 -64 116 -108q32 -11 83 -11h22q193 0 338 171q82 113 82 227v33q0 191 -207 296q-115 74 -202 74h-8q-51 0 -77 -19h-8q-20 8 -25 105q22 260 44 260q65 110 179 110q188 -16 210 -16h23q90 0 118 33v5q0 31 -96 36
q-127 -2 -194 -2q-87 0 -149 5q-113 0 -182 -116q-14 0 -36 -298q-3 -7 -3 -47zM297 1265l-6 -8q12 -27 30 -27q6 2 9 2v3q0 23 -33 30zM286 1213v-6q0 -15 19 -27h8v3q-6 30 -27 30zM772 519v-2q0 -5 11 -11h5q20 0 20 16l-11 8h-6q-15 0 -19 -11zM752 337v-11
q10 -19 28 -19l3 5q-4 25 -25 25h-6zM730 282q8 -14 22 -14q13 5 14 11v3q-2 8 -16 8h-11q-4 0 -9 -8zM697 218v-14q0 -4 11 -11h11q4 0 9 9v5q0 5 -11 11h-20zM645 182v-5q30 -33 55 -33q3 5 3 8q0 31 -42 39q-16 -3 -16 -9zM642 146l-3 -5q0 -19 20 -19h5q6 0 6 5
q-9 19 -28 19zM603 119v-11q12 -22 31 -22l2 5v8q0 16 -16 25h-11q-6 -1 -6 -5z" />
    <glyph glyph-name="six" unicode="6" horiz-adv-x="908" 
d="M527 1430q178 -12 216 -108q6 -26 6 -41v-8q-13 -111 -55 -111q-146 -14 -202 -24q-106 -32 -171 -146q-43 -94 -43 -143v-8q0 -111 230 -135q158 -38 251 -138q87 -101 87 -206v-2q0 -142 -114 -276q-76 -84 -202 -84q-175 0 -341 135q-119 100 -119 406v40
q0 375 143 679q55 86 119 119q99 51 195 51zM102 595q6 -366 182 -471q65 -35 135 -35q222 0 300 241q8 60 8 81q0 175 -165 254q-58 19 -114 19h-21q-58 0 -143 -49q-19 -5 -33 -5h-8q-54 0 -62 86v6q0 272 143 443q52 62 227 122q62 21 62 48v6q0 46 -105 59
q-100 0 -214 -86q-54 -52 -105 -203q-87 -254 -87 -516zM667 1316q0 -17 22 -35h5v3q0 16 -21 32h-6zM648 1287q-2 -6 -2 -8q10 -25 24 -25v8q0 22 -22 25zM435 589q127 0 195 -94q21 -40 21 -79q0 -130 -181 -197q-38 -5 -54 -5h-19q-97 0 -154 100q-14 21 -19 67
q0 81 103 168q55 40 108 40zM332 411v-16q0 -76 111 -133q33 -8 43 -8q70 0 125 106q8 41 8 45q-12 119 -119 119h-3q-104 0 -159 -91q-6 -10 -6 -22z" />
    <glyph glyph-name="seven" unicode="7" horiz-adv-x="1064" 
d="M859 1434h13q39 0 116 -86l6 -22q0 -40 -171 -200q-144 -168 -205 -386q-59 -191 -116 -559q-70 -181 -170 -181q-74 0 -122 97q-13 38 -13 73v3q0 118 302 751q60 106 60 156v14q-7 67 -60 67q-132 -5 -132 -16l3 -5q-39 -60 -116 -60h-6q-120 0 -175 173q0 3 -3 27
q0 53 70 76q23 8 54 8q160 -8 224 -8h46q150 0 343 70q33 8 52 8zM883 1396v-3q14 -21 32 -21h8v3q-15 21 -32 21h-8zM337 1323h-86q-121 0 -151 -54v-8q0 -48 48 -62q38 13 38 27v11q0 9 -8 19v5q0 8 43 11l189 -8l124 5q109 -16 109 -97q0 -48 -136 -292
q-270 -556 -270 -669v-8q0 -66 41 -76h11q59 0 116 224q75 370 162 578q26 81 157 240q64 91 64 119v14q-8 51 -70 51h-16l-178 -24q-85 -6 -187 -6zM888 1350v-5q20 -19 43 -19v5q0 10 -32 19h-11zM834 1242v-11q0 -8 27 -10l6 8q-2 9 -17 16h-2zM767 1169v-8q0 -4 8 -8h8
q16 10 16 19q-3 11 -16 11q-11 -4 -16 -14zM594 864q14 -11 30 -11h5v14q0 4 -13 13h-14q-8 -2 -8 -16zM497 562v-11q0 -7 21 -11q15 0 22 14v2q0 8 -30 17h-3q-4 0 -10 -11zM467 432v-3q0 -17 19 -27h8q-6 30 -27 30zM456 392q-3 -6 -3 -9q11 -21 27 -21v13q-9 17 -24 17z
M437 335v-3q0 -6 22 -13q19 2 19 8v5q-5 11 -19 11h-14q-4 0 -8 -8zM426 257v-6q7 -13 27 -13h3q6 0 6 5q0 8 -25 14h-11zM416 192q12 -8 21 -8q22 3 22 10v6q-3 11 -27 11q-16 -5 -16 -19zM424 157v-6q4 -11 19 -11q13 2 13 9v2q-4 11 -19 11h-8q-5 -1 -5 -5zM405 105v-8
q4 -11 19 -11h11q13 7 13 17q0 9 -22 16q-13 0 -21 -14z" />
    <glyph glyph-name="eight" unicode="8" horiz-adv-x="804" 
d="M435 1430h22q137 0 242 -197q33 -56 33 -113q0 -68 -45 -164q-17 -62 -17 -131v-2q0 -57 29 -207q4 -41 4 -79v-49q0 -233 -122 -397q-85 -91 -188 -91h-18q-154 0 -251 164q-64 123 -64 264v29q0 191 113 352q29 52 29 107v17q0 33 -24 127q-5 25 -5 49q0 169 151 283
q63 38 111 38zM202 1097q0 -38 26 -157v-24q0 -76 -62 -162q-82 -159 -82 -319v-38q0 -194 122 -286q63 -38 124 -38q166 0 244 273q27 104 27 215v13q0 125 -44 255q-7 26 -7 53h2q10 -8 18 -8h7q4 0 4 4v2q0 7 -24 11q-5 -2 -7 -2v9q0 66 53 177q20 78 20 131
q0 167 -151 200q-14 2 -28 2h-18q-109 0 -191 -155q-33 -85 -33 -156zM435 1306q95 0 108 -113v-22q0 -115 -99 -200q-32 -15 -51 -15h-12q-82 0 -117 144q-4 27 -4 48q0 109 106 147q35 11 69 11zM335 1089q0 -38 46 -56q17 -4 32 -4h2q62 0 84 51q4 8 4 24v11
q0 69 -59 109l-16 2q-47 0 -89 -106q-4 -22 -4 -31zM656 1144q5 -11 23 -11h4q3 0 7 7q-5 11 -23 11h-4q-3 0 -7 -7zM663 1113l-2 -4q0 -18 18 -18h4v9q-8 13 -20 13zM623 1007q0 -18 27 -23h17q4 0 7 7v2q0 9 -40 27q-11 0 -11 -13zM588 949v-9q9 -13 26 -13q10 4 11 9v4
q-5 11 -17 11h-9zM565 929v-4q0 -15 23 -25q9 2 9 9q-9 20 -25 20h-7zM350 838q87 0 156 -84q31 -60 31 -162q0 -245 -189 -448q-36 -29 -55 -29h-18q-59 0 -113 111q-35 79 -35 153v16q0 5 -3 9q3 3 3 8v14q0 171 95 330q61 82 128 82zM237 379v-40q0 -100 38 -115
q14 -9 40 -11q97 0 177 250q16 68 16 125v2q0 98 -78 159q-15 9 -26 9h-20q-91 0 -120 -151q-27 -120 -27 -228zM636 658q8 -4 14 -4h9q3 0 8 9v2q-3 9 -15 9q-16 0 -16 -16zM189 572v-4q5 -12 17 -12h7q3 0 7 7v7q0 6 -23 9q-8 -4 -8 -7zM191 530q3 -16 9 -16h9q3 0 6 11
q-4 14 -18 14q-3 0 -6 -9zM641 521v-4q20 -9 20 -14v-4q-6 -11 -18 -11h-9v-2q2 -18 20 -18q18 3 18 20q0 23 -31 33zM173 490q5 -13 18 -13h4q14 0 14 13q-9 9 -25 9q-10 -4 -11 -9zM603 286v-11q0 -5 13 -7q14 5 14 14l-9 6h-7zM570 211v-3q2 -6 13 -6h5q14 0 20 13l-7 4
h-13q-17 -2 -18 -8zM559 184q0 -12 13 -20h5q6 2 6 13q-3 11 -15 11h-5q-4 0 -4 -4zM537 153q9 -22 22 -22q0 2 2 2q-5 18 -20 24q-4 0 -4 -4zM488 106v-2q0 -6 20 -11h9q0 18 -25 18q-4 -1 -4 -5z" />
    <glyph glyph-name="nine" unicode="9" horiz-adv-x="908" 
d="M375 1434q163 0 322 -152q60 -79 99 -218q36 -144 36 -256q0 -342 -123 -622q-98 -186 -232 -186h-15q-143 0 -351 227q-31 53 -31 90q9 65 80 65h12q73 0 118 -72q61 -61 116 -61h10q107 0 140 239q10 73 10 117q0 68 -24 84h-3q-7 0 -50 -36q-39 -19 -102 -19
q-211 0 -263 309q-8 46 -8 102v12q0 246 155 355q51 22 104 22zM145 1035v-5q0 -206 119 -300q64 -58 121 -58h9q62 0 148 58q26 10 34 10q29 0 29 -60q0 -199 -70 -373q-68 -126 -179 -126q-93 0 -145 87q-56 49 -102 49q-15 0 -22 -12v-3q0 -44 148 -138q109 -99 191 -99
q132 0 196 203q29 72 50 187q37 197 37 365v5q-4 453 -237 558q-49 27 -97 27h-14q-126 0 -192 -201q-24 -76 -24 -174zM373 1335q132 0 179 -223q9 -39 9 -104q0 -213 -113 -283q-21 -9 -49 -9q-83 0 -150 171q-36 108 -36 213v5q0 230 160 230zM307 1011q0 -124 32 -177
q34 -29 67 -29h10q96 0 114 143q5 41 5 68v29q-7 144 -75 176q-4 3 -12 3h-13q-56 0 -113 -109q-15 -32 -15 -104zM257 1076v-10q0 -3 7 -7h2q15 0 15 15q-3 9 -15 9h-2q-4 0 -7 -7zM757 936l-2 -10q4 -11 14 -17h7q5 0 5 5q-3 22 -21 22h-3zM750 846v-7q1 -7 19 -7h10v7
q-10 12 -22 12h-2q-5 -1 -5 -5zM750 711v-7q6 -12 22 -12q6 0 12 12q-4 12 -17 12h-12q-5 -1 -5 -5zM745 607q0 -14 17 -22h12v10q0 13 -12 19h-10q-3 0 -7 -7zM680 351q0 -12 29 -12q19 0 19 16q-25 10 -34 10q-14 -6 -14 -14z" />
    <glyph glyph-name="colon" unicode=":" horiz-adv-x="557" 
d="M371 1187q83 0 98 -128v-55q0 -137 -130 -187q-15 -6 -50 -9q-94 0 -130 108q-13 24 -20 117q0 104 147 141q36 10 85 13zM168 1030q14 -78 79 -78q101 21 101 91v16q-8 79 -62 79q-118 -39 -118 -108zM382 565q83 0 98 -128v-55q0 -137 -130 -187q-15 -6 -50 -9
q-94 0 -130 108q-13 24 -20 117q0 104 147 141q36 10 85 13zM179 408q14 -78 79 -78q101 21 101 91v16q-8 79 -62 79q-118 -39 -118 -108z" />
    <glyph glyph-name="semicolon" unicode=";" horiz-adv-x="557" 
d="M371 1187q83 0 98 -128v-55q0 -137 -131 -187q-14 -6 -49 -9q-94 0 -131 108q-13 24 -19 117q0 104 147 141q36 10 85 13zM168 1030q13 -78 79 -78q101 21 101 91v16q-9 79 -62 79q-118 -39 -118 -108zM256 670h20q118 0 170 -85q13 -38 13 -78v-33q0 -172 -190 -321
q-42 -26 -75 -29q-23 4 -23 13v16q26 126 26 161q0 55 -98 167q-16 27 -16 42q0 45 72 111q49 36 101 36zM122 536q14 -52 92 -52q55 -34 55 -102q0 -6 -13 -49v-6q47 0 79 154v16q-15 131 -82 131q-131 -26 -131 -92zM404 572q0 -6 -4 -6q9 -33 20 -33h10q10 0 10 13
q-13 26 -33 26h-3zM397 497v-16q8 -20 26 -20v6q-5 36 -16 36h-3q-7 -1 -7 -6zM354 373q7 -15 14 -17h16q5 0 10 10v3q-9 17 -26 17q-14 -4 -14 -13z" />
    <glyph glyph-name="semicolon" unicode="&#x37e;" horiz-adv-x="557" 
d="M371 1187q83 0 98 -128v-55q0 -137 -131 -187q-14 -6 -49 -9q-94 0 -131 108q-13 24 -19 117q0 104 147 141q36 10 85 13zM168 1030q13 -78 79 -78q101 21 101 91v16q-9 79 -62 79q-118 -39 -118 -108zM256 670h20q118 0 170 -85q13 -38 13 -78v-33q0 -172 -190 -321
q-42 -26 -75 -29q-23 4 -23 13v16q26 126 26 161q0 55 -98 167q-16 27 -16 42q0 45 72 111q49 36 101 36zM122 536q14 -52 92 -52q55 -34 55 -102q0 -6 -13 -49v-6q47 0 79 154v16q-15 131 -82 131q-131 -26 -131 -92zM404 572q0 -6 -4 -6q9 -33 20 -33h10q10 0 10 13
q-13 26 -33 26h-3zM397 497v-16q8 -20 26 -20v6q-5 36 -16 36h-3q-7 -1 -7 -6zM354 373q7 -15 14 -17h16q5 0 10 10v3q-9 17 -26 17q-14 -4 -14 -13z" />
    <glyph glyph-name="less" unicode="&#x3c;" 
d="M581 1296h16q67 0 108 -180q4 -1 4 -40v-4q0 -117 -136 -212q-52 -68 -52 -132v-8q0 -121 172 -168q176 -108 176 -248q0 -110 -136 -176q-37 -12 -68 -12h-28q-146 0 -224 172l-216 288q-36 60 -36 116q0 141 160 348q155 256 260 256zM265 804v-32q0 -211 268 -404
q76 -32 124 -32h8q92 8 92 60q0 67 -276 184q-128 75 -128 192q0 126 168 260q108 116 108 168v8q-5 36 -36 36h-8q-96 0 -288 -304q-32 -65 -32 -136z" />
    <glyph glyph-name="equal" unicode="=" 
 />
    <glyph glyph-name="greater" unicode="&#x3e;" 
d="M273 1235h8q141 0 312 -180q308 -274 308 -336q24 -32 24 -92q0 -48 -168 -160q-306 -308 -316 -308q-82 -68 -144 -68h-8q-84 0 -172 180q-20 44 -20 64v4q0 118 296 236q132 92 132 140q0 18 -80 60q-295 217 -304 340v20q0 82 132 100zM189 1151v-16q0 -97 272 -228
q128 -59 128 -176q0 -142 -244 -224q-196 -99 -196 -160v-8q0 -40 60 -40q112 0 328 160q228 146 228 240l4 24q0 126 -192 284q-170 180 -304 180q-64 0 -84 -36zM569 399v-4q0 -6 12 -12h16q6 0 12 12v12q0 6 -16 16q-24 0 -24 -24zM509 359q6 -20 28 -20h12q6 0 12 12v20
q0 6 -12 12h-20q-14 -7 -20 -24zM481 335l-12 -16v-16q0 -6 16 -16h12q8 2 16 20q0 24 -32 28zM385 255q10 -20 32 -20q28 9 28 36q0 16 -20 28h-16q-24 -13 -24 -44zM345 231v-8q8 -40 40 -40q20 0 20 24q-20 32 -44 32h-8q-8 -1 -8 -8zM253 167q23 -40 52 -40q0 31 -44 40
h-8z" />
    <glyph glyph-name="question" unicode="?" horiz-adv-x="748" 
d="M335 1428q153 0 278 -127q64 -83 64 -177q0 -134 -130 -333q-134 -203 -134 -335q5 -64 23 -175q0 -14 -18 -28v-3q0 -14 49 -108q5 -9 5 -19v-7q0 -58 -71 -102q-26 -14 -57 -14q-68 0 -144 87q-26 39 -26 59q7 92 43 92q9 0 9 7v3q0 14 -30 26q-19 28 -19 75
q0 177 205 484q83 130 83 232q0 146 -83 193q-15 5 -21 5h-14q-78 -9 -78 -78v-19q0 -14 16 -104v-19q-6 -73 -54 -73h-5q-86 0 -137 142q-7 33 -9 66q0 94 92 193q75 57 163 57zM108 1194v-7q0 -77 50 -104h9q11 0 22 118q17 73 59 102q33 24 77 24q124 0 168 -192
q2 -25 2 -45v-16q0 -138 -134 -330q-154 -221 -154 -319v-12q0 -55 36 -80h16q27 0 59 193q25 93 128 260q130 211 130 342q0 176 -187 260q-22 7 -49 9q-152 0 -225 -158q-7 -30 -7 -45zM573 1275v-3q0 -4 14 -9q19 3 19 12q-2 9 -14 9h-2q-13 0 -17 -9zM595 1201v-2
q3 -9 16 -9q10 0 14 9v7l-12 2h-11q-4 0 -7 -7zM611 1128v-2q0 -17 14 -17q11 5 12 10v7q0 6 -19 9q-3 0 -7 -7zM200 158v-5q0 -34 64 -56q3 -3 17 -3h7q66 9 66 57v5q-11 59 -78 59h-2q-54 0 -74 -57z" />
    <glyph glyph-name="at" unicode="@" horiz-adv-x="2156" 
d="M1080 1431q454 0 679 -169q345 -229 345 -484q0 -297 -318 -463q-149 -96 -358 -265q-78 -50 -129 -50q-87 0 -126 93q0 7 -3 13q0 9 26 56v4q0 46 -142 56q-267 -23 -331 -23q-426 0 -633 411q-30 83 -30 149q0 512 719 649q151 23 301 23zM1034 1395q-293 0 -606 -149
q-328 -187 -328 -487q0 -235 202 -322q165 -79 454 -79q157 0 440 36h27q92 0 106 -76l-23 -79v-17q1 -7 6 -7h10q26 0 133 113q62 39 311 162q199 144 199 401q0 351 -550 477q-144 30 -345 30h-10l-16 -3v3q-7 -3 -10 -3zM1544 325q0 -27 36 -33l4 6v3q-5 30 -30 30h-3
q-7 -1 -7 -6zM1498 268q0 -19 33 -29q20 7 20 23q0 15 -30 30q-23 0 -23 -24zM1471 245q-3 -6 -3 -10q12 -26 33 -26v6q-4 30 -30 30zM1398 179q0 -2 -3 -13q10 -24 30 -24q6 0 6 7v3q0 18 -16 27h-17zM1362 146l-3 -7v-3q0 -19 23 -33h10v3q0 24 -30 40zM1299 86v-3
q5 -13 23 -13h3q5 0 10 13l-10 26h-13q-13 -5 -13 -23z" />
    <glyph glyph-name="A" unicode="A" horiz-adv-x="990" 
d="M689 1431q200 -6 200 -51q19 -39 19 -132q-14 -218 -14 -292v-86q0 -191 44 -716v-17q-21 -137 -110 -137q-83 0 -161 90q-24 38 -24 68v15q0 55 44 254v14q0 99 -93 154q-24 7 -46 10q-95 0 -137 -122q-35 -298 -54 -298q-50 -100 -117 -100h-7q-128 0 -156 49
q-17 30 -17 81q0 79 98 302q175 444 299 795q81 119 232 119zM106 278q8 -85 56 -85h17q68 0 113 126q52 325 80 325q47 61 117 61h22q78 -7 137 -44q75 -68 75 -161v-3q0 -13 -36 -229v-14q0 -110 75 -137l17 -2q51 0 68 92q3 2 3 22q-7 186 -12 917q0 156 -47 195
q-53 56 -124 56q-116 0 -200 -134q-93 -259 -295 -766q-66 -170 -66 -219zM618 1287h10q66 0 100 -141q22 -190 22 -239v-3q0 -86 -95 -109h-25q-82 0 -146 70q-32 51 -32 93v20q0 27 47 187q60 122 119 122zM545 958v-24q0 -95 95 -112h5q48 0 71 63q5 19 5 41
q-20 269 -66 269q-37 0 -98 -164q-12 -47 -12 -73zM335 363l-2 -5v-7q0 -13 15 -24v9q-4 27 -13 27zM882 258q0 -19 17 -22q11 5 12 10q0 13 -12 20h-10q-4 0 -7 -8z" />
    <glyph glyph-name="B" unicode="B" horiz-adv-x="732" 
d="M294 1430q184 0 316 -154q71 -95 71 -205q0 -154 -115 -256q-15 -26 -19 -67q0 -71 79 -177q41 -76 41 -189q0 -259 -242 -357q-83 -25 -140 -25h-21q-80 0 -159 48q-48 68 -48 191q0 174 2 258q-2 326 -9 689q0 83 64 177q55 67 180 67zM78 783v-124q0 -433 11 -433
q27 -75 85 -106q29 -14 51 -14h12q160 0 276 127q71 94 71 218q0 134 -92 231q-49 61 -103 80q-5 0 -5 5v2q0 22 131 129q85 100 85 198v23q0 108 -147 240q-58 46 -138 46h-12q-125 0 -172 -90q-51 -61 -51 -228q-2 -159 -2 -304zM356 1260h3q89 0 133 -152l5 -42
q0 -101 -122 -161q-31 -14 -56 -14q-69 0 -101 97l-7 41q7 103 21 132q49 99 124 99zM273 1204q0 -4 -2 -4q5 -14 23 -28h7v7q-4 25 -25 25h-3zM315 1055v-14q0 -75 67 -92q46 0 78 80v12q0 66 -83 101q-2 0 -14 2q-35 0 -44 -57q-4 -17 -4 -32zM257 1103q0 -18 19 -18
q12 0 18 16q-4 11 -18 11h-3q-12 0 -16 -9zM246 725q63 -3 147 -64q92 -90 92 -221q0 -157 -129 -237q-20 -5 -30 -5h-2q-77 0 -124 120q-23 143 -42 306q12 101 88 101zM200 668v-5q8 -14 20 -14h10v5q0 7 -26 14h-4zM195 615q4 -12 18 -12h3q16 0 18 14q-9 7 -21 7h-2
q-12 0 -16 -9zM269 495q12 -168 27 -168q32 -62 72 -62h7q56 0 78 136q2 13 2 37q0 121 -113 184q-4 2 -9 2h-7q-46 0 -57 -129zM596 548v-18l2 -12h7q5 0 5 5v7q0 12 -10 18h-4zM202 534v-7q8 -13 37 -13l4 6v3q0 9 -32 20q-3 0 -9 -9zM213 412v-2q3 -7 14 -7h3l11 2v7
q-4 9 -16 9h-2q-4 0 -10 -9zM600 339v-7q0 -19 19 -19q3 0 7 7v2q0 23 -16 23q-10 -3 -10 -6zM225 332q0 -8 18 -14q12 3 12 7q-2 18 -18 18q-7 0 -12 -11zM225 286v-3q0 -12 12 -18h11q3 0 7 7v9q0 6 -18 9h-7q-5 -1 -5 -4zM575 272v-5q3 -23 21 -23h2q3 0 7 7
q-11 21 -28 21h-2zM241 233h7q9 -4 9 -17v-4q-3 -9 -16 -9q-6 0 -11 11q0 12 11 19zM550 221v-9q0 -19 18 -19h5q18 0 18 17v4q-11 16 -27 16q-14 -5 -14 -9zM527 180v-7q10 0 13 -16l-6 -5q-7 0 -14 5v-3q7 -11 7 -18v-2q0 -4 -7 -7q-4 0 -28 18q0 -7 -2 -7q5 -34 25 -34
q44 17 44 53v6q-3 24 -21 24h-4q-4 0 -7 -7zM458 115v-9q4 -8 13 -12l5 7v10q0 11 -7 13h-2q-4 0 -9 -9z" />
    <glyph glyph-name="C" unicode="C" horiz-adv-x="748" 
d="M400 1430q137 0 243 -153q27 -57 27 -107q0 -92 -114 -124h-5q-45 0 -83 61q-7 9 -12 61q-18 36 -41 36h-5q-66 0 -126 -349q-12 -102 -12 -185v-12q0 -294 114 -369q34 -20 60 -20q60 30 66 30q17 4 29 4h19q100 -15 100 -94v-20q0 -90 -95 -155q-86 -34 -133 -34h-3
q-124 0 -230 131q-129 232 -129 522q0 258 85 534q60 171 146 221q61 21 99 22zM99 619v-5l3 -12h-3q3 -5 3 -7q0 -211 82 -379q79 -104 219 -104q87 0 148 80q9 16 9 34q0 20 -26 22q-104 -25 -139 -25h-7q-123 0 -175 202q-26 124 -26 243v60q0 280 99 479q43 72 124 72
q70 0 85 -75q14 -24 29 -24h7q39 0 49 65v5q0 101 -146 141q-24 3 -36 3h-15q-193 0 -262 -462q-22 -125 -22 -313zM590 1175v-7q0 -16 19 -29h5v2q-11 34 -24 34zM558 1144q0 -15 19 -30h5v5q-5 25 -24 25zM298 1129q4 -17 10 -17h5q3 0 7 10q0 12 -12 19h-2q-5 0 -8 -12z
M259 1008q5 -15 15 -15q12 3 12 17q-3 12 -17 12q-10 -2 -10 -14zM228 864q5 -13 14 -17h10q7 3 7 15q-7 17 -21 17q-10 -3 -10 -15z" />
    <glyph glyph-name="D" unicode="D" horiz-adv-x="880" 
d="M208 1434h8q85 -6 257 -120q211 -150 284 -352q53 -157 53 -339q-16 -465 -288 -587q-33 -22 -250 -36q-130 0 -161 54q-46 86 -46 237q0 67 -5 776v7q0 253 13 253q46 107 135 107zM86 847v-145q0 -467 20 -467q56 -133 163 -133q210 0 345 204q102 164 102 391
q0 316 -202 535q-150 139 -260 159q0 2 -23 5q-97 0 -135 -118q-8 -8 -10 -431zM353 1222q69 0 156 -110q77 -115 77 -280q0 -279 -179 -508q-85 -92 -138 -92h-2q-81 0 -105 115q0 2 -2 20q53 540 66 733q42 122 127 122zM279 1158q-2 -5 -2 -7q18 -36 36 -36v5
q-11 38 -34 38zM274 1095v-3q0 -20 34 -31q3 1 12 11q-14 30 -35 30q-11 -4 -11 -7zM262 388q0 -70 48 -79h5q65 0 169 196q74 156 74 312q0 187 -110 273l-13 2q-36 0 -82 -115q-45 -170 -91 -589zM267 1033q13 -28 30 -28q2 0 11 3v13q-15 20 -31 20h-5q-5 0 -5 -8z
M254 982v-10q13 -20 28 -20h3q4 0 10 10q0 20 -28 25h-8q-5 0 -5 -5zM251 919q0 -11 23 -16h5l13 3v10q0 7 -20 10h-13q-4 0 -8 -7zM246 868v-6q7 -12 21 -12h5q4 0 10 10v5q0 7 -20 10q-16 -1 -16 -7zM241 819v-8q0 -6 21 -12q10 3 10 7q0 21 -21 21q-10 -4 -10 -8z
M218 755q2 -12 38 -43q6 0 6 5v3q-23 17 -23 20v5q0 4 10 10l18 -2v2q-15 21 -28 21q-21 -2 -21 -21zM734 505q9 -7 17 -7q14 0 16 7v8q0 4 -8 8h-10q-15 0 -15 -16zM718 454v-2q16 -16 16 -26q0 -13 -8 -15q-14 2 -20 2q-6 -8 -6 -15q6 -18 21 -18q25 0 33 44v5
q0 30 -25 30h-6q-5 -1 -5 -5zM690 360q5 -26 21 -26q5 3 7 3v10q0 20 -20 20h-3q-5 0 -5 -7zM677 324v-8q21 -21 21 -25q-4 -13 -18 -13q-13 8 -20 8h-3q-4 0 -8 -8v-2q6 -28 26 -28h5q36 11 36 33q-18 43 -39 43zM619 227q8 -20 23 -20q11 0 18 15q-6 26 -26 26
q-15 -6 -15 -21zM593 209v-7q0 -17 21 -28h2q5 0 5 5v5q0 20 -15 30h-8q-5 0 -5 -5zM570 181v-5q8 -28 16 -28h5v3q-8 30 -21 30zM504 107q10 -20 25 -20q6 0 6 5v10q0 13 -16 23q-15 -6 -15 -18zM461 97v-5q0 -13 12 -18h5q6 0 6 5v5q0 14 -11 21h-5q-3 0 -7 -8z" />
    <glyph glyph-name="E" unicode="E" horiz-adv-x="932" 
d="M659 1430q151 -11 166 -51q18 -26 18 -56q0 -82 -92 -112q-82 -33 -202 -33q-41 0 -124 -62q-69 -66 -69 -145v-2q0 -103 104 -135q43 0 89 -29q62 -62 62 -127v-10q0 -67 -130 -94q-108 0 -141 -49q-53 -57 -53 -138q0 -84 79 -122q28 -13 59 -13q119 13 175 13h31
q76 0 94 -61q8 -35 8 -54q0 -99 -191 -137q-166 -13 -281 -13q-162 0 -186 69q-15 67 -15 137q33 439 54 1046q0 56 76 127q45 38 184 38q253 13 285 13zM96 283q0 -88 97 -148q20 -13 66 -18q287 10 316 33q56 17 56 44v5q-22 30 -66 30h-26q-20 0 -219 -23h-3
q-41 0 -76 26q0 -8 -10 -13h-8q-20 0 -20 21v5q4 10 15 10q-28 37 -28 81q18 232 38 232q52 100 128 100h46q65 0 94 58l2 13q-13 44 -79 44h-25q-4 0 -61 -6q-85 0 -100 153v174q0 135 158 176q21 5 44 5h33q17 0 30 -3q171 0 171 54q-16 58 -86 58q-337 -7 -337 -25
q-110 -45 -110 -204q0 -64 -40 -857v-25zM758 1325q9 -20 26 -20h8q3 0 7 8q0 19 -25 23h-8q-6 0 -8 -11zM297 1216v-3q0 -21 28 -33l5 8q-11 33 -23 33h-5q-5 -1 -5 -5zM289 1152q15 -25 31 -25h10v7q0 21 -33 28q-6 0 -8 -10zM282 1104q13 -28 33 -28h5q0 5 3 5
q-13 28 -34 28h-2q-5 -1 -5 -5zM282 1048v-5q10 -16 25 -16h8v3q-4 23 -26 23h-2q-5 -1 -5 -5zM279 992q0 -10 18 -23h13q0 2 2 7q-3 26 -23 26q-8 -3 -10 -10zM279 933q4 -13 18 -13h5q4 0 8 8v5q0 4 -10 10h-5q-13 0 -16 -10zM269 892v-5q0 -8 23 -8q5 3 8 3v8
q-5 10 -18 10q-13 -2 -13 -8zM264 836q3 -10 13 -15h12q4 0 11 10v10q-5 10 -18 10h-5q-13 -6 -13 -15zM544 729v-8q0 -16 21 -23q5 3 7 3v3q0 17 -20 28q-5 -3 -8 -3zM226 250q0 -4 15 -15v5q0 4 -10 10h-5z" />
    <glyph glyph-name="F" unicode="F" horiz-adv-x="962" 
d="M649 1430q101 0 200 -69q44 -41 44 -85q0 -76 -136 -118q-29 -7 -74 -7h-144q-127 0 -202 -98q-18 -29 -18 -61v-3q0 -90 131 -105q215 0 253 -61q41 -41 41 -87v-16q0 -65 -136 -97q-30 -5 -43 -5q-47 2 -80 2q-2 0 -7 3q-107 0 -146 -131q-5 -24 -5 -38
q12 -214 12 -231q0 -102 -69 -192q-31 -31 -66 -31q-95 0 -139 172q-5 33 -5 43q33 592 33 864v187q0 99 113 146q27 8 54 8q125 0 389 10zM291 1386q-79 0 -141 -84q-31 -26 -31 -251q-26 -689 -26 -818q11 -110 54 -110h8q45 0 59 128q0 14 2 49q-15 247 -15 284
q13 77 28 77q48 59 110 59q39 -2 64 -2h8q121 0 154 64v15q0 40 -103 49h-15l-97 -11h-6q-87 0 -120 98q-5 19 -5 36v2q0 210 64 246q51 49 113 49h7l200 -23q113 0 157 67l2 15q0 52 -141 67q-158 -6 -330 -6zM813 1307q0 -1 -2 -10q9 -23 28 -23h5q5 0 5 5v7
q-10 21 -25 21h-11zM798 1269q7 -31 31 -31v2q0 21 -28 29h-3zM796 1215v-11q16 -5 23 -5h2q13 0 16 8v5q-17 5 -24 5h-5zM291 1194v-10q1 -15 7 -15h5q4 0 8 7q-5 23 -13 23h-2q-5 0 -5 -5zM268 1135q0 -16 23 -20q7 2 10 10q-5 18 -21 18h-5q-2 0 -7 -8zM262 1076v-5
q0 -13 13 -18h16q3 0 7 8q-9 15 -23 15h-13zM255 1015v-5q0 -18 18 -18q13 4 13 15q-6 16 -21 16h-3q-3 0 -7 -8zM672 812v-5q0 -18 31 -33q5 3 8 3v2q0 24 -36 33h-3zM619 787v-3q0 -7 23 -13l13 3v8q-7 12 -21 12h-8q-3 0 -7 -7zM616 746v-5q20 -21 49 -21v3
q-22 23 -39 23h-10zM608 689q0 -24 36 -28h13q5 0 5 5v3q0 24 -38 36q-16 0 -16 -16zM221 641q31 -22 31 -31h13q5 0 5 5v13q-23 28 -41 28q-8 -3 -8 -15zM242 554q4 -24 23 -24q10 5 10 18q0 18 -18 26q-15 -5 -15 -20zM247 495v-3q0 -20 28 -26h5q8 0 8 11q-12 23 -28 23
h-8q-5 -1 -5 -5zM255 441v-5q11 -34 23 -34h2v3q0 13 -20 36h-5zM268 377v-8q0 -23 20 -23h5q0 5 3 5q-7 26 -26 26h-2zM252 318q12 -23 31 -23l3 5q-8 23 -26 23h-3q-5 -1 -5 -5zM265 264v-10q0 -21 21 -23q3 0 7 7v8q-8 18 -23 18h-5zM270 190q5 -15 18 -21h10q5 0 5 5v8
q-13 18 -23 18q-10 -3 -10 -10z" />
    <glyph glyph-name="G" unicode="G" horiz-adv-x="1009" 
d="M491 1427q159 0 328 -118q121 -102 121 -189q0 -94 -144 -119q-62 0 -121 95q-11 38 -11 42q3 5 3 8q-9 39 -60 39h-16q-151 0 -234 -360q-26 -96 -26 -192v-36q0 -197 76 -255q56 -40 95 -40h2q78 0 95 126v3q-8 79 -50 79q-53 46 -53 113v31q0 87 111 100h8
q74 0 202 -94q87 -83 87 -176q0 -185 -124 -371q-96 -113 -294 -113q-282 0 -392 371q-34 142 -34 286q0 383 184 644q105 126 247 126zM92 636v-13q7 -401 207 -518q62 -34 139 -34q229 0 297 273q27 117 27 176v16q0 111 -98 174q-38 13 -60 13q-62 0 -79 -69v-13
q0 -36 55 -44q43 2 48 2q42 -23 42 -87v-7q0 -107 -113 -224q-56 -39 -105 -39h-6q-165 0 -207 226q-11 49 -11 121v10q0 277 134 552q77 150 195 150h18q93 0 160 -134q9 -5 14 -5q18 7 18 26v24q0 75 -92 139q-83 42 -173 42q-234 0 -334 -305q-76 -213 -76 -452z
M825 1233v-8q14 -48 39 -48h8q4 0 8 8v16q-16 30 -45 39q-10 -4 -10 -7zM407 1146v-11q0 -4 10 -10h14q3 0 7 8v13q0 14 -10 18h-11q-10 -4 -10 -18zM814 1127q7 -34 32 -34h8q10 6 10 16q-8 39 -31 39q-19 0 -19 -21zM375 1096v-3q0 -18 19 -18q23 3 23 24q-6 13 -21 13
q-12 0 -21 -16zM775 1106l-3 -5q0 -27 50 -39v2q0 23 -47 42zM741 1056q22 -17 50 -21q5 3 7 3v8q-27 16 -52 16q-5 -1 -5 -6zM352 1035q9 -7 18 -7h3q21 0 21 18q-8 13 -19 13q-23 -3 -23 -24zM331 978v-3q4 -11 18 -11q26 4 26 24q-5 12 -10 13h-11q-23 -3 -23 -23z
M302 870v-5q0 -14 13 -19q15 0 29 19v7q-4 24 -21 24q-21 -7 -21 -26zM289 778v-8q8 -29 15 -29q16 0 16 16v2q-13 19 -29 19h-2zM278 662v-10q3 -8 16 -8h8q6 0 8 13q-7 16 -19 16q-12 -5 -13 -11zM273 602v-5q2 -16 8 -16h8q18 0 18 16q-4 13 -18 13q-16 -2 -16 -8z
M809 539q-5 -7 -5 -11q0 -19 26 -39h13q0 3 3 8q-13 42 -37 42zM278 494v-10q0 -5 11 -11h10q4 0 8 11q-6 16 -16 18q-13 -3 -13 -8zM806 465q-2 -5 -2 -8q10 -23 26 -23h3q5 0 5 5q-12 26 -32 26zM793 405v-6q4 -26 24 -26h2q5 0 11 11v5q-3 24 -24 24h-5q-4 0 -8 -8z
M783 355v-13q6 -13 21 -24q5 0 5 8q0 19 -26 29zM772 300l-2 -11q8 -21 31 -21q8 0 8 11q-10 21 -26 21h-11zM754 234q2 -9 16 -16q15 0 15 16q-5 16 -21 16q-10 -3 -10 -16zM728 189q5 -16 10 -16h13q16 7 16 21q0 7 -21 14q-12 -3 -18 -19z" />
    <glyph glyph-name="H" unicode="H" horiz-adv-x="859" 
d="M619 1430h9q80 0 106 -187v-12q-5 -180 -5 -242v-4q0 -13 3 -37h-3q3 -5 3 -8q0 -184 66 -731q-13 -101 -29 -101q-41 -71 -104 -71h-5q-104 0 -133 212v132q0 143 -68 173q-9 5 -20 5h-5q-82 0 -111 -123v-27l17 -190v-17q0 -104 -68 -177q-27 -25 -60 -25h-12
q-96 0 -145 180q-5 31 -5 42q0 61 12 403h3q0 3 -3 3l3 9q12 324 12 517v40q0 96 76 142q19 8 32 8q56 0 99 -96q22 -73 22 -131v-9q0 -37 -7 -187h-3q0 -84 64 -116q19 -5 35 -5q87 0 135 111q10 38 10 61q-20 240 -20 296q0 98 71 155q17 7 28 7zM545 1255l24 -317
q0 -88 -110 -150q-31 -18 -155 -40q-101 0 -119 131q13 167 20 297q-7 141 -42 141h-5q-40 0 -51 -141q-8 -341 -30 -910q13 -143 79 -143q76 23 76 138q0 15 -39 231q0 99 108 160q49 17 111 17q90 0 138 -105q7 -30 7 -42q-7 -190 -7 -232q7 -127 71 -150h15q24 0 47 47
q17 44 17 91v15q-64 646 -64 876q0 3 -3 25h3l-3 5v22q0 137 -42 175h-9q-37 -32 -37 -141zM678 1314v-5q0 -3 12 -9h17v2q0 20 -20 20h-2q-4 0 -7 -8zM680 1253q7 -17 25 -17q12 0 12 14q-7 18 -22 18h-5q-10 -5 -10 -15zM675 1211v-7q0 -11 25 -18h2q4 0 8 8v5
q-6 11 -18 17h-12q-5 -1 -5 -5zM252 1199v-8q6 -15 20 -15h2q4 0 7 10q-7 18 -24 18q-5 -1 -5 -5zM680 1172l-2 -5q0 -21 14 -32q10 2 10 14q-4 23 -22 23zM242 1049v-13q6 -13 15 -15q5 3 7 3v5q0 20 -20 20h-2zM670 997v-5q0 -15 13 -15q9 3 9 15l-2 12h-12q-4 0 -8 -7z
M235 970l-3 -5v-3q0 -13 12 -19h5q5 0 5 5v2q0 20 -19 20zM242 529v-2q9 -30 25 -30v5q0 18 -25 27zM235 482v-2q11 -22 27 -22h5q5 0 5 5q0 11 -32 19h-5zM244 426q-2 -5 -2 -8q11 -22 30 -22h4q4 0 8 8q0 14 -40 22zM257 377v-3q14 -32 22 -32v5q0 16 -20 30h-2zM272 315
l-3 -5v-5q11 -19 27 -19q5 0 5 4q-11 25 -29 25zM729 271v-3l35 -39h2q5 0 5 7q0 17 -42 35zM276 254q0 -16 18 -28h10v5q0 14 -15 23h-13zM281 187v-5q0 -6 20 -10q15 0 15 10q-2 7 -12 12h-15q-4 0 -8 -7zM751 140v-5q0 -17 18 -17h2q8 3 8 15q-4 10 -18 10z" />
    <glyph glyph-name="I" unicode="I" horiz-adv-x="413" 
d="M224 1430h2q57 0 109 -83q13 -36 13 -52q0 -22 -46 -145q-26 -165 -26 -294q0 -2 -3 -2q0 -3 3 -3l-3 -13q0 -294 42 -659v-5q0 -120 -73 -164q-35 -10 -65 -10q-95 0 -111 73q-16 65 -16 137q44 734 44 968q-2 14 -2 31q0 73 41 159h5q-15 -54 -15 -140v-120
q0 -148 -42 -810v-41q8 -119 52 -119h5q57 17 57 142q-26 331 -26 496v91q0 205 37 371q2 9 2 28v8q-9 117 -52 117v5q30 34 68 34zM146 1388h5q0 -5 -5 -5v5zM265 1326v-8q21 -19 21 -31q0 -3 -8 -8h-7q-15 13 -16 13v-5q4 -26 23 -26h3q21 0 26 29v5q0 33 -31 39h-3
q-4 0 -8 -8zM247 1233q0 -7 18 -18h11v5q0 21 -21 21h-3q-5 0 -5 -8zM242 1202v-13q0 -4 16 -16h7v5q0 14 -15 26q-5 -2 -8 -2zM229 1142q0 -17 23 -21h6q7 0 7 11q-7 18 -26 18zM229 1108l-3 -5v-5q0 -50 29 -50q4 0 10 11v8q0 16 -36 41zM219 991q0 -13 -5 -13
q5 -31 25 -31h6l13 3v8q-29 33 -32 33h-7zM216 927q-2 -8 -5 -8q6 -20 15 -24h3q14 0 16 8v3q0 21 -29 21zM214 805v-11q0 -3 12 -13h3q16 0 16 13q-11 11 -21 11h-10zM203 750v-10q0 -4 11 -11h7q15 0 18 13q0 16 -20 18q-11 0 -16 -10zM211 672q0 -17 23 -21q13 2 13 8v11
q0 3 -13 13h-15q-4 0 -8 -11zM214 625v-10q6 -13 20 -13q8 2 11 10q0 8 -24 16q-5 -3 -7 -3zM208 563v-2q11 -16 21 -16q10 3 16 10q-7 16 -24 16q-13 -2 -13 -8zM224 449v-8q7 -13 21 -13l2 5v3q0 14 -10 21h-5q-4 0 -8 -8zM226 382q6 -16 21 -16h8q5 0 5 5v5q0 14 -13 21
h-5q-16 0 -16 -15zM234 319v-2q7 -13 21 -13h5q5 0 5 5v5q0 7 -20 10h-6q-5 0 -5 -5z" />
    <glyph glyph-name="J" unicode="J" horiz-adv-x="946" 
d="M674 1427h11q75 0 139 -187q20 -47 49 -420l5 -159q0 -367 -133 -545q-137 -116 -269 -116q-116 0 -253 105q-155 166 -173 287v36q10 97 88 97q31 6 65 6h23q78 0 94 -103q5 -55 5 -99q0 -41 82 -51q126 0 162 227q26 132 26 312q-3 22 -3 48h3q-3 6 -3 9q0 120 -20 374
q12 144 88 176q5 3 14 3zM632 1396q-20 -96 -20 -185q0 -96 5 -428q0 -467 -136 -565q-45 -34 -108 -34q-119 0 -161 120q-38 190 -71 190h-6q-40 0 -48 -91q0 -128 176 -278q89 -60 170 -60q181 0 281 281q42 143 42 309v54q0 296 -102 670q-9 12 -20 17h-2zM739 1362
l-2 -14q7 -29 17 -29q19 0 19 20q0 13 -19 23h-15zM734 1285q0 -13 31 -20q1 6 6 6q-8 23 -29 23h-3q-5 0 -5 -9zM771 1050v-6q7 -14 22 -14q9 2 12 11q-6 17 -23 17h-3q-4 0 -8 -8zM785 996v-3q0 -15 17 -28h8v5q0 16 -17 26h-8zM782 931q9 -26 28 -26h6v6q-4 28 -26 28
q-2 0 -8 -8zM805 809v-9q0 -4 11 -11h8q6 1 12 14q0 8 -20 14q-11 -4 -11 -8zM805 661v-3q10 -40 34 -40q11 0 17 12v5q0 12 -49 26h-2zM807 604l-5 -8v-3q7 -31 25 -31l3 5v9q-5 28 -23 28zM790 542v-14q0 -7 23 -15q14 2 14 18q-7 22 -25 22q-5 0 -12 -11zM785 471
q0 -11 17 -23h14q7 0 11 20q0 13 -28 20q-14 -2 -14 -17zM251 440v-3q4 -11 26 -11q20 7 20 19q-9 6 -17 6h-9q-15 0 -20 -11zM776 414v-11q8 -14 23 -14h6q5 0 5 5v12q-11 17 -22 17q-12 -5 -12 -9zM756 346q0 -7 17 -17q17 0 20 23q0 4 -11 11h-14q-12 -6 -12 -17z
M731 295q0 -19 31 -25h9q12 0 19 11q0 6 -39 34q-20 0 -20 -20zM720 255l-3 -5q4 -32 31 -32l3 6q0 16 -31 31zM691 199v-12q7 -14 29 -14l2 6v3q0 15 -17 25h-5q-4 0 -9 -8z" />
    <glyph glyph-name="K" unicode="K" horiz-adv-x="1012" 
d="M155 1427h17q58 0 105 -108h-3q-4 3 -10 3h-3l-3 -11q0 -14 14 -22h8l5 3q-8 20 -8 24h3q5 0 11 -16q-3 -5 -3 -8q13 -52 16 -106q0 -18 -24 -143v-5q3 -41 29 -41q53 0 133 176q8 5 70 140q57 90 103 90h8q56 0 130 -130l8 -54q0 -144 -133 -278q-67 -81 -67 -157
q0 -121 111 -227q126 -134 197 -189q67 -75 67 -133q0 -67 -140 -119q-20 -5 -38 -5q-87 0 -224 162q-65 113 -165 241q-34 27 -54 27h-8q-31 0 -35 -55v-8q0 -35 83 -305q3 -18 3 -35v-16q0 -103 -70 -122h-24q-151 0 -176 81q-38 106 -38 192q14 564 14 765q0 138 -6 243
q0 96 81 143zM88 1249v-952q15 -170 78 -170q51 0 60 132q0 26 -41 255q-3 32 -5 37q10 90 67 90h11q49 0 119 -92q82 -101 184 -260q74 -75 130 -75q54 10 54 45v11q0 75 -149 203q-151 158 -151 192q-22 47 -22 105v3q0 113 89 222q146 222 152 273l2 32v11q0 57 -40 57
q-55 0 -138 -165q-132 -283 -195 -322q-20 -13 -43 -19q-58 0 -78 195q0 19 -3 21q16 166 16 187q-8 140 -46 140h-5q-46 -34 -46 -156zM242 1289v-8q0 -15 16 -24h8v5q-6 27 -24 27zM691 1192v-3q0 -32 24 -32h5q11 4 11 19v2q0 22 -24 27q-11 -3 -16 -13zM231 1197l-3 -5
v-14q6 -10 17 -16h2v8q0 27 -16 27zM672 1151v-5q0 -23 24 -27h3v3q0 24 -25 29h-2zM647 1111q6 -20 19 -27h8v5q0 16 -16 27h-5q-6 -1 -6 -5zM623 1068q0 -11 13 -19h6q5 0 5 5v11q0 14 -11 19h-5q-8 -3 -8 -16zM204 1054v-8q0 -15 14 -22h5q5 0 5 6q0 24 -21 24h-3z
M593 1027q8 -22 27 -22h3q5 0 5 6v8q0 19 -19 19h-8q-4 0 -8 -11zM582 551q0 -10 25 -13q6 0 35 8v3q-29 10 -46 10h-8q-6 0 -6 -8zM664 465q11 -16 37 -16l30 5v3q-42 16 -57 16q-10 -4 -10 -8z" />
    <glyph glyph-name="L" unicode="L" horiz-adv-x="1128" 
d="M146 1430q73 0 158 -85q57 -78 57 -206v-23q0 -32 -82 -486q-23 -161 -23 -234q0 -81 96 -122q30 -6 46 -6q30 0 330 99q37 6 68 6h17q176 0 235 -181q5 -20 5 -42q0 -44 -110 -85q-39 -13 -393 -40q-157 -20 -268 -25q-131 0 -164 57q-60 108 -60 211q-8 146 -8 831v144
q0 137 68 179q14 8 28 8zM78 916q0 -693 31 -693q59 -104 164 -104q455 34 455 56q105 43 105 91v11q0 42 -85 51q-56 0 -288 -85q-72 -23 -125 -31h-17q-90 0 -130 110q-5 14 -8 43q17 345 51 864q0 118 -57 164l-5 3h-20q-59 -14 -71 -150v-330zM273 1241v-6q0 -23 31 -31
h6q4 0 8 8v6q0 19 -22 31h-14q-4 0 -9 -8zM276 1167v-3q0 -21 28 -25q17 0 17 14q-11 23 -31 23q-14 -2 -14 -9zM259 1122v-3q0 -20 28 -28l3 6q0 17 -22 28q-6 -3 -9 -3zM259 1046q7 -23 26 -23h11q11 6 11 17q-11 23 -28 23h-9q-11 -6 -11 -17zM251 933q0 -10 22 -17
q12 2 12 17q0 17 -20 17q-10 -6 -14 -17zM906 280q0 -30 91 -71h8q-52 71 -93 71h-6zM909 167v-3q0 -27 62 -42v2q0 22 -62 43z" />
    <glyph glyph-name="M" unicode="M" horiz-adv-x="1399" 
d="M950 1430q146 0 186 -192q14 -66 38 -293q37 -186 139 -605q6 -29 6 -52v-26q0 -119 -87 -172q-28 -6 -44 -6q-176 0 -230 125q-20 97 -20 195q0 21 3 195q-4 44 -15 46q-29 0 -29 -229q3 -35 3 -50q0 -154 -90 -226q-47 -21 -96 -21q-61 0 -183 137q-30 74 -78 276
l-119 340h-3v-41q0 -128 58 -596q3 -36 3 -37q0 -124 -93 -186q-29 -12 -58 -12h-6q-141 0 -172 125q-23 89 -23 157q0 209 52 968q25 80 73 107q0 10 52 21h24q117 0 232 -102q63 -87 105 -247q38 -220 64 -302q18 -38 35 -38q39 0 66 352q17 234 44 273q71 116 163 116z
M668 503q-73 0 -131 221q-58 172 -119 462q-70 151 -169 151q-93 0 -128 -145q-5 -34 -20 -337q-23 -247 -32 -538q0 -114 70 -166q9 -6 17 -6h12q80 13 96 195q-12 182 -64 692v14q3 44 35 44q57 0 133 -235q61 -157 152 -431q70 -136 145 -136q58 0 119 163
q73 342 102 572q6 79 20 79h9q49 -18 49 -271q17 -511 38 -511q29 -73 73 -73h3q51 0 69 113q3 17 3 47v9q0 72 -113 726q-39 244 -125 244h-9q-55 0 -101 -133q-15 -49 -44 -396q-15 -340 -55 -340q-12 -14 -35 -14zM1066 1264v-5q0 -24 32 -32v5q0 18 -23 32h-9zM476 1209
v-3q13 -43 29 -43q3 5 3 8q-12 28 -29 38h-3zM1072 1177v-9q4 -29 26 -29q12 5 12 9v9q-4 26 -27 26h-5q-6 -1 -6 -6zM482 1142l-3 -6v-2q13 -38 38 -38q8 0 8 11q0 19 -43 35zM488 1055q8 -20 26 -20h8q6 0 6 8q0 12 -26 21zM1098 1006q6 -14 12 -15h3q17 0 17 18
q-5 14 -17 14q-15 -5 -15 -17zM508 982q6 -15 17 -20h9q15 0 18 12q-9 20 -30 20q-11 0 -14 -12zM252 895v-3q10 -17 26 -17h6v9q0 15 -11 20h-12q-4 0 -9 -9zM531 857q2 -7 15 -14h14q4 0 9 9q0 23 -23 23q-15 -5 -15 -18zM284 628v-6q0 -17 18 -29q5 0 5 6v3q-5 26 -14 26
h-9zM1194 509v-3q0 -4 14 -15h12v15q0 15 -12 20h-5q-9 -3 -9 -17zM836 509v-6q0 -15 12 -18q17 5 17 21v6q0 4 -8 8h-9q-5 0 -12 -11zM284 506v-9q12 -17 23 -17q12 4 12 8v3q0 23 -23 23q-12 -4 -12 -8zM1200 462v-11q10 -18 26 -18q20 0 20 18q-14 14 -32 14zM822 389v-8
q0 -8 23 -12q18 0 20 18q-6 17 -23 17q-11 0 -20 -15zM1214 401v-9q17 -26 35 -26q0 24 -35 35zM1229 343l-3 -6v-3q0 -24 26 -29h3q6 0 6 6v3q0 23 -32 29zM819 331v-5q10 -18 26 -18l12 3v9q-10 17 -26 17h-6q-6 -1 -6 -6zM319 320v-3q0 -23 17 -32h3q6 0 6 6v11
q-3 9 -17 21q-6 -3 -9 -3zM1229 291v-9q16 -23 35 -23h3q-21 32 -38 32zM825 285l-6 -9q7 -22 17 -26h9q6 0 6 9t-26 26zM1246 206q0 -11 26 -17q12 6 18 6v11q-8 15 -23 15q-17 0 -21 -15z" />
    <glyph glyph-name="N" unicode="N" horiz-adv-x="1002" 
d="M742 1427h14q112 0 160 -86q15 -33 15 -100q0 -48 -43 -400q-12 -163 -23 -672q-39 -169 -114 -169h-6q-159 0 -186 114q-38 93 -106 349q-120 367 -146 401l-8 5q-12 -3 -12 -25v-26q0 -95 80 -601v-25q0 -141 -74 -169q-11 -3 -23 -3h-14q-152 0 -192 172
q-11 56 -14 103q11 204 17 577q0 27 -8 352q0 82 91 160q49 29 112 29h2q175 0 238 -263q90 -498 151 -498q32 0 32 192q0 202 -26 443q0 98 57 134q19 6 26 6zM693 1235q20 -344 20 -623q0 -217 -28 -217q0 -3 -3 -3h-6q-39 0 -111 191q-149 307 -229 647q-60 137 -123 137
q-88 0 -120 -163v-200q-6 -572 -6 -649q13 -203 89 -203q66 24 66 131v32q-55 512 -55 692q7 83 46 83h3q57 0 154 -369q143 -425 178 -507q52 -91 85 -91h12q51 0 91 134q29 123 46 827h3q0 3 -3 3l3 11q3 136 3 155q-11 148 -57 148q-43 0 -55 -137q0 -28 -3 -29z
M856 1304v-11q23 -25 23 -38q-4 -11 -8 -11l-12 9h-3l-2 -12q8 -20 28 -20h3q17 0 26 20v3q0 23 -40 60h-15zM385 1270v-6q1 -7 45 -26q0 -4 6 -11v-6l-11 -11q14 -12 20 -12q14 4 14 20q-29 60 -60 60h-6q-4 0 -8 -8zM848 1181q6 -20 23 -20q14 0 20 14v9q-5 11 -20 11h-12
q-11 -6 -11 -14zM405 1175q0 -20 22 -20h6q9 0 9 12q-6 14 -23 14h-9q-5 -1 -5 -6zM862 1132v-11q0 -21 14 -23q12 3 12 17q-10 17 -26 17zM416 1124v-9q6 -28 29 -28h5q0 3 3 8q-7 32 -28 32q-6 -3 -9 -3zM845 1070q0 -23 23 -23h3q8 0 8 11q-10 20 -23 20q-11 -4 -11 -8z
M836 964v-12q2 -17 9 -17h9q15 0 20 12v8q0 4 -26 26h-3q-9 -3 -9 -17zM462 949q4 -11 20 -11q12 4 17 14q0 4 -9 9h-8q-16 0 -20 -12zM476 898q7 -17 26 -17h3q5 0 5 6v8q-4 12 -20 12h-5q-4 0 -9 -9zM247 618v-12q3 -8 17 -8q12 0 20 14v11q-1 6 -14 12q-11 0 -23 -17z
M262 492q2 -12 17 -12t20 12q-4 14 -20 14q-13 0 -17 -14zM799 206v-3q0 -4 12 -11h5q15 0 18 8v9q-3 8 -18 8q-11 0 -17 -11zM796 103v-11q3 -9 18 -9t22 14v6q0 4 -11 11h-9q-15 0 -20 -11z" />
    <glyph glyph-name="O" unicode="O" horiz-adv-x="969" 
d="M503 1430h23q196 0 316 -248q77 -180 77 -410q0 -383 -194 -638q-122 -134 -270 -134q-330 0 -399 521q-6 63 -6 120v37q0 380 197 632q111 120 256 120zM76 706v-62q0 -329 171 -499q70 -57 156 -57q282 0 382 467q20 110 20 208v49q-16 455 -234 561q-37 17 -82 17
q-192 0 -317 -239q-96 -206 -96 -445zM466 1316h8q146 0 188 -299q6 -40 9 -137q0 -340 -140 -595q-72 -100 -142 -100h-17q-148 0 -177 294q-3 37 -3 79q0 324 120 656q39 91 86 91q26 11 68 11zM281 496v-37q0 -91 23 -120q42 -48 102 -48h14q93 0 137 128q91 186 91 424
q-14 290 -65 302q-12 14 -34 14h-20q-75 0 -149 -91q-32 -44 -68 -225q-31 -167 -31 -347zM802 1154l-3 -15q5 -14 17 -14q15 4 15 20q-11 9 -20 9h-9zM318 1134q6 -17 23 -17q17 6 17 20q-5 14 -17 14q-17 0 -23 -17zM292 1085v-8q0 -7 20 -17q17 5 17 11v11q-4 12 -20 12
h-8q-4 0 -9 -9zM819 997q0 -23 34 -23q5 0 12 12q-11 31 -23 31h-11q-12 -5 -12 -20zM272 983v-3q0 -16 17 -20q17 0 17 20q-5 13 -11 14h-11q-5 0 -12 -11zM848 781v-3q0 -16 14 -20q17 7 17 25v3q0 5 -11 12h-12q-8 -3 -8 -17zM856 726v-2q17 -23 17 -29q-4 -12 -14 -17
h-3l-11 9q-6 0 -6 -9q0 -5 29 -23v-6q-4 -11 -26 -11v3q-9 -3 -11 -11q7 -23 14 -23h11q31 20 31 62q0 40 -28 57h-3zM229 638v-11q0 -4 9 -9h11q4 0 9 9v11q0 4 -9 9h-11q-4 0 -9 -9zM822 553q3 -9 17 -9h3q26 4 26 26l-9 5h-14q-23 0 -23 -22zM229 553q0 -17 20 -17
q12 4 12 19q-6 13 -12 15h-11q-9 -3 -9 -17zM771 350l11 -8h9q14 7 14 23v2q0 6 -6 6h-6q-22 0 -22 -23z" />
    <glyph glyph-name="P" unicode="P" horiz-adv-x="969" 
d="M437 1430q352 0 451 -245q24 -69 24 -132v-13q0 -211 -190 -378q-111 -89 -279 -89q-72 -16 -103 -53q-27 -38 -27 -98q0 -51 3 -253q0 -35 -21 -74q-11 11 -21 11h-6q-15 -2 -15 -8v-14q8 -15 29 -15q12 23 15 23q3 -5 3 -8q-54 -72 -90 -81l-26 -3q-105 0 -124 206v29
l58 543q19 163 34 465q28 94 87 140q38 47 198 47zM94 251q12 -140 56 -140h5q44 0 58 153v29q0 316 24 316q33 80 179 80q257 0 364 248q24 74 24 139q0 266 -301 320q-35 5 -76 5h-29q-153 0 -206 -145q-12 0 -29 -317q-69 -579 -69 -688zM416 1288h13q102 0 209 -66
q68 -56 68 -159v-5q0 -101 -89 -185q-109 -84 -196 -84h-10q-85 0 -143 119q-13 37 -13 63v121q0 146 135 193q14 3 26 3zM290 1190q0 -7 18 -19q5 3 8 3v13q0 14 -11 19h-8q-7 -3 -7 -16zM350 1003v-16q0 -93 98 -143q19 -5 39 -5q63 0 138 95q31 52 31 87v16
q0 87 -108 145q-18 5 -32 5h-5q-103 0 -158 -145q-3 -26 -3 -39zM287 1140v-5q4 -11 18 -11h8q4 0 11 11v5q-5 13 -19 13q-10 0 -18 -13zM825 1142v-2q5 -24 13 -24h6q10 4 15 19q-6 15 -23 15h-3q-4 0 -8 -8zM836 1034v-13q0 -4 8 -8h5q13 7 13 21q0 4 -8 8h-2
q-16 -1 -16 -8zM825 974q3 -11 16 -11q16 0 16 16q-11 10 -16 10q-16 -6 -16 -15zM290 952v-7q0 -6 15 -8q16 5 16 10v5q-2 8 -16 8q-15 -1 -15 -8zM809 923v-5q0 -16 16 -16h5q4 0 14 14v5q0 4 -11 10h-16q-4 0 -8 -8zM788 886l-2 -5v-8q0 -29 21 -29q14 0 18 11v5
q-18 23 -37 26zM762 815q4 -16 18 -16h3q4 0 8 8v3q0 16 -16 16h-5q-7 0 -8 -11zM253 591q0 -14 13 -21h13q5 0 5 5v3q-2 21 -21 21q-10 -4 -10 -8zM253 464v-2q2 -21 18 -21q12 5 13 10v8q0 4 -13 13h-10q-4 0 -8 -8zM247 396q7 -16 19 -16q16 5 16 10v3q0 19 -21 19
q-14 0 -14 -16zM250 185v-3q0 -4 11 -11h5q11 0 18 11q-3 13 -18 13q-11 0 -16 -10z" />
    <glyph glyph-name="Q" unicode="Q" horiz-adv-x="929" 
d="M423 1440h13q183 0 348 -168q79 -104 79 -353q0 -284 -84 -571q-41 -68 -41 -79q-2 0 -2 -15q0 -47 45 -86q16 -21 16 -49v-7q0 -77 -89 -99q-23 -5 -51 -8q-62 8 -81 8q-27 0 -224 -13q-206 0 -279 353q-23 120 -23 257v25q0 356 122 640q90 165 251 165zM80 597h-2
q0 -3 2 -3l-2 -25q0 -485 241 -485q54 0 135 43q30 15 46 15h12q16 0 33 -38q21 -18 38 -18q36 10 36 61q0 27 -33 59l-5 17q19 87 73 216q59 197 59 424q0 385 -160 516q-47 31 -89 31h-25q-132 0 -249 -209q-36 -75 -84 -335q-26 -174 -26 -269zM449 1310q138 0 193 -190
q15 -65 15 -140q0 -226 -112 -530q-41 -71 -68 -77q-7 0 -21 26q-19 12 -40 12q-26 -7 -26 -15v-7q18 -45 18 -72v-15q-11 -99 -66 -99h-15q-70 0 -122 127q-25 76 -25 221v28q0 313 76 582q47 149 193 149zM715 1237q0 -8 23 -13h15l13 3v5q0 9 -38 12h-5q-4 0 -8 -7z
M334 1214v-8q1 -5 6 -5h12q14 0 18 10v6q0 6 -20 10q-11 -4 -16 -13zM286 551v-84q0 -155 84 -200l18 -3q12 6 12 26v7q0 29 -40 61l-3 15h3q0 3 -3 3q0 58 132 147q89 94 89 140q36 164 36 302q0 185 -97 241q-23 16 -35 16q-60 0 -127 -193q-69 -258 -69 -478zM731 1196
q13 -28 33 -28h5v13q-12 20 -28 20h-5q-5 -1 -5 -5zM301 1145q0 -11 28 -12q23 4 23 20q-5 15 -20 15h-3q-19 0 -28 -23zM741 1135v-5q18 -7 23 -7q9 0 15 7q-3 10 -15 10h-18q-5 0 -5 -5zM296 1092l8 -5h13q2 0 12 13q-2 10 -15 10q-18 0 -18 -18zM748 1092q0 -22 33 -28
l3 5q-5 28 -28 28h-3q-5 -1 -5 -5zM759 1046v-7q12 -18 28 -18h5q-4 25 -23 25h-10zM756 990q3 -10 15 -10h5q14 0 16 8v5q0 7 -21 10h-5q-10 -5 -10 -13zM263 952q0 -3 8 -7h5q18 0 25 20q-4 13 -17 13q-21 -10 -21 -26zM761 942v-5q0 -4 8 -7h10q14 0 20 12v8l-12 2h-8
q-14 0 -18 -10zM769 902q6 -13 20 -13h5q4 0 8 8v10l-13 2h-5q-15 -1 -15 -7zM246 863v-7l12 -3h5q18 0 18 13q-2 10 -15 10q-14 0 -20 -13zM759 856v-3q6 -12 20 -12h5l13 2v8q0 9 -28 12q-10 -3 -10 -7zM248 803q5 -12 10 -13h8q13 6 13 20v3q-3 7 -16 7h-5
q-10 -4 -10 -17zM756 810v-7q5 -28 33 -28q18 3 18 10v2q0 26 -41 31q-10 -4 -10 -8zM751 737q0 -14 36 -16q22 0 22 16q-14 12 -25 12h-15q-18 0 -18 -12zM228 706q2 -15 20 -15q4 0 8 7v8q0 14 -10 18h-8q-10 -4 -10 -18zM736 688q0 -10 38 -10q35 3 35 10v3q-22 7 -38 7
q-35 -1 -35 -10zM225 643l8 -6h5q23 4 23 23l-8 5h-5q-23 -3 -23 -22zM756 645q4 -10 8 -10h10q13 0 18 10v10q-14 3 -21 3q-13 -5 -15 -13zM738 599q12 -7 21 -7q20 6 20 15q-11 8 -18 8q-23 0 -23 -16zM736 564v-3q14 -20 38 -20h5v5q-5 25 -26 25h-10q-3 0 -7 -7z
M731 513v-5q4 -10 17 -10h5q4 0 8 7v11q0 3 -8 7h-5q-13 0 -17 -10zM703 467q0 -14 33 -20v-8q0 -11 -36 -17l-10 -13v-10q33 -6 33 -16v-5q0 -5 -5 -5h-25q-4 0 -8 -7v-5h13q46 0 63 73q-6 46 -46 46q-12 -4 -12 -13zM484 437q4 -23 18 -23q25 11 25 33q0 14 -12 20h-13
q-18 -11 -18 -30zM228 437l10 -5q13 0 23 15v3q0 3 -8 7h-5q-20 0 -20 -20zM667 335v-5q0 -11 36 -18h2v3q0 23 -30 23q-5 -3 -8 -3zM629 262q4 -13 25 -13h8q1 0 8 5q-5 13 -21 13h-12z" />
    <glyph glyph-name="R" unicode="R" horiz-adv-x="962" 
d="M361 1434h21q245 0 423 -179q95 -106 95 -232q0 -179 -194 -321q-21 -26 -21 -62q0 -62 97 -211q105 -185 105 -245v-23q0 -91 -87 -143q-23 -5 -33 -5q-119 0 -194 219q-75 299 -168 299q-56 0 -67 -92l23 -263v-5q0 -122 -69 -161q-40 -10 -66 -10q-118 0 -150 89
q-26 71 -26 136q59 557 77 811q5 247 17 247q13 49 72 110q43 41 145 41zM83 258q9 -132 72 -146h7q58 0 79 133q3 14 3 28l-18 276q17 112 94 112h11q71 0 178 -179q39 -65 77 -191q52 -158 115 -158q40 0 48 79v18q0 121 -207 390q-17 26 -17 46v5q0 60 122 120
q156 131 156 291v20q0 188 -222 268q-98 28 -187 28q-141 0 -183 -74q-54 -55 -54 -201q0 -150 -74 -840v-25zM466 1283h23q183 0 222 -117q5 -33 5 -43q0 -162 -232 -261q-84 -30 -123 -30q-80 0 -109 102q-6 24 -6 38q17 160 36 184q17 46 95 102q55 25 89 25zM326 1186
v-7q8 -18 30 -18q12 5 13 10v13q-9 15 -23 15t-20 -13zM372 970q0 -67 81 -79q67 0 158 86q26 35 26 67v15q0 74 -77 102h-15q-102 0 -168 -161q-5 -24 -5 -30zM318 1082q0 -23 20 -23l8 13q-4 15 -20 15h-3q-5 -1 -5 -5zM808 936q7 -17 25 -17h8v2q-3 23 -23 23h-5
q-5 0 -5 -8zM767 847q10 -5 15 -5q18 4 18 15l-7 5h-8q-18 0 -18 -15zM759 824v-13q0 -9 -10 -20v-8h8q20 3 20 21q-3 20 -18 20zM280 378v-11q4 -10 18 -10q12 0 15 10q-4 13 -18 13h-3zM282 316q0 -10 21 -15q15 3 15 8v5q-2 8 -20 8h-11q-5 -1 -5 -6zM777 311v-2
q0 -18 18 -18h3q5 0 5 5v13q0 3 -13 10q-13 -3 -13 -8zM287 283l-5 -18v-2q9 -15 31 -15l13 2v18q0 3 -26 10v5h-13zM803 258l20 -21q15 0 15 16q-3 10 -7 10h-23q-5 -1 -5 -5zM287 202q11 -11 21 -11h2q14 0 18 11v7q-4 10 -18 10h-5q-18 0 -18 -17zM821 204q5 -16 12 -18
h11q3 0 7 8v8q0 6 -20 10h-3q-2 0 -7 -8z" />
    <glyph glyph-name="S" unicode="S" horiz-adv-x="976" 
d="M411 1434q208 0 456 -224q34 -53 34 -98q-10 -94 -94 -94q-69 0 -198 129q-73 58 -137 58h-16q-116 -11 -116 -114q0 -83 71 -131q36 -35 198 -153q68 -46 187 -174q98 -119 98 -319v-11q0 -211 -116 -282q-44 -21 -85 -21q-165 0 -495 124q-81 32 -130 116
q-18 47 -18 84q0 98 76 98h11q64 0 158 -79q86 -42 171 -42q95 0 132 76q8 15 13 71q0 149 -234 290q-154 94 -248 182q-76 79 -76 177v26q0 137 139 248q112 63 219 63zM82 1112q0 -190 282 -340q116 -66 208 -155q68 -80 68 -177q0 -132 -105 -171q-27 -8 -55 -8h-6
q-115 0 -274 95q-56 29 -76 29h-16q-15 0 -24 -19v-21q0 -50 145 -121q212 -87 301 -87q140 0 229 108q21 39 21 79v8q0 3 3 3l-3 5v8q0 163 -292 430q-261 236 -261 340q0 96 145 179q40 13 63 13q77 0 153 -100q64 -58 124 -58h13q50 0 50 42q0 109 -256 174
q-78 13 -126 13q-244 0 -303 -205q-8 -58 -8 -64zM859 1149l-2 -5v-3q9 -34 34 -34h5q0 23 -37 42zM812 1123q14 -37 39 -37l6 8v3q-16 26 -43 26h-2zM770 1102v-3q0 -20 31 -26q3 5 3 8q0 13 -32 21h-2zM720 1076v-6q0 -11 42 -21h5v8q-18 19 -40 19h-7zM770 575
q11 -40 31 -40h3v5q0 22 -34 35zM817 335v-3q0 -22 29 -26q16 6 16 10v14h-13q-10 0 -24 10h-3q-5 -1 -5 -5zM822 248l-2 -13v-6q6 -15 21 -15h2q4 0 8 7q0 17 -18 27h-11zM809 195q5 -32 21 -32q6 14 8 14q0 9 -18 23h-6q-5 0 -5 -5zM772 124v-3q0 -26 16 -26l5 8v8
q0 14 -10 18h-5q-6 -1 -6 -5z" />
    <glyph glyph-name="T" unicode="T" horiz-adv-x="1149" 
d="M912 1427h21q82 0 110 -31q34 -70 34 -113v-15q0 -110 -262 -110q-92 -25 -136 -79q-47 -40 -47 -282v-2q0 -279 89 -570q8 -39 8 -73q0 -110 -63 -144q-12 -8 -34 -8h-23q-119 0 -178 180l-5 45q0 28 16 742q0 110 -155 157q-94 0 -188 94q-39 52 -39 78q0 61 125 87
q413 13 578 28q90 16 149 16zM389 1359l-10 -3v3l-5 -3h-47l-32 -2v2l-5 -2h-34q-136 -3 -165 -50v-10q15 -50 126 -50h13q28 0 73 3q84 0 149 -94q21 -48 21 -100q-16 -695 -16 -771q9 -157 63 -157h5q50 0 55 139q0 22 -29 267q-10 126 -13 303q0 271 26 319
q40 77 110 112q21 17 204 34q86 21 86 52v8q-20 37 -120 37q-343 -37 -455 -37zM993 1244v-8q7 -13 21 -13q1 0 10 3v8q-4 10 -18 10h-13zM577 1087v-10q4 -11 21 -16q12 5 13 11v7q-5 13 -26 13h-2q-6 0 -6 -5zM627 295v-5q11 -16 26 -16h8v11q-9 16 -23 16h-6q-5 -1 -5 -6
zM672 209v-3q0 -15 15 -26h3q8 3 8 16q0 8 -24 13h-2zM666 152v-6q0 -13 34 -23h6q5 0 5 5v3q-6 26 -34 26h-5q-6 -1 -6 -5z" />
    <glyph glyph-name="U" unicode="U" horiz-adv-x="1072" 
d="M774 1434h8q78 0 106 -95q26 -86 55 -321q64 -273 64 -406q0 -265 -207 -487q-133 -125 -265 -125h-16q-187 0 -366 244q-103 142 -103 374v23q0 107 56 631q37 98 122 98q56 -3 135 -61q40 -42 40 -119q0 -98 -69 -246q-64 -185 -64 -326v-30q0 -203 98 -262
q56 -34 111 -34h8q119 0 189 222q23 105 23 220q0 184 -63 512v32q0 112 82 145q33 11 56 11zM670 1299q0 -56 35 -255q21 -152 21 -275q0 -423 -186 -528q-43 -21 -82 -21h-21q-153 0 -236 244q-18 75 -18 151v3q0 179 111 546q0 16 3 39q0 115 -77 138h-3q-62 0 -98 -148
q-29 -263 -29 -443v-29q0 -604 379 -604q313 0 384 297q21 91 21 190v43q0 224 -90 641q-36 98 -71 98h-14q-29 -15 -29 -82v-5zM827 1336q0 -13 31 -21q6 2 8 2v8q-9 16 -31 16h-3q-5 -1 -5 -5zM843 1241v-8q9 -16 23 -16h3q14 0 21 10v11q-12 13 -32 13q-15 -5 -15 -10z
M848 1190v-5q2 -8 16 -8h18v5q-4 11 -18 11h-3zM344 1180q0 -16 19 -24h13v2q0 16 -16 27h-10q-6 -1 -6 -5zM304 1066q4 -11 14 -16h10q0 6 3 10q-6 21 -16 21q-11 -2 -11 -15zM869 1050v-6q7 -13 21 -13h6q3 0 8 8v5q0 8 -24 14q-11 -4 -11 -8zM291 1010v-3q6 -10 13 -10
q14 3 14 18v5q0 6 -6 6h-5q-16 0 -16 -16zM901 893l-3 -5v-5q18 -24 35 -24h5v10q-21 24 -37 24zM901 830v-8q12 -19 26 -19l3 5q-7 22 -24 22h-5zM911 758q8 -18 24 -18q22 5 22 18q0 14 -27 16h-3q-16 0 -16 -16zM925 657v-8q9 -15 24 -15q3 0 8 7v8q0 4 -14 14h-13
q-5 -1 -5 -6zM922 596q4 -13 19 -13h2q14 0 16 11q-5 16 -21 16t-16 -14zM927 559l-5 -8v-5q5 -24 13 -24h11q5 0 5 5v14q-10 18 -24 18zM909 482q3 -13 18 -13q14 2 14 8v11q-3 8 -16 8h-8q-6 0 -8 -14zM824 260v-8q0 -4 8 -8h11q13 7 13 21q0 4 -8 8h-3q-14 0 -21 -13z
" />
    <glyph glyph-name="V" unicode="V" horiz-adv-x="1066" 
d="M860 1434h16q73 0 113 -94q10 -27 10 -63v-11q0 -87 -81 -272q-99 -252 -173 -561q-37 -193 -50 -242q-78 -191 -241 -191h-24q-75 0 -152 157q-29 72 -71 341q-73 387 -157 747v29q11 118 79 118q28 5 89 5h10q81 0 97 -55q19 -59 19 -133v-3q-16 -212 -16 -273v-68
q0 -208 63 -349q22 -26 39 -26h13q61 0 95 223q36 157 73 537q33 104 102 145q87 39 147 39zM422 296q-62 0 -115 192q-97 283 -97 605l3 155q-15 118 -58 118q-5 2 -8 2q-60 -11 -60 -83q-3 0 -3 -21q0 -31 58 -302q94 -527 149 -716q55 -102 137 -102q90 0 165 178
q186 647 254 928v42q0 78 -71 95h-5q-100 0 -142 -215q0 -104 -81 -566q-64 -294 -94 -294q0 -9 -32 -16zM268 1313v-2q6 -26 26 -26q12 5 13 10v11q-7 13 -26 18q-12 -5 -13 -11zM918 1292q18 -36 50 -36h5q13 0 16 8v5q-6 0 -66 29q-5 -1 -5 -6zM270 1269v-8q0 -14 16 -24
h13q6 0 8 13q-8 19 -26 19h-11zM894 1245q10 -23 32 -23q13 2 13 8q-7 31 -32 31h-2q-11 -5 -11 -16zM260 1209q6 -16 23 -16q11 0 16 10v3q-7 13 -21 13h-3q-13 0 -15 -10zM881 1195q8 -18 26 -18q16 3 16 13t-26 19q-11 0 -16 -14zM262 1169q6 -16 21 -16h3q5 0 5 6v2
q-9 16 -23 16q-6 0 -6 -8zM873 1161v-10q10 -19 26 -21l3 5q-11 26 -29 26zM262 1122v-5q0 -19 19 -19h10l3 11q-8 18 -26 18q-6 -1 -6 -5zM857 1106v-5q5 -10 19 -10h5q16 0 16 15q-10 8 -19 8h-13q-3 0 -8 -8zM857 1075l-5 -8v-11q9 -18 24 -18q5 0 10 16q0 18 -29 21z
M260 1059q3 -10 23 -10q11 4 11 7v3q-4 11 -19 11h-5q-4 0 -10 -11zM829 1009q5 -15 21 -15h2q16 0 16 15q-7 13 -21 13h-8q-10 -5 -10 -13zM818 967v-2q9 -16 24 -16h5q5 0 5 5v8q-7 13 -21 13h-5q-4 0 -8 -8zM257 923q0 -4 8 -8h3q21 0 21 21q0 6 -14 8q-18 -5 -18 -21z
M784 920v-2q44 -21 50 -21l13 2v13q-27 24 -50 24q-3 0 -13 -16zM797 878l-5 -8v-8q0 -20 23 -20h3q5 0 5 5v5q-3 26 -26 26zM763 768v-8q4 -10 18 -10q11 0 21 15v11q0 4 -13 13h-5q-21 0 -21 -21zM753 724v-6q0 -4 18 -10q16 3 16 8v5q-4 10 -24 10q-10 -4 -10 -7z
M698 561v-5q4 -11 18 -11t18 11v10q-2 8 -15 8q-15 0 -21 -13zM632 301l-5 -10q0 -17 23 -21q6 0 6 5q-5 26 -24 26zM619 246v-7q1 -6 23 -16q11 4 11 8q-4 23 -24 23q-10 -4 -10 -8zM614 207l-3 -5q12 -24 29 -24h5v3q0 22 -31 26zM606 163v-14q3 -23 23 -23q13 3 13 18
q0 21 -28 26q-4 0 -8 -7z" />
    <glyph glyph-name="W" unicode="W" horiz-adv-x="1379" 
d="M1122 1430q107 0 177 -84q12 -33 12 -64q0 -87 -89 -292q-57 -154 -105 -420q-26 -156 -44 -409q-39 -153 -117 -153h-23q-73 0 -156 64q-58 54 -90 189q-31 156 -61 156h-5q-40 0 -57 -225q-17 -74 -43 -108q-52 -84 -146 -84h-38q-102 0 -126 72q-51 142 -51 263
q-25 203 -115 826q-5 27 -5 46q7 130 100 167q26 7 53 7h13q92 0 131 -53q13 -26 13 -77q0 -56 -52 -304q-18 -127 -18 -213q0 -199 49 -225q5 -2 10 -2h3q43 0 59 161q65 184 232 184h36q97 0 131 -82q10 -26 28 -166q11 -28 25 -28q38 0 98 463q25 201 36 261
q47 130 135 130zM820 327q-51 0 -92 241q-32 177 -69 212q-31 33 -66 39q-93 0 -159 -151q-12 -31 -49 -269q-21 -97 -69 -97q-71 0 -97 230q-18 96 -18 251v69q0 136 23 373q0 84 -46 118q-13 8 -25 8q-54 0 -75 -95q-5 -20 -7 -66q84 -670 130 -934q45 -118 115 -118
q74 0 133 138q49 181 80 274q29 49 53 49h11q53 0 92 -213q33 -151 79 -199q39 -44 69 -44h13q64 0 110 146q48 279 133 624q77 302 77 374v7q-8 103 -52 103h-5q-65 0 -105 -174q-71 -556 -143 -860q-21 -36 -41 -36zM1242 1358v-10q12 -36 34 -36q5 0 5 5q0 20 -28 41h-11
zM1227 1302q26 -37 26 -51l-6 -3h-5l-20 23v-2q9 -39 36 -39q20 7 20 26q0 33 -46 51q-5 -1 -5 -5zM278 1220q7 -20 23 -20q5 6 5 10q0 10 -23 15q-5 0 -5 -5zM1201 1213q0 -22 34 -29q10 3 10 11q-12 23 -31 23h-7q-6 -1 -6 -5zM268 1187l-3 -10q2 -10 21 -18q5 2 7 2v3
q-3 23 -23 23h-2zM1189 1164v-10q3 -23 23 -23q5 1 10 12q0 18 -23 29q-10 -4 -10 -8zM1186 1115v-2q13 -26 21 -28h7v2q0 11 -25 28h-3zM247 1085q0 -7 21 -11q10 0 15 11v5q0 4 -10 10h-10q-16 0 -16 -15zM1168 1077l-2 -13q0 -18 20 -28q3 5 3 8q0 22 -13 33h-8z
M242 1044v-5q3 -11 26 -11q11 5 12 11v2q-4 10 -17 10h-6q-15 -1 -15 -7zM1155 1016v-6q3 -19 11 -20q15 0 15 15v8q-4 10 -18 10q-4 0 -8 -7zM1153 972v-2q0 -10 15 -31v-5q0 -6 -18 -11q-11 4 -20 11v-3q1 -16 15 -31h13q15 11 20 23v16q-23 30 -23 33h-2zM237 967v-10
q4 -10 18 -10h2q4 0 8 7v3q-6 13 -20 13q-5 -3 -8 -3zM1109 824v-3q0 -18 18 -18q12 5 13 10v8q-4 10 -18 10q-13 -1 -13 -7zM718 773q41 -29 54 -29v3q-20 31 -49 31q-5 -1 -5 -5zM743 729v-8q0 -20 24 -20q7 0 7 10q-7 18 -23 18h-8zM1050 540v-8q0 -13 16 -25h5v2
q0 15 -18 31h-3zM1038 486v-13q0 -4 10 -10h13q3 0 7 8v5q-6 13 -23 13q-5 -3 -7 -3zM1022 394q3 -21 23 -21h11v11q-11 15 -26 15h-3q-5 -1 -5 -5zM1015 353v-3q0 -14 15 -23h10q5 0 5 6v10q-10 15 -25 15q-5 -1 -5 -5zM521 340q-3 -5 -3 -7q0 -4 8 -21h13l2 10
q-5 18 -20 18zM1007 310v-3q0 -20 26 -23h2v3q-3 23 -23 23h-5zM490 266v-10q0 -5 18 -16h5q5 0 5 6q0 20 -20 20h-8zM997 207v-10q6 -13 20 -13h5v8q-9 15 -23 15h-2zM480 187v-5q7 -13 20 -13h8q5 0 5 5v5q-9 15 -23 15q-10 -3 -10 -7zM999 169v-3q0 -12 21 -30h5v12
q-15 21 -26 21zM470 153v-10q13 -18 23 -18q11 5 13 11v2q-10 15 -31 15h-5zM989 120q0 -23 28 -36l5 8v3q0 17 -23 30h-5q-5 0 -5 -5zM460 110v-8q8 -15 23 -15h10v10q-10 13 -23 13h-10z" />
    <glyph glyph-name="X" unicode="X" horiz-adv-x="1009" 
d="M272 1430q111 0 162 -198q23 -230 75 -230q48 0 105 184q49 148 159 215q31 13 64 17q69 0 90 -56q3 0 3 -25q-18 10 -27 10q-5 -3 -7 -3v-7q4 -24 24 -24q10 2 10 9h5q0 -86 -105 -185q-194 -236 -194 -365v-2q0 -75 108 -254q26 -55 186 -357q7 -25 10 -56
q-12 -103 -88 -103q-116 0 -196 210q-42 166 -100 308q-28 49 -61 49q-57 0 -103 -169q-68 -213 -95 -244q-75 -112 -149 -112h-5q-86 0 -103 117v10q0 71 81 185q168 284 193 333q27 81 27 154q0 91 -83 242q-81 167 -81 198v27q0 84 71 117q11 5 24 5zM194 1342
q0 -81 108 -286q70 -151 70 -215v-12q0 -134 -100 -264q-186 -283 -186 -355v-12q0 -38 32 -44h8q56 0 132 127q94 284 134 355q34 34 61 34h12q72 0 130 -188q34 -84 78 -242q51 -125 86 -125h12q24 13 24 51v15q0 93 -195 457q-30 68 -30 149q0 104 81 227l152 277
q14 37 14 63q0 30 -27 30q-61 -12 -124 -130q-90 -252 -127 -328q-29 -36 -66 -36h-3q-66 0 -112 188q-12 35 -61 220q-44 93 -74 93q-25 0 -29 -49zM343 1340q0 -4 32 -20l2 -12q0 -5 -7 -5q-12 7 -20 7v-2q0 -12 27 -20h3q19 0 19 20q-13 32 -46 32h-10zM864 1303v-5
q5 -12 27 -12q7 2 9 10q0 9 -17 22h-12q-7 -3 -7 -15zM854 1274l-5 -8v-5q0 -19 20 -19h5v10q0 19 -20 22zM363 1271q0 -2 -3 -2q0 -6 25 -22v-5q0 -5 -5 -5h-8l-17 5l-2 -5q0 -34 34 -34h3q13 0 19 12v7q0 25 -46 49zM820 1225q5 -15 19 -15q10 4 10 7v10q-4 10 -17 10
q-6 0 -12 -12zM402 1068v-5q0 -17 17 -17q12 0 12 15v7q-4 0 -10 5h-14q-5 -1 -5 -5z" />
    <glyph glyph-name="Y" unicode="Y" horiz-adv-x="936" 
d="M786 1434q82 0 82 -62q0 -70 -122 -241q-162 -296 -206 -572q-28 -111 -55 -383q-18 -77 -77 -136q-47 -40 -90 -40h-10q-90 0 -126 104l-3 30v18q0 25 70 233q119 402 119 455v22h5q3 -52 5 -62q0 -72 -102 -410q-59 -189 -59 -231v-5q0 -47 32 -47q89 0 132 296
q76 327 174 556q60 140 169 353q12 37 12 60q0 27 -22 27q-69 -23 -102 -82q-35 -48 -70 -199q-31 -74 -89 -74q-73 0 -140 132q-118 196 -198 196q-21 0 -28 -30v-10q0 -63 132 -209q142 -153 142 -213q-26 48 -95 129q-216 221 -216 276v5q0 61 87 74q64 0 157 -59
q98 -86 121 -162q17 -30 53 -30q62 0 96 134q47 110 120 145q45 12 102 12zM276 1312v-5q0 -9 35 -20h10v3q0 14 -40 22h-5zM599 994l-2 -5v-7q3 -25 22 -25l3 5v7q-4 25 -23 25zM485 654q5 -13 20 -13q11 5 12 10q0 4 -10 10h-15q-3 0 -7 -7zM472 579q6 -17 23 -17l7 10v7
q-6 12 -20 12h-2q-6 0 -8 -12zM468 549v-7q16 -20 27 -20v5q-12 19 -27 22zM448 472q4 -10 17 -10h10q5 0 5 5v3q-3 7 -15 7h-12q-5 -1 -5 -5zM448 440v-8q0 -6 20 -10h9v5q-6 13 -19 13h-10zM428 348v-10q11 -20 27 -20q5 0 5 8q-12 22 -30 22h-2zM418 306v-5
q10 -15 25 -15h7v2q0 12 -25 18h-7zM418 276q0 -3 -3 -3q0 -12 30 -20h5v5q-11 18 -32 18zM408 226q5 -12 20 -12h2q13 0 15 7v8q-4 10 -17 10h-10q-10 -6 -10 -13zM395 174v-5q9 -15 30 -15h3v3q-11 17 -28 17h-5zM398 139l-3 -5q0 -11 30 -20l3 5q0 12 -30 20zM386 102
q4 -22 24 -22h10v9q0 9 -27 13h-7z" />
    <glyph glyph-name="Z" unicode="Z" horiz-adv-x="1124" 
d="M867 1427q107 0 167 -140q7 -18 7 -49q0 -133 -137 -235q-271 -238 -336 -346q-68 -89 -122 -203q-35 -73 -35 -106v-10q0 -72 91 -85h12q15 0 226 36q13 0 22 3q113 0 184 -66q27 -30 27 -67q0 -88 -147 -117l-420 -40q-32 -2 -54 -2q-188 0 -260 140l-2 14v23
q0 92 127 267q311 449 434 689q5 27 5 37q-9 71 -71 71h-10q-17 0 -228 -59q-24 -3 -36 -3h-10q-70 0 -128 160v7q0 48 94 71l36 5q209 -10 329 -10q96 0 235 15zM200 1334q0 -41 103 -47q24 0 263 39q63 5 73 5q91 -11 91 -85q0 -44 -81 -172q-169 -285 -478 -745
q-54 -96 -54 -160q0 -71 142 -71l324 27q210 0 255 64q7 9 7 22q-12 51 -98 51h-20q-37 0 -380 -71q-83 10 -83 66v10q0 71 223 442q91 143 258 336q154 153 171 225l5 37q0 64 -142 83h-103q-135 0 -351 3q-125 -15 -125 -59zM975 1182v-3q0 -20 34 -29h3v7q-15 25 -32 25
h-5zM951 1157v-2q0 -21 31 -30h5v10q-15 22 -31 22h-5zM909 1121q12 -23 32 -23q9 0 15 8q0 15 -30 22h-10q-3 0 -7 -7zM894 1101q0 -3 -2 -3q13 -27 32 -27h2v10q0 10 -32 20zM850 1086q-2 -5 -2 -7q11 -22 29 -22h10v2q-8 27 -37 27zM794 1018v-3q5 -24 22 -24l2 4
q-7 23 -24 23zM759 995q-2 -4 -2 -7q9 -20 24 -20h5v3q0 20 -27 24zM740 959v-5q0 -8 22 -12q5 2 7 2v10q0 6 -19 12q-10 -4 -10 -7zM708 937q8 -22 27 -22v2q0 13 -15 22h-7zM688 912v-12q4 -10 17 -10h5q5 0 5 5v5q-6 12 -19 12h-8zM335 333q0 -3 10 -9h7q4 0 8 7v10
q0 3 -8 7h-9q-8 -2 -8 -15zM902 113v-5q5 -12 19 -22h5q0 13 -20 27h-4z" />
    <glyph glyph-name="bracketleft" unicode="[" horiz-adv-x="758" 
 />
    <glyph glyph-name="backslash" unicode="\" horiz-adv-x="569" 
 />
    <glyph glyph-name="bracketright" unicode="]" horiz-adv-x="758" 
 />
    <glyph glyph-name="asciicircum" unicode="^" 
 />
    <glyph glyph-name="underscore" unicode="_" horiz-adv-x="1024" 
 />
    <glyph glyph-name="grave" unicode="`" horiz-adv-x="1024" 
 />
    <glyph glyph-name="a" unicode="a" horiz-adv-x="990" 
d="M689 1431q200 -6 200 -51q19 -39 19 -132q-14 -218 -14 -292v-86q0 -191 44 -716v-17q-21 -137 -110 -137q-83 0 -161 90q-24 38 -24 68v15q0 55 44 254v14q0 99 -93 154q-24 7 -46 10q-95 0 -137 -122q-35 -298 -54 -298q-50 -100 -117 -100h-7q-128 0 -156 49
q-17 30 -17 81q0 79 98 302q175 444 299 795q81 119 232 119zM106 278q8 -85 56 -85h17q68 0 113 126q52 325 80 325q47 61 117 61h22q78 -7 137 -44q75 -68 75 -161v-3q0 -13 -36 -229v-14q0 -110 75 -137l17 -2q51 0 68 92q3 2 3 22q-7 186 -12 917q0 156 -47 195
q-53 56 -124 56q-116 0 -200 -134q-93 -259 -295 -766q-66 -170 -66 -219zM618 1287h10q66 0 100 -141q22 -190 22 -239v-3q0 -86 -95 -109h-25q-82 0 -146 70q-32 51 -32 93v20q0 27 47 187q60 122 119 122zM545 958v-24q0 -95 95 -112h5q48 0 71 63q5 19 5 41
q-20 269 -66 269q-37 0 -98 -164q-12 -47 -12 -73zM335 363l-2 -5v-7q0 -13 15 -24v9q-4 27 -13 27zM882 258q0 -19 17 -22q11 5 12 10q0 13 -12 20h-10q-4 0 -7 -8z" />
    <glyph glyph-name="b" unicode="b" horiz-adv-x="732" 
d="M294 1430q184 0 316 -154q71 -95 71 -205q0 -154 -115 -256q-15 -26 -19 -67q0 -71 79 -177q41 -76 41 -189q0 -259 -242 -357q-83 -25 -140 -25h-21q-80 0 -159 48q-48 68 -48 191q0 174 2 258q-2 326 -9 689q0 83 64 177q55 67 180 67zM78 783v-124q0 -433 11 -433
q27 -75 85 -106q29 -14 51 -14h12q160 0 276 127q71 94 71 218q0 134 -92 231q-49 61 -103 80q-5 0 -5 5v2q0 22 131 129q85 100 85 198v23q0 108 -147 240q-58 46 -138 46h-12q-125 0 -172 -90q-51 -61 -51 -228q-2 -159 -2 -304zM356 1260h3q89 0 133 -152l5 -42
q0 -101 -122 -161q-31 -14 -56 -14q-69 0 -101 97l-7 41q7 103 21 132q49 99 124 99zM273 1204q0 -4 -2 -4q5 -14 23 -28h7v7q-4 25 -25 25h-3zM315 1055v-14q0 -75 67 -92q46 0 78 80v12q0 66 -83 101q-2 0 -14 2q-35 0 -44 -57q-4 -17 -4 -32zM257 1103q0 -18 19 -18
q12 0 18 16q-4 11 -18 11h-3q-12 0 -16 -9zM246 725q63 -3 147 -64q92 -90 92 -221q0 -157 -129 -237q-20 -5 -30 -5h-2q-77 0 -124 120q-23 143 -42 306q12 101 88 101zM200 668v-5q8 -14 20 -14h10v5q0 7 -26 14h-4zM195 615q4 -12 18 -12h3q16 0 18 14q-9 7 -21 7h-2
q-12 0 -16 -9zM269 495q12 -168 27 -168q32 -62 72 -62h7q56 0 78 136q2 13 2 37q0 121 -113 184q-4 2 -9 2h-7q-46 0 -57 -129zM596 548v-18l2 -12h7q5 0 5 5v7q0 12 -10 18h-4zM202 534v-7q8 -13 37 -13l4 6v3q0 9 -32 20q-3 0 -9 -9zM213 412v-2q3 -7 14 -7h3l11 2v7
q-4 9 -16 9h-2q-4 0 -10 -9zM600 339v-7q0 -19 19 -19q3 0 7 7v2q0 23 -16 23q-10 -3 -10 -6zM225 332q0 -8 18 -14q12 3 12 7q-2 18 -18 18q-7 0 -12 -11zM225 286v-3q0 -12 12 -18h11q3 0 7 7v9q0 6 -18 9h-7q-5 -1 -5 -4zM575 272v-5q3 -23 21 -23h2q3 0 7 7
q-11 21 -28 21h-2zM241 233h7q9 -4 9 -17v-4q-3 -9 -16 -9q-6 0 -11 11q0 12 11 19zM550 221v-9q0 -19 18 -19h5q18 0 18 17v4q-11 16 -27 16q-14 -5 -14 -9zM527 180v-7q10 0 13 -16l-6 -5q-7 0 -14 5v-3q7 -11 7 -18v-2q0 -4 -7 -7q-4 0 -28 18q0 -7 -2 -7q5 -34 25 -34
q44 17 44 53v6q-3 24 -21 24h-4q-4 0 -7 -7zM458 115v-9q4 -8 13 -12l5 7v10q0 11 -7 13h-2q-4 0 -9 -9z" />
    <glyph glyph-name="c" unicode="c" horiz-adv-x="748" 
d="M400 1430q137 0 243 -153q27 -57 27 -107q0 -92 -114 -124h-5q-45 0 -83 61q-7 9 -12 61q-18 36 -41 36h-5q-66 0 -126 -349q-12 -102 -12 -185v-12q0 -294 114 -369q34 -20 60 -20q60 30 66 30q17 4 29 4h19q100 -15 100 -94v-20q0 -90 -95 -155q-86 -34 -133 -34h-3
q-124 0 -230 131q-129 232 -129 522q0 258 85 534q60 171 146 221q61 21 99 22zM99 619v-5l3 -12h-3q3 -5 3 -7q0 -211 82 -379q79 -104 219 -104q87 0 148 80q9 16 9 34q0 20 -26 22q-104 -25 -139 -25h-7q-123 0 -175 202q-26 124 -26 243v60q0 280 99 479q43 72 124 72
q70 0 85 -75q14 -24 29 -24h7q39 0 49 65v5q0 101 -146 141q-24 3 -36 3h-15q-193 0 -262 -462q-22 -125 -22 -313zM590 1175v-7q0 -16 19 -29h5v2q-11 34 -24 34zM558 1144q0 -15 19 -30h5v5q-5 25 -24 25zM298 1129q4 -17 10 -17h5q3 0 7 10q0 12 -12 19h-2q-5 0 -8 -12z
M259 1008q5 -15 15 -15q12 3 12 17q-3 12 -17 12q-10 -2 -10 -14zM228 864q5 -13 14 -17h10q7 3 7 15q-7 17 -21 17q-10 -3 -10 -15z" />
    <glyph glyph-name="d" unicode="d" horiz-adv-x="880" 
d="M208 1434h8q85 -6 257 -120q211 -150 284 -352q53 -157 53 -339q-16 -465 -288 -587q-33 -22 -250 -36q-130 0 -161 54q-46 86 -46 237q0 67 -5 776v7q0 253 13 253q46 107 135 107zM86 847v-145q0 -467 20 -467q56 -133 163 -133q210 0 345 204q102 164 102 391
q0 316 -202 535q-150 139 -260 159q0 2 -23 5q-97 0 -135 -118q-8 -8 -10 -431zM353 1222q69 0 156 -110q77 -115 77 -280q0 -279 -179 -508q-85 -92 -138 -92h-2q-81 0 -105 115q0 2 -2 20q53 540 66 733q42 122 127 122zM279 1158q-2 -5 -2 -7q18 -36 36 -36v5
q-11 38 -34 38zM274 1095v-3q0 -20 34 -31q3 1 12 11q-14 30 -35 30q-11 -4 -11 -7zM262 388q0 -70 48 -79h5q65 0 169 196q74 156 74 312q0 187 -110 273l-13 2q-36 0 -82 -115q-45 -170 -91 -589zM267 1033q13 -28 30 -28q2 0 11 3v13q-15 20 -31 20h-5q-5 0 -5 -8z
M254 982v-10q13 -20 28 -20h3q4 0 10 10q0 20 -28 25h-8q-5 0 -5 -5zM251 919q0 -11 23 -16h5l13 3v10q0 7 -20 10h-13q-4 0 -8 -7zM246 868v-6q7 -12 21 -12h5q4 0 10 10v5q0 7 -20 10q-16 -1 -16 -7zM241 819v-8q0 -6 21 -12q10 3 10 7q0 21 -21 21q-10 -4 -10 -8z
M218 755q2 -12 38 -43q6 0 6 5v3q-23 17 -23 20v5q0 4 10 10l18 -2v2q-15 21 -28 21q-21 -2 -21 -21zM734 505q9 -7 17 -7q14 0 16 7v8q0 4 -8 8h-10q-15 0 -15 -16zM718 454v-2q16 -16 16 -26q0 -13 -8 -15q-14 2 -20 2q-6 -8 -6 -15q6 -18 21 -18q25 0 33 44v5
q0 30 -25 30h-6q-5 -1 -5 -5zM690 360q5 -26 21 -26q5 3 7 3v10q0 20 -20 20h-3q-5 0 -5 -7zM677 324v-8q21 -21 21 -25q-4 -13 -18 -13q-13 8 -20 8h-3q-4 0 -8 -8v-2q6 -28 26 -28h5q36 11 36 33q-18 43 -39 43zM619 227q8 -20 23 -20q11 0 18 15q-6 26 -26 26
q-15 -6 -15 -21zM593 209v-7q0 -17 21 -28h2q5 0 5 5v5q0 20 -15 30h-8q-5 0 -5 -5zM570 181v-5q8 -28 16 -28h5v3q-8 30 -21 30zM504 107q10 -20 25 -20q6 0 6 5v10q0 13 -16 23q-15 -6 -15 -18zM461 97v-5q0 -13 12 -18h5q6 0 6 5v5q0 14 -11 21h-5q-3 0 -7 -8z" />
    <glyph glyph-name="e" unicode="e" horiz-adv-x="932" 
d="M659 1430q151 -11 166 -51q18 -26 18 -56q0 -82 -92 -112q-82 -33 -202 -33q-41 0 -124 -62q-69 -66 -69 -145v-2q0 -103 104 -135q43 0 89 -29q62 -62 62 -127v-10q0 -67 -130 -94q-108 0 -141 -49q-53 -57 -53 -138q0 -84 79 -122q28 -13 59 -13q119 13 175 13h31
q76 0 94 -61q8 -35 8 -54q0 -99 -191 -137q-166 -13 -281 -13q-162 0 -186 69q-15 67 -15 137q33 439 54 1046q0 56 76 127q45 38 184 38q253 13 285 13zM96 283q0 -88 97 -148q20 -13 66 -18q287 10 316 33q56 17 56 44v5q-22 30 -66 30h-26q-20 0 -219 -23h-3
q-41 0 -76 26q0 -8 -10 -13h-8q-20 0 -20 21v5q4 10 15 10q-28 37 -28 81q18 232 38 232q52 100 128 100h46q65 0 94 58l2 13q-13 44 -79 44h-25q-4 0 -61 -6q-85 0 -100 153v174q0 135 158 176q21 5 44 5h33q17 0 30 -3q171 0 171 54q-16 58 -86 58q-337 -7 -337 -25
q-110 -45 -110 -204q0 -64 -40 -857v-25zM758 1325q9 -20 26 -20h8q3 0 7 8q0 19 -25 23h-8q-6 0 -8 -11zM297 1216v-3q0 -21 28 -33l5 8q-11 33 -23 33h-5q-5 -1 -5 -5zM289 1152q15 -25 31 -25h10v7q0 21 -33 28q-6 0 -8 -10zM282 1104q13 -28 33 -28h5q0 5 3 5
q-13 28 -34 28h-2q-5 -1 -5 -5zM282 1048v-5q10 -16 25 -16h8v3q-4 23 -26 23h-2q-5 -1 -5 -5zM279 992q0 -10 18 -23h13q0 2 2 7q-3 26 -23 26q-8 -3 -10 -10zM279 933q4 -13 18 -13h5q4 0 8 8v5q0 4 -10 10h-5q-13 0 -16 -10zM269 892v-5q0 -8 23 -8q5 3 8 3v8
q-5 10 -18 10q-13 -2 -13 -8zM264 836q3 -10 13 -15h12q4 0 11 10v10q-5 10 -18 10h-5q-13 -6 -13 -15zM544 729v-8q0 -16 21 -23q5 3 7 3v3q0 17 -20 28q-5 -3 -8 -3zM226 250q0 -4 15 -15v5q0 4 -10 10h-5z" />
    <glyph glyph-name="f" unicode="f" horiz-adv-x="962" 
d="M649 1430q101 0 200 -69q44 -41 44 -85q0 -76 -136 -118q-29 -7 -74 -7h-144q-127 0 -202 -98q-18 -29 -18 -61v-3q0 -90 131 -105q215 0 253 -61q41 -41 41 -87v-16q0 -65 -136 -97q-30 -5 -43 -5q-47 2 -80 2q-2 0 -7 3q-107 0 -146 -131q-5 -24 -5 -38
q12 -214 12 -231q0 -102 -69 -192q-31 -31 -66 -31q-95 0 -139 172q-5 33 -5 43q33 592 33 864v187q0 99 113 146q27 8 54 8q125 0 389 10zM291 1386q-79 0 -141 -84q-31 -26 -31 -251q-26 -689 -26 -818q11 -110 54 -110h8q45 0 59 128q0 14 2 49q-15 247 -15 284
q13 77 28 77q48 59 110 59q39 -2 64 -2h8q121 0 154 64v15q0 40 -103 49h-15l-97 -11h-6q-87 0 -120 98q-5 19 -5 36v2q0 210 64 246q51 49 113 49h7l200 -23q113 0 157 67l2 15q0 52 -141 67q-158 -6 -330 -6zM813 1307q0 -1 -2 -10q9 -23 28 -23h5q5 0 5 5v7
q-10 21 -25 21h-11zM798 1269q7 -31 31 -31v2q0 21 -28 29h-3zM796 1215v-11q16 -5 23 -5h2q13 0 16 8v5q-17 5 -24 5h-5zM291 1194v-10q1 -15 7 -15h5q4 0 8 7q-5 23 -13 23h-2q-5 0 -5 -5zM268 1135q0 -16 23 -20q7 2 10 10q-5 18 -21 18h-5q-2 0 -7 -8zM262 1076v-5
q0 -13 13 -18h16q3 0 7 8q-9 15 -23 15h-13zM255 1015v-5q0 -18 18 -18q13 4 13 15q-6 16 -21 16h-3q-3 0 -7 -8zM672 812v-5q0 -18 31 -33q5 3 8 3v2q0 24 -36 33h-3zM619 787v-3q0 -7 23 -13l13 3v8q-7 12 -21 12h-8q-3 0 -7 -7zM616 746v-5q20 -21 49 -21v3
q-22 23 -39 23h-10zM608 689q0 -24 36 -28h13q5 0 5 5v3q0 24 -38 36q-16 0 -16 -16zM221 641q31 -22 31 -31h13q5 0 5 5v13q-23 28 -41 28q-8 -3 -8 -15zM242 554q4 -24 23 -24q10 5 10 18q0 18 -18 26q-15 -5 -15 -20zM247 495v-3q0 -20 28 -26h5q8 0 8 11q-12 23 -28 23
h-8q-5 -1 -5 -5zM255 441v-5q11 -34 23 -34h2v3q0 13 -20 36h-5zM268 377v-8q0 -23 20 -23h5q0 5 3 5q-7 26 -26 26h-2zM252 318q12 -23 31 -23l3 5q-8 23 -26 23h-3q-5 -1 -5 -5zM265 264v-10q0 -21 21 -23q3 0 7 7v8q-8 18 -23 18h-5zM270 190q5 -15 18 -21h10q5 0 5 5v8
q-13 18 -23 18q-10 -3 -10 -10z" />
    <glyph glyph-name="g" unicode="g" horiz-adv-x="1009" 
d="M491 1427q159 0 328 -118q121 -102 121 -189q0 -94 -144 -119q-62 0 -121 95q-11 38 -11 42q3 5 3 8q-9 39 -60 39h-16q-151 0 -234 -360q-26 -96 -26 -192v-36q0 -197 76 -255q56 -40 95 -40h2q78 0 95 126v3q-8 79 -50 79q-53 46 -53 113v31q0 87 111 100h8
q74 0 202 -94q87 -83 87 -176q0 -185 -124 -371q-96 -113 -294 -113q-282 0 -392 371q-34 142 -34 286q0 383 184 644q105 126 247 126zM92 636v-13q7 -401 207 -518q62 -34 139 -34q229 0 297 273q27 117 27 176v16q0 111 -98 174q-38 13 -60 13q-62 0 -79 -69v-13
q0 -36 55 -44q43 2 48 2q42 -23 42 -87v-7q0 -107 -113 -224q-56 -39 -105 -39h-6q-165 0 -207 226q-11 49 -11 121v10q0 277 134 552q77 150 195 150h18q93 0 160 -134q9 -5 14 -5q18 7 18 26v24q0 75 -92 139q-83 42 -173 42q-234 0 -334 -305q-76 -213 -76 -452z
M825 1233v-8q14 -48 39 -48h8q4 0 8 8v16q-16 30 -45 39q-10 -4 -10 -7zM407 1146v-11q0 -4 10 -10h14q3 0 7 8v13q0 14 -10 18h-11q-10 -4 -10 -18zM814 1127q7 -34 32 -34h8q10 6 10 16q-8 39 -31 39q-19 0 -19 -21zM375 1096v-3q0 -18 19 -18q23 3 23 24q-6 13 -21 13
q-12 0 -21 -16zM775 1106l-3 -5q0 -27 50 -39v2q0 23 -47 42zM741 1056q22 -17 50 -21q5 3 7 3v8q-27 16 -52 16q-5 -1 -5 -6zM352 1035q9 -7 18 -7h3q21 0 21 18q-8 13 -19 13q-23 -3 -23 -24zM331 978v-3q4 -11 18 -11q26 4 26 24q-5 12 -10 13h-11q-23 -3 -23 -23z
M302 870v-5q0 -14 13 -19q15 0 29 19v7q-4 24 -21 24q-21 -7 -21 -26zM289 778v-8q8 -29 15 -29q16 0 16 16v2q-13 19 -29 19h-2zM278 662v-10q3 -8 16 -8h8q6 0 8 13q-7 16 -19 16q-12 -5 -13 -11zM273 602v-5q2 -16 8 -16h8q18 0 18 16q-4 13 -18 13q-16 -2 -16 -8z
M809 539q-5 -7 -5 -11q0 -19 26 -39h13q0 3 3 8q-13 42 -37 42zM278 494v-10q0 -5 11 -11h10q4 0 8 11q-6 16 -16 18q-13 -3 -13 -8zM806 465q-2 -5 -2 -8q10 -23 26 -23h3q5 0 5 5q-12 26 -32 26zM793 405v-6q4 -26 24 -26h2q5 0 11 11v5q-3 24 -24 24h-5q-4 0 -8 -8z
M783 355v-13q6 -13 21 -24q5 0 5 8q0 19 -26 29zM772 300l-2 -11q8 -21 31 -21q8 0 8 11q-10 21 -26 21h-11zM754 234q2 -9 16 -16q15 0 15 16q-5 16 -21 16q-10 -3 -10 -16zM728 189q5 -16 10 -16h13q16 7 16 21q0 7 -21 14q-12 -3 -18 -19z" />
    <glyph glyph-name="h" unicode="h" horiz-adv-x="859" 
d="M619 1430h9q80 0 106 -187v-12q-5 -180 -5 -242v-4q0 -13 3 -37h-3q3 -5 3 -8q0 -184 66 -731q-13 -101 -29 -101q-41 -71 -104 -71h-5q-104 0 -133 212v132q0 143 -68 173q-9 5 -20 5h-5q-82 0 -111 -123v-27l17 -190v-17q0 -104 -68 -177q-27 -25 -60 -25h-12
q-96 0 -145 180q-5 31 -5 42q0 61 12 403h3q0 3 -3 3l3 9q12 324 12 517v40q0 96 76 142q19 8 32 8q56 0 99 -96q22 -73 22 -131v-9q0 -37 -7 -187h-3q0 -84 64 -116q19 -5 35 -5q87 0 135 111q10 38 10 61q-20 240 -20 296q0 98 71 155q17 7 28 7zM545 1255l24 -317
q0 -88 -110 -150q-31 -18 -155 -40q-101 0 -119 131q13 167 20 297q-7 141 -42 141h-5q-40 0 -51 -141q-8 -341 -30 -910q13 -143 79 -143q76 23 76 138q0 15 -39 231q0 99 108 160q49 17 111 17q90 0 138 -105q7 -30 7 -42q-7 -190 -7 -232q7 -127 71 -150h15q24 0 47 47
q17 44 17 91v15q-64 646 -64 876q0 3 -3 25h3l-3 5v22q0 137 -42 175h-9q-37 -32 -37 -141zM678 1314v-5q0 -3 12 -9h17v2q0 20 -20 20h-2q-4 0 -7 -8zM680 1253q7 -17 25 -17q12 0 12 14q-7 18 -22 18h-5q-10 -5 -10 -15zM675 1211v-7q0 -11 25 -18h2q4 0 8 8v5
q-6 11 -18 17h-12q-5 -1 -5 -5zM252 1199v-8q6 -15 20 -15h2q4 0 7 10q-7 18 -24 18q-5 -1 -5 -5zM680 1172l-2 -5q0 -21 14 -32q10 2 10 14q-4 23 -22 23zM242 1049v-13q6 -13 15 -15q5 3 7 3v5q0 20 -20 20h-2zM670 997v-5q0 -15 13 -15q9 3 9 15l-2 12h-12q-4 0 -8 -7z
M235 970l-3 -5v-3q0 -13 12 -19h5q5 0 5 5v2q0 20 -19 20zM242 529v-2q9 -30 25 -30v5q0 18 -25 27zM235 482v-2q11 -22 27 -22h5q5 0 5 5q0 11 -32 19h-5zM244 426q-2 -5 -2 -8q11 -22 30 -22h4q4 0 8 8q0 14 -40 22zM257 377v-3q14 -32 22 -32v5q0 16 -20 30h-2zM272 315
l-3 -5v-5q11 -19 27 -19q5 0 5 4q-11 25 -29 25zM729 271v-3l35 -39h2q5 0 5 7q0 17 -42 35zM276 254q0 -16 18 -28h10v5q0 14 -15 23h-13zM281 187v-5q0 -6 20 -10q15 0 15 10q-2 7 -12 12h-15q-4 0 -8 -7zM751 140v-5q0 -17 18 -17h2q8 3 8 15q-4 10 -18 10z" />
    <glyph glyph-name="i" unicode="i" horiz-adv-x="413" 
d="M224 1430h2q57 0 109 -83q13 -36 13 -52q0 -22 -46 -145q-26 -165 -26 -294q0 -2 -3 -2q0 -3 3 -3l-3 -13q0 -294 42 -659v-5q0 -120 -73 -164q-35 -10 -65 -10q-95 0 -111 73q-16 65 -16 137q44 734 44 968q-2 14 -2 31q0 73 41 159h5q-15 -54 -15 -140v-120
q0 -148 -42 -810v-41q8 -119 52 -119h5q57 17 57 142q-26 331 -26 496v91q0 205 37 371q2 9 2 28v8q-9 117 -52 117v5q30 34 68 34zM146 1388h5q0 -5 -5 -5v5zM265 1326v-8q21 -19 21 -31q0 -3 -8 -8h-7q-15 13 -16 13v-5q4 -26 23 -26h3q21 0 26 29v5q0 33 -31 39h-3
q-4 0 -8 -8zM247 1233q0 -7 18 -18h11v5q0 21 -21 21h-3q-5 0 -5 -8zM242 1202v-13q0 -4 16 -16h7v5q0 14 -15 26q-5 -2 -8 -2zM229 1142q0 -17 23 -21h6q7 0 7 11q-7 18 -26 18zM229 1108l-3 -5v-5q0 -50 29 -50q4 0 10 11v8q0 16 -36 41zM219 991q0 -13 -5 -13
q5 -31 25 -31h6l13 3v8q-29 33 -32 33h-7zM216 927q-2 -8 -5 -8q6 -20 15 -24h3q14 0 16 8v3q0 21 -29 21zM214 805v-11q0 -3 12 -13h3q16 0 16 13q-11 11 -21 11h-10zM203 750v-10q0 -4 11 -11h7q15 0 18 13q0 16 -20 18q-11 0 -16 -10zM211 672q0 -17 23 -21q13 2 13 8v11
q0 3 -13 13h-15q-4 0 -8 -11zM214 625v-10q6 -13 20 -13q8 2 11 10q0 8 -24 16q-5 -3 -7 -3zM208 563v-2q11 -16 21 -16q10 3 16 10q-7 16 -24 16q-13 -2 -13 -8zM224 449v-8q7 -13 21 -13l2 5v3q0 14 -10 21h-5q-4 0 -8 -8zM226 382q6 -16 21 -16h8q5 0 5 5v5q0 14 -13 21
h-5q-16 0 -16 -15zM234 319v-2q7 -13 21 -13h5q5 0 5 5v5q0 7 -20 10h-6q-5 0 -5 -5z" />
    <glyph glyph-name="j" unicode="j" horiz-adv-x="946" 
d="M674 1427h11q75 0 139 -187q20 -47 49 -420l5 -159q0 -367 -133 -545q-137 -116 -269 -116q-116 0 -253 105q-155 166 -173 287v36q10 97 88 97q31 6 65 6h23q78 0 94 -103q5 -55 5 -99q0 -41 82 -51q126 0 162 227q26 132 26 312q-3 22 -3 48h3q-3 6 -3 9q0 120 -20 374
q12 144 88 176q5 3 14 3zM632 1396q-20 -96 -20 -185q0 -96 5 -428q0 -467 -136 -565q-45 -34 -108 -34q-119 0 -161 120q-38 190 -71 190h-6q-40 0 -48 -91q0 -128 176 -278q89 -60 170 -60q181 0 281 281q42 143 42 309v54q0 296 -102 670q-9 12 -20 17h-2zM739 1362
l-2 -14q7 -29 17 -29q19 0 19 20q0 13 -19 23h-15zM734 1285q0 -13 31 -20q1 6 6 6q-8 23 -29 23h-3q-5 0 -5 -9zM771 1050v-6q7 -14 22 -14q9 2 12 11q-6 17 -23 17h-3q-4 0 -8 -8zM785 996v-3q0 -15 17 -28h8v5q0 16 -17 26h-8zM782 931q9 -26 28 -26h6v6q-4 28 -26 28
q-2 0 -8 -8zM805 809v-9q0 -4 11 -11h8q6 1 12 14q0 8 -20 14q-11 -4 -11 -8zM805 661v-3q10 -40 34 -40q11 0 17 12v5q0 12 -49 26h-2zM807 604l-5 -8v-3q7 -31 25 -31l3 5v9q-5 28 -23 28zM790 542v-14q0 -7 23 -15q14 2 14 18q-7 22 -25 22q-5 0 -12 -11zM785 471
q0 -11 17 -23h14q7 0 11 20q0 13 -28 20q-14 -2 -14 -17zM251 440v-3q4 -11 26 -11q20 7 20 19q-9 6 -17 6h-9q-15 0 -20 -11zM776 414v-11q8 -14 23 -14h6q5 0 5 5v12q-11 17 -22 17q-12 -5 -12 -9zM756 346q0 -7 17 -17q17 0 20 23q0 4 -11 11h-14q-12 -6 -12 -17z
M731 295q0 -19 31 -25h9q12 0 19 11q0 6 -39 34q-20 0 -20 -20zM720 255l-3 -5q4 -32 31 -32l3 6q0 16 -31 31zM691 199v-12q7 -14 29 -14l2 6v3q0 15 -17 25h-5q-4 0 -9 -8z" />
    <glyph glyph-name="k" unicode="k" horiz-adv-x="1012" 
d="M155 1427h17q58 0 105 -108h-3q-4 3 -10 3h-3l-3 -11q0 -14 14 -22h8l5 3q-8 20 -8 24h3q5 0 11 -16q-3 -5 -3 -8q13 -52 16 -106q0 -18 -24 -143v-5q3 -41 29 -41q53 0 133 176q8 5 70 140q57 90 103 90h8q56 0 130 -130l8 -54q0 -144 -133 -278q-67 -81 -67 -157
q0 -121 111 -227q126 -134 197 -189q67 -75 67 -133q0 -67 -140 -119q-20 -5 -38 -5q-87 0 -224 162q-65 113 -165 241q-34 27 -54 27h-8q-31 0 -35 -55v-8q0 -35 83 -305q3 -18 3 -35v-16q0 -103 -70 -122h-24q-151 0 -176 81q-38 106 -38 192q14 564 14 765q0 138 -6 243
q0 96 81 143zM88 1249v-952q15 -170 78 -170q51 0 60 132q0 26 -41 255q-3 32 -5 37q10 90 67 90h11q49 0 119 -92q82 -101 184 -260q74 -75 130 -75q54 10 54 45v11q0 75 -149 203q-151 158 -151 192q-22 47 -22 105v3q0 113 89 222q146 222 152 273l2 32v11q0 57 -40 57
q-55 0 -138 -165q-132 -283 -195 -322q-20 -13 -43 -19q-58 0 -78 195q0 19 -3 21q16 166 16 187q-8 140 -46 140h-5q-46 -34 -46 -156zM242 1289v-8q0 -15 16 -24h8v5q-6 27 -24 27zM691 1192v-3q0 -32 24 -32h5q11 4 11 19v2q0 22 -24 27q-11 -3 -16 -13zM231 1197l-3 -5
v-14q6 -10 17 -16h2v8q0 27 -16 27zM672 1151v-5q0 -23 24 -27h3v3q0 24 -25 29h-2zM647 1111q6 -20 19 -27h8v5q0 16 -16 27h-5q-6 -1 -6 -5zM623 1068q0 -11 13 -19h6q5 0 5 5v11q0 14 -11 19h-5q-8 -3 -8 -16zM204 1054v-8q0 -15 14 -22h5q5 0 5 6q0 24 -21 24h-3z
M593 1027q8 -22 27 -22h3q5 0 5 6v8q0 19 -19 19h-8q-4 0 -8 -11zM582 551q0 -10 25 -13q6 0 35 8v3q-29 10 -46 10h-8q-6 0 -6 -8zM664 465q11 -16 37 -16l30 5v3q-42 16 -57 16q-10 -4 -10 -8z" />
    <glyph glyph-name="l" unicode="l" horiz-adv-x="1128" 
d="M146 1430q73 0 158 -85q57 -78 57 -206v-23q0 -32 -82 -486q-23 -161 -23 -234q0 -81 96 -122q30 -6 46 -6q30 0 330 99q37 6 68 6h17q176 0 235 -181q5 -20 5 -42q0 -44 -110 -85q-39 -13 -393 -40q-157 -20 -268 -25q-131 0 -164 57q-60 108 -60 211q-8 146 -8 831v144
q0 137 68 179q14 8 28 8zM78 916q0 -693 31 -693q59 -104 164 -104q455 34 455 56q105 43 105 91v11q0 42 -85 51q-56 0 -288 -85q-72 -23 -125 -31h-17q-90 0 -130 110q-5 14 -8 43q17 345 51 864q0 118 -57 164l-5 3h-20q-59 -14 -71 -150v-330zM273 1241v-6q0 -23 31 -31
h6q4 0 8 8v6q0 19 -22 31h-14q-4 0 -9 -8zM276 1167v-3q0 -21 28 -25q17 0 17 14q-11 23 -31 23q-14 -2 -14 -9zM259 1122v-3q0 -20 28 -28l3 6q0 17 -22 28q-6 -3 -9 -3zM259 1046q7 -23 26 -23h11q11 6 11 17q-11 23 -28 23h-9q-11 -6 -11 -17zM251 933q0 -10 22 -17
q12 2 12 17q0 17 -20 17q-10 -6 -14 -17zM906 280q0 -30 91 -71h8q-52 71 -93 71h-6zM909 167v-3q0 -27 62 -42v2q0 22 -62 43z" />
    <glyph glyph-name="m" unicode="m" horiz-adv-x="1399" 
d="M950 1430q146 0 186 -192q14 -66 38 -293q37 -186 139 -605q6 -29 6 -52v-26q0 -119 -87 -172q-28 -6 -44 -6q-176 0 -230 125q-20 97 -20 195q0 21 3 195q-4 44 -15 46q-29 0 -29 -229q3 -35 3 -50q0 -154 -90 -226q-47 -21 -96 -21q-61 0 -183 137q-30 74 -78 276
l-119 340h-3v-41q0 -128 58 -596q3 -36 3 -37q0 -124 -93 -186q-29 -12 -58 -12h-6q-141 0 -172 125q-23 89 -23 157q0 209 52 968q25 80 73 107q0 10 52 21h24q117 0 232 -102q63 -87 105 -247q38 -220 64 -302q18 -38 35 -38q39 0 66 352q17 234 44 273q71 116 163 116z
M668 503q-73 0 -131 221q-58 172 -119 462q-70 151 -169 151q-93 0 -128 -145q-5 -34 -20 -337q-23 -247 -32 -538q0 -114 70 -166q9 -6 17 -6h12q80 13 96 195q-12 182 -64 692v14q3 44 35 44q57 0 133 -235q61 -157 152 -431q70 -136 145 -136q58 0 119 163
q73 342 102 572q6 79 20 79h9q49 -18 49 -271q17 -511 38 -511q29 -73 73 -73h3q51 0 69 113q3 17 3 47v9q0 72 -113 726q-39 244 -125 244h-9q-55 0 -101 -133q-15 -49 -44 -396q-15 -340 -55 -340q-12 -14 -35 -14zM1066 1264v-5q0 -24 32 -32v5q0 18 -23 32h-9zM476 1209
v-3q13 -43 29 -43q3 5 3 8q-12 28 -29 38h-3zM1072 1177v-9q4 -29 26 -29q12 5 12 9v9q-4 26 -27 26h-5q-6 -1 -6 -6zM482 1142l-3 -6v-2q13 -38 38 -38q8 0 8 11q0 19 -43 35zM488 1055q8 -20 26 -20h8q6 0 6 8q0 12 -26 21zM1098 1006q6 -14 12 -15h3q17 0 17 18
q-5 14 -17 14q-15 -5 -15 -17zM508 982q6 -15 17 -20h9q15 0 18 12q-9 20 -30 20q-11 0 -14 -12zM252 895v-3q10 -17 26 -17h6v9q0 15 -11 20h-12q-4 0 -9 -9zM531 857q2 -7 15 -14h14q4 0 9 9q0 23 -23 23q-15 -5 -15 -18zM284 628v-6q0 -17 18 -29q5 0 5 6v3q-5 26 -14 26
h-9zM1194 509v-3q0 -4 14 -15h12v15q0 15 -12 20h-5q-9 -3 -9 -17zM836 509v-6q0 -15 12 -18q17 5 17 21v6q0 4 -8 8h-9q-5 0 -12 -11zM284 506v-9q12 -17 23 -17q12 4 12 8v3q0 23 -23 23q-12 -4 -12 -8zM1200 462v-11q10 -18 26 -18q20 0 20 18q-14 14 -32 14zM822 389v-8
q0 -8 23 -12q18 0 20 18q-6 17 -23 17q-11 0 -20 -15zM1214 401v-9q17 -26 35 -26q0 24 -35 35zM1229 343l-3 -6v-3q0 -24 26 -29h3q6 0 6 6v3q0 23 -32 29zM819 331v-5q10 -18 26 -18l12 3v9q-10 17 -26 17h-6q-6 -1 -6 -6zM319 320v-3q0 -23 17 -32h3q6 0 6 6v11
q-3 9 -17 21q-6 -3 -9 -3zM1229 291v-9q16 -23 35 -23h3q-21 32 -38 32zM825 285l-6 -9q7 -22 17 -26h9q6 0 6 9t-26 26zM1246 206q0 -11 26 -17q12 6 18 6v11q-8 15 -23 15q-17 0 -21 -15z" />
    <glyph glyph-name="n" unicode="n" horiz-adv-x="1002" 
d="M742 1427h14q112 0 160 -86q15 -33 15 -100q0 -48 -43 -400q-12 -163 -23 -672q-39 -169 -114 -169h-6q-159 0 -186 114q-38 93 -106 349q-120 367 -146 401l-8 5q-12 -3 -12 -25v-26q0 -95 80 -601v-25q0 -141 -74 -169q-11 -3 -23 -3h-14q-152 0 -192 172
q-11 56 -14 103q11 204 17 577q0 27 -8 352q0 82 91 160q49 29 112 29h2q175 0 238 -263q90 -498 151 -498q32 0 32 192q0 202 -26 443q0 98 57 134q19 6 26 6zM693 1235q20 -344 20 -623q0 -217 -28 -217q0 -3 -3 -3h-6q-39 0 -111 191q-149 307 -229 647q-60 137 -123 137
q-88 0 -120 -163v-200q-6 -572 -6 -649q13 -203 89 -203q66 24 66 131v32q-55 512 -55 692q7 83 46 83h3q57 0 154 -369q143 -425 178 -507q52 -91 85 -91h12q51 0 91 134q29 123 46 827h3q0 3 -3 3l3 11q3 136 3 155q-11 148 -57 148q-43 0 -55 -137q0 -28 -3 -29z
M856 1304v-11q23 -25 23 -38q-4 -11 -8 -11l-12 9h-3l-2 -12q8 -20 28 -20h3q17 0 26 20v3q0 23 -40 60h-15zM385 1270v-6q1 -7 45 -26q0 -4 6 -11v-6l-11 -11q14 -12 20 -12q14 4 14 20q-29 60 -60 60h-6q-4 0 -8 -8zM848 1181q6 -20 23 -20q14 0 20 14v9q-5 11 -20 11h-12
q-11 -6 -11 -14zM405 1175q0 -20 22 -20h6q9 0 9 12q-6 14 -23 14h-9q-5 -1 -5 -6zM862 1132v-11q0 -21 14 -23q12 3 12 17q-10 17 -26 17zM416 1124v-9q6 -28 29 -28h5q0 3 3 8q-7 32 -28 32q-6 -3 -9 -3zM845 1070q0 -23 23 -23h3q8 0 8 11q-10 20 -23 20q-11 -4 -11 -8z
M836 964v-12q2 -17 9 -17h9q15 0 20 12v8q0 4 -26 26h-3q-9 -3 -9 -17zM462 949q4 -11 20 -11q12 4 17 14q0 4 -9 9h-8q-16 0 -20 -12zM476 898q7 -17 26 -17h3q5 0 5 6v8q-4 12 -20 12h-5q-4 0 -9 -9zM247 618v-12q3 -8 17 -8q12 0 20 14v11q-1 6 -14 12q-11 0 -23 -17z
M262 492q2 -12 17 -12t20 12q-4 14 -20 14q-13 0 -17 -14zM799 206v-3q0 -4 12 -11h5q15 0 18 8v9q-3 8 -18 8q-11 0 -17 -11zM796 103v-11q3 -9 18 -9t22 14v6q0 4 -11 11h-9q-15 0 -20 -11z" />
    <glyph glyph-name="o" unicode="o" horiz-adv-x="969" 
d="M503 1430h23q196 0 316 -248q77 -180 77 -410q0 -383 -194 -638q-122 -134 -270 -134q-330 0 -399 521q-6 63 -6 120v37q0 380 197 632q111 120 256 120zM76 706v-62q0 -329 171 -499q70 -57 156 -57q282 0 382 467q20 110 20 208v49q-16 455 -234 561q-37 17 -82 17
q-192 0 -317 -239q-96 -206 -96 -445zM466 1316h8q146 0 188 -299q6 -40 9 -137q0 -340 -140 -595q-72 -100 -142 -100h-17q-148 0 -177 294q-3 37 -3 79q0 324 120 656q39 91 86 91q26 11 68 11zM281 496v-37q0 -91 23 -120q42 -48 102 -48h14q93 0 137 128q91 186 91 424
q-14 290 -65 302q-12 14 -34 14h-20q-75 0 -149 -91q-32 -44 -68 -225q-31 -167 -31 -347zM802 1154l-3 -15q5 -14 17 -14q15 4 15 20q-11 9 -20 9h-9zM318 1134q6 -17 23 -17q17 6 17 20q-5 14 -17 14q-17 0 -23 -17zM292 1085v-8q0 -7 20 -17q17 5 17 11v11q-4 12 -20 12
h-8q-4 0 -9 -9zM819 997q0 -23 34 -23q5 0 12 12q-11 31 -23 31h-11q-12 -5 -12 -20zM272 983v-3q0 -16 17 -20q17 0 17 20q-5 13 -11 14h-11q-5 0 -12 -11zM848 781v-3q0 -16 14 -20q17 7 17 25v3q0 5 -11 12h-12q-8 -3 -8 -17zM856 726v-2q17 -23 17 -29q-4 -12 -14 -17
h-3l-11 9q-6 0 -6 -9q0 -5 29 -23v-6q-4 -11 -26 -11v3q-9 -3 -11 -11q7 -23 14 -23h11q31 20 31 62q0 40 -28 57h-3zM229 638v-11q0 -4 9 -9h11q4 0 9 9v11q0 4 -9 9h-11q-4 0 -9 -9zM822 553q3 -9 17 -9h3q26 4 26 26l-9 5h-14q-23 0 -23 -22zM229 553q0 -17 20 -17
q12 4 12 19q-6 13 -12 15h-11q-9 -3 -9 -17zM771 350l11 -8h9q14 7 14 23v2q0 6 -6 6h-6q-22 0 -22 -23z" />
    <glyph glyph-name="p" unicode="p" horiz-adv-x="969" 
d="M437 1430q352 0 451 -245q24 -69 24 -132v-13q0 -211 -190 -378q-111 -89 -279 -89q-72 -16 -103 -53q-27 -38 -27 -98q0 -51 3 -253q0 -35 -21 -74q-11 11 -21 11h-6q-15 -2 -15 -8v-14q8 -15 29 -15q12 23 15 23q3 -5 3 -8q-54 -72 -90 -81l-26 -3q-105 0 -124 206v29
l58 543q19 163 34 465q28 94 87 140q38 47 198 47zM94 251q12 -140 56 -140h5q44 0 58 153v29q0 316 24 316q33 80 179 80q257 0 364 248q24 74 24 139q0 266 -301 320q-35 5 -76 5h-29q-153 0 -206 -145q-12 0 -29 -317q-69 -579 -69 -688zM416 1288h13q102 0 209 -66
q68 -56 68 -159v-5q0 -101 -89 -185q-109 -84 -196 -84h-10q-85 0 -143 119q-13 37 -13 63v121q0 146 135 193q14 3 26 3zM290 1190q0 -7 18 -19q5 3 8 3v13q0 14 -11 19h-8q-7 -3 -7 -16zM350 1003v-16q0 -93 98 -143q19 -5 39 -5q63 0 138 95q31 52 31 87v16
q0 87 -108 145q-18 5 -32 5h-5q-103 0 -158 -145q-3 -26 -3 -39zM287 1140v-5q4 -11 18 -11h8q4 0 11 11v5q-5 13 -19 13q-10 0 -18 -13zM825 1142v-2q5 -24 13 -24h6q10 4 15 19q-6 15 -23 15h-3q-4 0 -8 -8zM836 1034v-13q0 -4 8 -8h5q13 7 13 21q0 4 -8 8h-2
q-16 -1 -16 -8zM825 974q3 -11 16 -11q16 0 16 16q-11 10 -16 10q-16 -6 -16 -15zM290 952v-7q0 -6 15 -8q16 5 16 10v5q-2 8 -16 8q-15 -1 -15 -8zM809 923v-5q0 -16 16 -16h5q4 0 14 14v5q0 4 -11 10h-16q-4 0 -8 -8zM788 886l-2 -5v-8q0 -29 21 -29q14 0 18 11v5
q-18 23 -37 26zM762 815q4 -16 18 -16h3q4 0 8 8v3q0 16 -16 16h-5q-7 0 -8 -11zM253 591q0 -14 13 -21h13q5 0 5 5v3q-2 21 -21 21q-10 -4 -10 -8zM253 464v-2q2 -21 18 -21q12 5 13 10v8q0 4 -13 13h-10q-4 0 -8 -8zM247 396q7 -16 19 -16q16 5 16 10v3q0 19 -21 19
q-14 0 -14 -16zM250 185v-3q0 -4 11 -11h5q11 0 18 11q-3 13 -18 13q-11 0 -16 -10z" />
    <glyph glyph-name="q" unicode="q" horiz-adv-x="929" 
d="M423 1440h13q183 0 348 -168q79 -104 79 -353q0 -284 -84 -571q-41 -68 -41 -79q-2 0 -2 -15q0 -47 45 -86q16 -21 16 -49v-7q0 -77 -89 -99q-23 -5 -51 -8q-62 8 -81 8q-27 0 -224 -13q-206 0 -279 353q-23 120 -23 257v25q0 356 122 640q90 165 251 165zM80 597h-2
q0 -3 2 -3l-2 -25q0 -485 241 -485q54 0 135 43q30 15 46 15h12q16 0 33 -38q21 -18 38 -18q36 10 36 61q0 27 -33 59l-5 17q19 87 73 216q59 197 59 424q0 385 -160 516q-47 31 -89 31h-25q-132 0 -249 -209q-36 -75 -84 -335q-26 -174 -26 -269zM449 1310q138 0 193 -190
q15 -65 15 -140q0 -226 -112 -530q-41 -71 -68 -77q-7 0 -21 26q-19 12 -40 12q-26 -7 -26 -15v-7q18 -45 18 -72v-15q-11 -99 -66 -99h-15q-70 0 -122 127q-25 76 -25 221v28q0 313 76 582q47 149 193 149zM715 1237q0 -8 23 -13h15l13 3v5q0 9 -38 12h-5q-4 0 -8 -7z
M334 1214v-8q1 -5 6 -5h12q14 0 18 10v6q0 6 -20 10q-11 -4 -16 -13zM286 551v-84q0 -155 84 -200l18 -3q12 6 12 26v7q0 29 -40 61l-3 15h3q0 3 -3 3q0 58 132 147q89 94 89 140q36 164 36 302q0 185 -97 241q-23 16 -35 16q-60 0 -127 -193q-69 -258 -69 -478zM731 1196
q13 -28 33 -28h5v13q-12 20 -28 20h-5q-5 -1 -5 -5zM301 1145q0 -11 28 -12q23 4 23 20q-5 15 -20 15h-3q-19 0 -28 -23zM741 1135v-5q18 -7 23 -7q9 0 15 7q-3 10 -15 10h-18q-5 0 -5 -5zM296 1092l8 -5h13q2 0 12 13q-2 10 -15 10q-18 0 -18 -18zM748 1092q0 -22 33 -28
l3 5q-5 28 -28 28h-3q-5 -1 -5 -5zM759 1046v-7q12 -18 28 -18h5q-4 25 -23 25h-10zM756 990q3 -10 15 -10h5q14 0 16 8v5q0 7 -21 10h-5q-10 -5 -10 -13zM263 952q0 -3 8 -7h5q18 0 25 20q-4 13 -17 13q-21 -10 -21 -26zM761 942v-5q0 -4 8 -7h10q14 0 20 12v8l-12 2h-8
q-14 0 -18 -10zM769 902q6 -13 20 -13h5q4 0 8 8v10l-13 2h-5q-15 -1 -15 -7zM246 863v-7l12 -3h5q18 0 18 13q-2 10 -15 10q-14 0 -20 -13zM759 856v-3q6 -12 20 -12h5l13 2v8q0 9 -28 12q-10 -3 -10 -7zM248 803q5 -12 10 -13h8q13 6 13 20v3q-3 7 -16 7h-5
q-10 -4 -10 -17zM756 810v-7q5 -28 33 -28q18 3 18 10v2q0 26 -41 31q-10 -4 -10 -8zM751 737q0 -14 36 -16q22 0 22 16q-14 12 -25 12h-15q-18 0 -18 -12zM228 706q2 -15 20 -15q4 0 8 7v8q0 14 -10 18h-8q-10 -4 -10 -18zM736 688q0 -10 38 -10q35 3 35 10v3q-22 7 -38 7
q-35 -1 -35 -10zM225 643l8 -6h5q23 4 23 23l-8 5h-5q-23 -3 -23 -22zM756 645q4 -10 8 -10h10q13 0 18 10v10q-14 3 -21 3q-13 -5 -15 -13zM738 599q12 -7 21 -7q20 6 20 15q-11 8 -18 8q-23 0 -23 -16zM736 564v-3q14 -20 38 -20h5v5q-5 25 -26 25h-10q-3 0 -7 -7z
M731 513v-5q4 -10 17 -10h5q4 0 8 7v11q0 3 -8 7h-5q-13 0 -17 -10zM703 467q0 -14 33 -20v-8q0 -11 -36 -17l-10 -13v-10q33 -6 33 -16v-5q0 -5 -5 -5h-25q-4 0 -8 -7v-5h13q46 0 63 73q-6 46 -46 46q-12 -4 -12 -13zM484 437q4 -23 18 -23q25 11 25 33q0 14 -12 20h-13
q-18 -11 -18 -30zM228 437l10 -5q13 0 23 15v3q0 3 -8 7h-5q-20 0 -20 -20zM667 335v-5q0 -11 36 -18h2v3q0 23 -30 23q-5 -3 -8 -3zM629 262q4 -13 25 -13h8q1 0 8 5q-5 13 -21 13h-12z" />
    <glyph glyph-name="r" unicode="r" horiz-adv-x="962" 
d="M361 1434h21q245 0 423 -179q95 -106 95 -232q0 -179 -194 -321q-21 -26 -21 -62q0 -62 97 -211q105 -185 105 -245v-23q0 -91 -87 -143q-23 -5 -33 -5q-119 0 -194 219q-75 299 -168 299q-56 0 -67 -92l23 -263v-5q0 -122 -69 -161q-40 -10 -66 -10q-118 0 -150 89
q-26 71 -26 136q59 557 77 811q5 247 17 247q13 49 72 110q43 41 145 41zM83 258q9 -132 72 -146h7q58 0 79 133q3 14 3 28l-18 276q17 112 94 112h11q71 0 178 -179q39 -65 77 -191q52 -158 115 -158q40 0 48 79v18q0 121 -207 390q-17 26 -17 46v5q0 60 122 120
q156 131 156 291v20q0 188 -222 268q-98 28 -187 28q-141 0 -183 -74q-54 -55 -54 -201q0 -150 -74 -840v-25zM466 1283h23q183 0 222 -117q5 -33 5 -43q0 -162 -232 -261q-84 -30 -123 -30q-80 0 -109 102q-6 24 -6 38q17 160 36 184q17 46 95 102q55 25 89 25zM326 1186
v-7q8 -18 30 -18q12 5 13 10v13q-9 15 -23 15t-20 -13zM372 970q0 -67 81 -79q67 0 158 86q26 35 26 67v15q0 74 -77 102h-15q-102 0 -168 -161q-5 -24 -5 -30zM318 1082q0 -23 20 -23l8 13q-4 15 -20 15h-3q-5 -1 -5 -5zM808 936q7 -17 25 -17h8v2q-3 23 -23 23h-5
q-5 0 -5 -8zM767 847q10 -5 15 -5q18 4 18 15l-7 5h-8q-18 0 -18 -15zM759 824v-13q0 -9 -10 -20v-8h8q20 3 20 21q-3 20 -18 20zM280 378v-11q4 -10 18 -10q12 0 15 10q-4 13 -18 13h-3zM282 316q0 -10 21 -15q15 3 15 8v5q-2 8 -20 8h-11q-5 -1 -5 -6zM777 311v-2
q0 -18 18 -18h3q5 0 5 5v13q0 3 -13 10q-13 -3 -13 -8zM287 283l-5 -18v-2q9 -15 31 -15l13 2v18q0 3 -26 10v5h-13zM803 258l20 -21q15 0 15 16q-3 10 -7 10h-23q-5 -1 -5 -5zM287 202q11 -11 21 -11h2q14 0 18 11v7q-4 10 -18 10h-5q-18 0 -18 -17zM821 204q5 -16 12 -18
h11q3 0 7 8v8q0 6 -20 10h-3q-2 0 -7 -8z" />
    <glyph glyph-name="s" unicode="s" horiz-adv-x="976" 
d="M411 1434q208 0 456 -224q34 -53 34 -98q-10 -94 -94 -94q-69 0 -198 129q-73 58 -137 58h-16q-116 -11 -116 -114q0 -83 71 -131q36 -35 198 -153q68 -46 187 -174q98 -119 98 -319v-11q0 -211 -116 -282q-44 -21 -85 -21q-165 0 -495 124q-81 32 -130 116
q-18 47 -18 84q0 98 76 98h11q64 0 158 -79q86 -42 171 -42q95 0 132 76q8 15 13 71q0 149 -234 290q-154 94 -248 182q-76 79 -76 177v26q0 137 139 248q112 63 219 63zM82 1112q0 -190 282 -340q116 -66 208 -155q68 -80 68 -177q0 -132 -105 -171q-27 -8 -55 -8h-6
q-115 0 -274 95q-56 29 -76 29h-16q-15 0 -24 -19v-21q0 -50 145 -121q212 -87 301 -87q140 0 229 108q21 39 21 79v8q0 3 3 3l-3 5v8q0 163 -292 430q-261 236 -261 340q0 96 145 179q40 13 63 13q77 0 153 -100q64 -58 124 -58h13q50 0 50 42q0 109 -256 174
q-78 13 -126 13q-244 0 -303 -205q-8 -58 -8 -64zM859 1149l-2 -5v-3q9 -34 34 -34h5q0 23 -37 42zM812 1123q14 -37 39 -37l6 8v3q-16 26 -43 26h-2zM770 1102v-3q0 -20 31 -26q3 5 3 8q0 13 -32 21h-2zM720 1076v-6q0 -11 42 -21h5v8q-18 19 -40 19h-7zM770 575
q11 -40 31 -40h3v5q0 22 -34 35zM817 335v-3q0 -22 29 -26q16 6 16 10v14h-13q-10 0 -24 10h-3q-5 -1 -5 -5zM822 248l-2 -13v-6q6 -15 21 -15h2q4 0 8 7q0 17 -18 27h-11zM809 195q5 -32 21 -32q6 14 8 14q0 9 -18 23h-6q-5 0 -5 -5zM772 124v-3q0 -26 16 -26l5 8v8
q0 14 -10 18h-5q-6 -1 -6 -5z" />
    <glyph glyph-name="t" unicode="t" horiz-adv-x="1149" 
d="M912 1427h21q82 0 110 -31q34 -70 34 -113v-15q0 -110 -262 -110q-92 -25 -136 -79q-47 -40 -47 -282v-2q0 -279 89 -570q8 -39 8 -73q0 -110 -63 -144q-12 -8 -34 -8h-23q-119 0 -178 180l-5 45q0 28 16 742q0 110 -155 157q-94 0 -188 94q-39 52 -39 78q0 61 125 87
q413 13 578 28q90 16 149 16zM389 1359l-10 -3v3l-5 -3h-47l-32 -2v2l-5 -2h-34q-136 -3 -165 -50v-10q15 -50 126 -50h13q28 0 73 3q84 0 149 -94q21 -48 21 -100q-16 -695 -16 -771q9 -157 63 -157h5q50 0 55 139q0 22 -29 267q-10 126 -13 303q0 271 26 319
q40 77 110 112q21 17 204 34q86 21 86 52v8q-20 37 -120 37q-343 -37 -455 -37zM993 1244v-8q7 -13 21 -13q1 0 10 3v8q-4 10 -18 10h-13zM577 1087v-10q4 -11 21 -16q12 5 13 11v7q-5 13 -26 13h-2q-6 0 -6 -5zM627 295v-5q11 -16 26 -16h8v11q-9 16 -23 16h-6q-5 -1 -5 -6
zM672 209v-3q0 -15 15 -26h3q8 3 8 16q0 8 -24 13h-2zM666 152v-6q0 -13 34 -23h6q5 0 5 5v3q-6 26 -34 26h-5q-6 -1 -6 -5z" />
    <glyph glyph-name="u" unicode="u" horiz-adv-x="1072" 
d="M774 1434h8q78 0 106 -95q26 -86 55 -321q64 -273 64 -406q0 -265 -207 -487q-133 -125 -265 -125h-16q-187 0 -366 244q-103 142 -103 374v23q0 107 56 631q37 98 122 98q56 -3 135 -61q40 -42 40 -119q0 -98 -69 -246q-64 -185 -64 -326v-30q0 -203 98 -262
q56 -34 111 -34h8q119 0 189 222q23 105 23 220q0 184 -63 512v32q0 112 82 145q33 11 56 11zM670 1299q0 -56 35 -255q21 -152 21 -275q0 -423 -186 -528q-43 -21 -82 -21h-21q-153 0 -236 244q-18 75 -18 151v3q0 179 111 546q0 16 3 39q0 115 -77 138h-3q-62 0 -98 -148
q-29 -263 -29 -443v-29q0 -604 379 -604q313 0 384 297q21 91 21 190v43q0 224 -90 641q-36 98 -71 98h-14q-29 -15 -29 -82v-5zM827 1336q0 -13 31 -21q6 2 8 2v8q-9 16 -31 16h-3q-5 -1 -5 -5zM843 1241v-8q9 -16 23 -16h3q14 0 21 10v11q-12 13 -32 13q-15 -5 -15 -10z
M848 1190v-5q2 -8 16 -8h18v5q-4 11 -18 11h-3zM344 1180q0 -16 19 -24h13v2q0 16 -16 27h-10q-6 -1 -6 -5zM304 1066q4 -11 14 -16h10q0 6 3 10q-6 21 -16 21q-11 -2 -11 -15zM869 1050v-6q7 -13 21 -13h6q3 0 8 8v5q0 8 -24 14q-11 -4 -11 -8zM291 1010v-3q6 -10 13 -10
q14 3 14 18v5q0 6 -6 6h-5q-16 0 -16 -16zM901 893l-3 -5v-5q18 -24 35 -24h5v10q-21 24 -37 24zM901 830v-8q12 -19 26 -19l3 5q-7 22 -24 22h-5zM911 758q8 -18 24 -18q22 5 22 18q0 14 -27 16h-3q-16 0 -16 -16zM925 657v-8q9 -15 24 -15q3 0 8 7v8q0 4 -14 14h-13
q-5 -1 -5 -6zM922 596q4 -13 19 -13h2q14 0 16 11q-5 16 -21 16t-16 -14zM927 559l-5 -8v-5q5 -24 13 -24h11q5 0 5 5v14q-10 18 -24 18zM909 482q3 -13 18 -13q14 2 14 8v11q-3 8 -16 8h-8q-6 0 -8 -14zM824 260v-8q0 -4 8 -8h11q13 7 13 21q0 4 -8 8h-3q-14 0 -21 -13z
" />
    <glyph glyph-name="v" unicode="v" horiz-adv-x="1066" 
d="M860 1434h16q73 0 113 -94q10 -27 10 -63v-11q0 -87 -81 -272q-99 -252 -173 -561q-37 -193 -50 -242q-78 -191 -241 -191h-24q-75 0 -152 157q-29 72 -71 341q-73 387 -157 747v29q11 118 79 118q28 5 89 5h10q81 0 97 -55q19 -59 19 -133v-3q-16 -212 -16 -273v-68
q0 -208 63 -349q22 -26 39 -26h13q61 0 95 223q36 157 73 537q33 104 102 145q87 39 147 39zM422 296q-62 0 -115 192q-97 283 -97 605l3 155q-15 118 -58 118q-5 2 -8 2q-60 -11 -60 -83q-3 0 -3 -21q0 -31 58 -302q94 -527 149 -716q55 -102 137 -102q90 0 165 178
q186 647 254 928v42q0 78 -71 95h-5q-100 0 -142 -215q0 -104 -81 -566q-64 -294 -94 -294q0 -9 -32 -16zM268 1313v-2q6 -26 26 -26q12 5 13 10v11q-7 13 -26 18q-12 -5 -13 -11zM918 1292q18 -36 50 -36h5q13 0 16 8v5q-6 0 -66 29q-5 -1 -5 -6zM270 1269v-8q0 -14 16 -24
h13q6 0 8 13q-8 19 -26 19h-11zM894 1245q10 -23 32 -23q13 2 13 8q-7 31 -32 31h-2q-11 -5 -11 -16zM260 1209q6 -16 23 -16q11 0 16 10v3q-7 13 -21 13h-3q-13 0 -15 -10zM881 1195q8 -18 26 -18q16 3 16 13t-26 19q-11 0 -16 -14zM262 1169q6 -16 21 -16h3q5 0 5 6v2
q-9 16 -23 16q-6 0 -6 -8zM873 1161v-10q10 -19 26 -21l3 5q-11 26 -29 26zM262 1122v-5q0 -19 19 -19h10l3 11q-8 18 -26 18q-6 -1 -6 -5zM857 1106v-5q5 -10 19 -10h5q16 0 16 15q-10 8 -19 8h-13q-3 0 -8 -8zM857 1075l-5 -8v-11q9 -18 24 -18q5 0 10 16q0 18 -29 21z
M260 1059q3 -10 23 -10q11 4 11 7v3q-4 11 -19 11h-5q-4 0 -10 -11zM829 1009q5 -15 21 -15h2q16 0 16 15q-7 13 -21 13h-8q-10 -5 -10 -13zM818 967v-2q9 -16 24 -16h5q5 0 5 5v8q-7 13 -21 13h-5q-4 0 -8 -8zM257 923q0 -4 8 -8h3q21 0 21 21q0 6 -14 8q-18 -5 -18 -21z
M784 920v-2q44 -21 50 -21l13 2v13q-27 24 -50 24q-3 0 -13 -16zM797 878l-5 -8v-8q0 -20 23 -20h3q5 0 5 5v5q-3 26 -26 26zM763 768v-8q4 -10 18 -10q11 0 21 15v11q0 4 -13 13h-5q-21 0 -21 -21zM753 724v-6q0 -4 18 -10q16 3 16 8v5q-4 10 -24 10q-10 -4 -10 -7z
M698 561v-5q4 -11 18 -11t18 11v10q-2 8 -15 8q-15 0 -21 -13zM632 301l-5 -10q0 -17 23 -21q6 0 6 5q-5 26 -24 26zM619 246v-7q1 -6 23 -16q11 4 11 8q-4 23 -24 23q-10 -4 -10 -8zM614 207l-3 -5q12 -24 29 -24h5v3q0 22 -31 26zM606 163v-14q3 -23 23 -23q13 3 13 18
q0 21 -28 26q-4 0 -8 -7z" />
    <glyph glyph-name="w" unicode="w" horiz-adv-x="1379" 
d="M1122 1430q107 0 177 -84q12 -33 12 -64q0 -87 -89 -292q-57 -154 -105 -420q-26 -156 -44 -409q-39 -153 -117 -153h-23q-73 0 -156 64q-58 54 -90 189q-31 156 -61 156h-5q-40 0 -57 -225q-17 -74 -43 -108q-52 -84 -146 -84h-38q-102 0 -126 72q-51 142 -51 263
q-25 203 -115 826q-5 27 -5 46q7 130 100 167q26 7 53 7h13q92 0 131 -53q13 -26 13 -77q0 -56 -52 -304q-18 -127 -18 -213q0 -199 49 -225q5 -2 10 -2h3q43 0 59 161q65 184 232 184h36q97 0 131 -82q10 -26 28 -166q11 -28 25 -28q38 0 98 463q25 201 36 261
q47 130 135 130zM820 327q-51 0 -92 241q-32 177 -69 212q-31 33 -66 39q-93 0 -159 -151q-12 -31 -49 -269q-21 -97 -69 -97q-71 0 -97 230q-18 96 -18 251v69q0 136 23 373q0 84 -46 118q-13 8 -25 8q-54 0 -75 -95q-5 -20 -7 -66q84 -670 130 -934q45 -118 115 -118
q74 0 133 138q49 181 80 274q29 49 53 49h11q53 0 92 -213q33 -151 79 -199q39 -44 69 -44h13q64 0 110 146q48 279 133 624q77 302 77 374v7q-8 103 -52 103h-5q-65 0 -105 -174q-71 -556 -143 -860q-21 -36 -41 -36zM1242 1358v-10q12 -36 34 -36q5 0 5 5q0 20 -28 41h-11
zM1227 1302q26 -37 26 -51l-6 -3h-5l-20 23v-2q9 -39 36 -39q20 7 20 26q0 33 -46 51q-5 -1 -5 -5zM278 1220q7 -20 23 -20q5 6 5 10q0 10 -23 15q-5 0 -5 -5zM1201 1213q0 -22 34 -29q10 3 10 11q-12 23 -31 23h-7q-6 -1 -6 -5zM268 1187l-3 -10q2 -10 21 -18q5 2 7 2v3
q-3 23 -23 23h-2zM1189 1164v-10q3 -23 23 -23q5 1 10 12q0 18 -23 29q-10 -4 -10 -8zM1186 1115v-2q13 -26 21 -28h7v2q0 11 -25 28h-3zM247 1085q0 -7 21 -11q10 0 15 11v5q0 4 -10 10h-10q-16 0 -16 -15zM1168 1077l-2 -13q0 -18 20 -28q3 5 3 8q0 22 -13 33h-8z
M242 1044v-5q3 -11 26 -11q11 5 12 11v2q-4 10 -17 10h-6q-15 -1 -15 -7zM1155 1016v-6q3 -19 11 -20q15 0 15 15v8q-4 10 -18 10q-4 0 -8 -7zM1153 972v-2q0 -10 15 -31v-5q0 -6 -18 -11q-11 4 -20 11v-3q1 -16 15 -31h13q15 11 20 23v16q-23 30 -23 33h-2zM237 967v-10
q4 -10 18 -10h2q4 0 8 7v3q-6 13 -20 13q-5 -3 -8 -3zM1109 824v-3q0 -18 18 -18q12 5 13 10v8q-4 10 -18 10q-13 -1 -13 -7zM718 773q41 -29 54 -29v3q-20 31 -49 31q-5 -1 -5 -5zM743 729v-8q0 -20 24 -20q7 0 7 10q-7 18 -23 18h-8zM1050 540v-8q0 -13 16 -25h5v2
q0 15 -18 31h-3zM1038 486v-13q0 -4 10 -10h13q3 0 7 8v5q-6 13 -23 13q-5 -3 -7 -3zM1022 394q3 -21 23 -21h11v11q-11 15 -26 15h-3q-5 -1 -5 -5zM1015 353v-3q0 -14 15 -23h10q5 0 5 6v10q-10 15 -25 15q-5 -1 -5 -5zM521 340q-3 -5 -3 -7q0 -4 8 -21h13l2 10
q-5 18 -20 18zM1007 310v-3q0 -20 26 -23h2v3q-3 23 -23 23h-5zM490 266v-10q0 -5 18 -16h5q5 0 5 6q0 20 -20 20h-8zM997 207v-10q6 -13 20 -13h5v8q-9 15 -23 15h-2zM480 187v-5q7 -13 20 -13h8q5 0 5 5v5q-9 15 -23 15q-10 -3 -10 -7zM999 169v-3q0 -12 21 -30h5v12
q-15 21 -26 21zM470 153v-10q13 -18 23 -18q11 5 13 11v2q-10 15 -31 15h-5zM989 120q0 -23 28 -36l5 8v3q0 17 -23 30h-5q-5 0 -5 -5zM460 110v-8q8 -15 23 -15h10v10q-10 13 -23 13h-10z" />
    <glyph glyph-name="x" unicode="x" horiz-adv-x="1009" 
d="M272 1430q111 0 162 -198q23 -230 75 -230q48 0 105 184q49 148 159 215q31 13 64 17q69 0 90 -56q3 0 3 -25q-18 10 -27 10q-5 -3 -7 -3v-7q4 -24 24 -24q10 2 10 9h5q0 -86 -105 -185q-194 -236 -194 -365v-2q0 -75 108 -254q26 -55 186 -357q7 -25 10 -56
q-12 -103 -88 -103q-116 0 -196 210q-42 166 -100 308q-28 49 -61 49q-57 0 -103 -169q-68 -213 -95 -244q-75 -112 -149 -112h-5q-86 0 -103 117v10q0 71 81 185q168 284 193 333q27 81 27 154q0 91 -83 242q-81 167 -81 198v27q0 84 71 117q11 5 24 5zM194 1342
q0 -81 108 -286q70 -151 70 -215v-12q0 -134 -100 -264q-186 -283 -186 -355v-12q0 -38 32 -44h8q56 0 132 127q94 284 134 355q34 34 61 34h12q72 0 130 -188q34 -84 78 -242q51 -125 86 -125h12q24 13 24 51v15q0 93 -195 457q-30 68 -30 149q0 104 81 227l152 277
q14 37 14 63q0 30 -27 30q-61 -12 -124 -130q-90 -252 -127 -328q-29 -36 -66 -36h-3q-66 0 -112 188q-12 35 -61 220q-44 93 -74 93q-25 0 -29 -49zM343 1340q0 -4 32 -20l2 -12q0 -5 -7 -5q-12 7 -20 7v-2q0 -12 27 -20h3q19 0 19 20q-13 32 -46 32h-10zM864 1303v-5
q5 -12 27 -12q7 2 9 10q0 9 -17 22h-12q-7 -3 -7 -15zM854 1274l-5 -8v-5q0 -19 20 -19h5v10q0 19 -20 22zM363 1271q0 -2 -3 -2q0 -6 25 -22v-5q0 -5 -5 -5h-8l-17 5l-2 -5q0 -34 34 -34h3q13 0 19 12v7q0 25 -46 49zM820 1225q5 -15 19 -15q10 4 10 7v10q-4 10 -17 10
q-6 0 -12 -12zM402 1068v-5q0 -17 17 -17q12 0 12 15v7q-4 0 -10 5h-14q-5 -1 -5 -5z" />
    <glyph glyph-name="y" unicode="y" horiz-adv-x="936" 
d="M786 1434q82 0 82 -62q0 -70 -122 -241q-162 -296 -206 -572q-28 -111 -55 -383q-18 -77 -77 -136q-47 -40 -90 -40h-10q-90 0 -126 104l-3 30v18q0 25 70 233q119 402 119 455v22h5q3 -52 5 -62q0 -72 -102 -410q-59 -189 -59 -231v-5q0 -47 32 -47q89 0 132 296
q76 327 174 556q60 140 169 353q12 37 12 60q0 27 -22 27q-69 -23 -102 -82q-35 -48 -70 -199q-31 -74 -89 -74q-73 0 -140 132q-118 196 -198 196q-21 0 -28 -30v-10q0 -63 132 -209q142 -153 142 -213q-26 48 -95 129q-216 221 -216 276v5q0 61 87 74q64 0 157 -59
q98 -86 121 -162q17 -30 53 -30q62 0 96 134q47 110 120 145q45 12 102 12zM276 1312v-5q0 -9 35 -20h10v3q0 14 -40 22h-5zM599 994l-2 -5v-7q3 -25 22 -25l3 5v7q-4 25 -23 25zM485 654q5 -13 20 -13q11 5 12 10q0 4 -10 10h-15q-3 0 -7 -7zM472 579q6 -17 23 -17l7 10v7
q-6 12 -20 12h-2q-6 0 -8 -12zM468 549v-7q16 -20 27 -20v5q-12 19 -27 22zM448 472q4 -10 17 -10h10q5 0 5 5v3q-3 7 -15 7h-12q-5 -1 -5 -5zM448 440v-8q0 -6 20 -10h9v5q-6 13 -19 13h-10zM428 348v-10q11 -20 27 -20q5 0 5 8q-12 22 -30 22h-2zM418 306v-5
q10 -15 25 -15h7v2q0 12 -25 18h-7zM418 276q0 -3 -3 -3q0 -12 30 -20h5v5q-11 18 -32 18zM408 226q5 -12 20 -12h2q13 0 15 7v8q-4 10 -17 10h-10q-10 -6 -10 -13zM395 174v-5q9 -15 30 -15h3v3q-11 17 -28 17h-5zM398 139l-3 -5q0 -11 30 -20l3 5q0 12 -30 20zM386 102
q4 -22 24 -22h10v9q0 9 -27 13h-7z" />
    <glyph glyph-name="z" unicode="z" horiz-adv-x="1124" 
d="M867 1427q107 0 167 -140q7 -18 7 -49q0 -133 -137 -235q-271 -238 -336 -346q-68 -89 -122 -203q-35 -73 -35 -106v-10q0 -72 91 -85h12q15 0 226 36q13 0 22 3q113 0 184 -66q27 -30 27 -67q0 -88 -147 -117l-420 -40q-32 -2 -54 -2q-188 0 -260 140l-2 14v23
q0 92 127 267q311 449 434 689q5 27 5 37q-9 71 -71 71h-10q-17 0 -228 -59q-24 -3 -36 -3h-10q-70 0 -128 160v7q0 48 94 71l36 5q209 -10 329 -10q96 0 235 15zM200 1334q0 -41 103 -47q24 0 263 39q63 5 73 5q91 -11 91 -85q0 -44 -81 -172q-169 -285 -478 -745
q-54 -96 -54 -160q0 -71 142 -71l324 27q210 0 255 64q7 9 7 22q-12 51 -98 51h-20q-37 0 -380 -71q-83 10 -83 66v10q0 71 223 442q91 143 258 336q154 153 171 225l5 37q0 64 -142 83h-103q-135 0 -351 3q-125 -15 -125 -59zM975 1182v-3q0 -20 34 -29h3v7q-15 25 -32 25
h-5zM951 1157v-2q0 -21 31 -30h5v10q-15 22 -31 22h-5zM909 1121q12 -23 32 -23q9 0 15 8q0 15 -30 22h-10q-3 0 -7 -7zM894 1101q0 -3 -2 -3q13 -27 32 -27h2v10q0 10 -32 20zM850 1086q-2 -5 -2 -7q11 -22 29 -22h10v2q-8 27 -37 27zM794 1018v-3q5 -24 22 -24l2 4
q-7 23 -24 23zM759 995q-2 -4 -2 -7q9 -20 24 -20h5v3q0 20 -27 24zM740 959v-5q0 -8 22 -12q5 2 7 2v10q0 6 -19 12q-10 -4 -10 -7zM708 937q8 -22 27 -22v2q0 13 -15 22h-7zM688 912v-12q4 -10 17 -10h5q5 0 5 5v5q-6 12 -19 12h-8zM335 333q0 -3 10 -9h7q4 0 8 7v10
q0 3 -8 7h-9q-8 -2 -8 -15zM902 113v-5q5 -12 19 -22h5q0 13 -20 27h-4z" />
    <glyph glyph-name="braceleft" unicode="{" 
 />
    <glyph glyph-name="bar" unicode="|" 
 />
    <glyph glyph-name="braceright" unicode="}" 
 />
    <glyph glyph-name="asciitilde" unicode="~" 
 />
    <glyph glyph-name="exclamdown" unicode="&#xa1;" horiz-adv-x="672" 
 />
    <glyph glyph-name="cent" unicode="&#xa2;" horiz-adv-x="1139" 
 />
    <glyph glyph-name="sterling" unicode="&#xa3;" 
 />
    <glyph glyph-name="currency" unicode="&#xa4;" 
 />
    <glyph glyph-name="yen" unicode="&#xa5;" horiz-adv-x="1262" 
 />
    <glyph glyph-name="brokenbar" unicode="&#xa6;" 
 />
    <glyph glyph-name="section" unicode="&#xa7;" 
 />
    <glyph glyph-name="dieresis" unicode="&#xa8;" horiz-adv-x="1024" 
 />
    <glyph glyph-name="copyright" unicode="&#xa9;" horiz-adv-x="2028" 
d="M937 439q0 -10 -4 -15q6 5 16 5q12 -1 17 2q-4 4 -13 4t-13 -4q-2 7 -3 8zM970 453q7 -2 7 -3q-1 -5 -7 -8l-11 11q-4 -15 -4 -14q2 1 33 -4q0 5 -18 29v-11zM789 604l-2 -2zM1080 1255q1 9 10 7q10 -2 9 -10q-12 -2 -19 3zM1187 935q8 -6 11 4q4 -7 8 -6q21 2 14 2
q-11 -7 -13 -17q-1 -12 9 -20q9 7 -11 -73q1 -2 15 -4q-1 -16 -6 -22t-5 -18q-6 4 -12 -6q-6 -9 -6 -20q-8 2 -13 -4q-5 -4 -10 0q4 -6 4 -11q-24 0 -40 8q-1 0 2 3q2 3 1 4q-2 1 -7 0t-7 0q-4 2 -23 19q-18 16 -33 21q-22 9 -22 30q-18 -2 -14 11q-3 -8 -11 -10
q-8 -3 -8 10q-1 -5 -33 -15q12 16 0 19q6 11 27 12q24 2 28 6q0 8 -9 7q-9 -2 -9 0q16 13 8 39q-6 24 -19 28q0 1 4 3q3 1 3 4q1 -3 -11 0q-12 40 26 37q-1 -1 -11 -26q2 -5 7 -2t8 -2q-11 -13 12 -20q8 -3 43 -9q-4 -6 -4 -11q13 2 44 6q31 3 56 9q9 1 7 14zM1215 918
q3 4 1 10q11 2 7 -10q-3 -11 -10 -8q-1 4 2 8zM1088 773q0 -17 -4 -22l-26 4q-2 11 6 20q8 10 12 6q1 -3 -1 -8q-3 -3 -2 -7q20 5 15 7zM1160 629q-3 5 -6 5q-3 -6 3 -8q6 -1 4 -7q-4 0 -26 -8q4 -6 8 -7q2 9 -15 0q6 -11 -15 -29q0 2 11 0q1 1 -7 -18q-3 -8 -7 -4
q3 -11 -1 -20q-3 -8 1 -17q-8 -1 -12 -14q-4 -12 1 -16q-1 -5 -8 -2q-6 3 -7 6q-7 -5 0 -26q-7 -1 -22 -15q-13 -11 -22 -7q-2 5 7 4t7 4q-3 0 -14 1q-10 1 -15 1q-17 -1 -15 -17q19 10 19 0q7 -11 -13 -13q-19 -1 -20 17q-3 -4 -19 -12q2 -5 7 -2q7 5 12 2q1 -5 -5 -8
t-3 -10q2 -5 -26 11q-2 -8 8 -7q10 0 7 -8q-19 -2 -37 15q9 2 0 -15q-4 0 -9 6q-4 5 -13 2q1 2 11 3q-10 1 -23 9q-14 8 -21 10q2 6 5 6q16 -3 10 -2q0 4 -6 9q-5 4 -5 9q-5 -2 -2 -7t-2 -8q-1 6 -8 6t1 -6q-3 -5 -8 4q-6 11 -11 11q2 7 8 3q6 -5 3 -10q2 0 4 4q1 3 4 3
q-1 0 -7 4t-15 3q0 6 -5 13q-4 8 -6 2q-6 2 -3 7q5 7 3 11q-2 0 -4 -7q-6 13 -26 43q-13 20 -14 38q-1 -1 -7 -3q-4 -1 -5 -4q1 -1 -1 12q0 8 -10 6q8 9 -7 7q2 8 6 6q1 0 4 -3q3 -2 5 -3q3 1 2 5q-3 6 -1 8q-1 0 -20 2q9 7 5 9q-1 0 -5 1q-5 0 -7 1q1 6 -4 7q2 4 5 3
q7 -3 6 -3q-26 20 -25 56q-7 1 -8 -8q-3 2 -4 10q-2 10 -3 12q12 1 25 6t19 5v-11q27 14 51 -20q-1 1 26 -53q17 -12 33 -41q10 2 19 0q0 -1 -2 -3t-2 -4q10 3 4 11q-2 3 -9 5q-7 3 -10 6q7 12 15 11q1 -19 11 -18q-8 -2 0 14q9 4 10 -2q3 -8 5 -9q1 11 13 12t13 7
q5 -3 48 -8q-9 -24 -8 -29q-4 1 -8 -2q-5 -3 -10 -2q0 -12 13 -6q11 6 9 -1q2 6 14 10t15 8q-16 -41 -89 -31q-74 10 -76 61q-1 -1 -4 -2q-2 -2 -4 -2q20 -56 70 -70q0 -1 -2 -3q-1 -2 -1 -4q3 0 10 3q5 2 12 1q8 -3 0 -4q-7 -1 -11 0q2 -13 17 -7q17 8 23 -1q-6 11 -4 12
q-1 0 15 3q-6 -10 -4 -18q4 5 20 3q15 -3 21 8v-19q13 7 7 23q-11 -2 -18 3q0 5 11 4q11 -2 11 4q5 -2 2 -7q-3 -6 2 -8q7 2 5 7q-3 10 -2 15q-2 0 15 15q8 0 6 -3q-3 -5 -2 -8q20 13 11 18q7 0 12 12q5 9 17 6q-4 9 -2 13t10 -2q-1 5 -6 11t-5 11q12 4 16 19q3 13 -2 22
q40 47 37 44q12 -3 15 -15q6 8 8 6l3 -9l11 7q12 -34 11 -33q-6 5 -11 -11q-9 -29 -8 -26q-5 -1 -8 3zM833 765q2 -18 8 -25q-9 3 -12 -4q-4 -10 -6 -10q-9 -1 -6 3q6 6 6 8q-7 -7 -16 -2q-13 6 -18 5q0 -5 9 -6q8 -2 6 -8q-14 -3 -18 18q4 3 17 19q12 15 23 21q5 -3 7 -19z
M850 734q-2 1 -2 3q-2 -1 -3 -11h-11q-1 8 6 12q6 4 12 -1q0 -3 -2 -3zM1002 655q6 2 12 1q0 -4 3 -10q2 -6 1 -12q-56 -28 -140 -4q-1 5 -6 14q-5 8 -5 15q82 -14 118 -7q5 -17 7 -18q-10 -1 0 18q3 0 10 3zM1043 637q-11 -3 -22 0q-3 23 11 30q11 -5 11 -30zM1004 787
q3 -8 -8 -6q3 -4 11 -8q0 -4 -8 -4q-7 0 -3 -7q-4 1 -6 10q-1 8 -5 9q-6 2 -1 3q4 1 4 -3q5 2 3 7q-4 5 1 7q8 -1 12 -8zM887 700q30 -7 47 -10q60 -10 69 10q6 -1 14 -5q9 -5 12 -6q-4 16 -11 3q-8 -7 -35 -11q-20 -3 -24 -18q-2 1 -76 11q-56 7 -49 48q10 -9 11 -7
q-2 -3 3 14q17 -8 4 -22q8 -1 35 -7zM1080 965q3 8 -40 0q40 18 33 18q-1 -14 7 -18zM1111 929q-10 -4 -16 -5q1 6 -4 8q-3 2 6 2q17 1 20 1q3 -1 -6 -6zM1415 957q4 -23 0 -22q-14 -2 -22 -33q-3 -1 -4 4h-7q5 8 10 36q3 19 16 26q17 -10 7 -11zM756 968q5 -14 15 -14
q-4 -6 -14 -3q-3 1 -9 4q-4 2 -6 2q-1 24 3 30q6 -3 11 -19zM827 971q8 -2 7 -10l-26 -4q0 3 4 9q4 5 3 10q1 -1 12 -5zM591 1060q-2 2 0 7q2 6 3 4q40 -86 26 -117q17 -6 20 -52q4 -57 10 -70q6 27 11 30q-15 20 -18 53q-2 38 18 53q-11 0 -10 6q1 10 -1 13q-3 1 18 3
q-7 -9 6 -15q12 -5 1 -14q5 -6 21 -14q15 -8 20 -15q64 20 59 14q0 -8 7 -11v15q5 -2 15 2q8 4 11 -2q-6 1 -9 -4q-4 -5 -10 -3q-2 -6 4 -8q6 -1 4 -7q-7 2 -23 -6q-16 -9 -32 -5q18 -18 51 -3q54 25 52 25q-8 3 -11 7q12 1 15 12q5 22 3 18q15 -4 21 -28q6 -29 8 -31
q15 22 -7 66q-21 44 -37 37q2 -3 4 22q-24 19 -78 34q-66 20 -84 29q10 6 8 13q0 2 -3 7t-5 9q18 -1 19 7q-8 9 -1 14q8 6 8 8q-11 2 -11 4q7 75 7 74q1 4 11 3q-8 10 0 21q9 10 0 20l22 18q2 -7 7 -15q4 -6 4 -14q38 9 44 15q-1 3 12 22q0 -5 7 -8q6 18 30 29q38 17 40 19
q2 -7 3 -7q26 29 56 14q3 5 1 11q-2 5 2 8q7 -7 17 -6q11 0 13 -2q-1 -4 -10 -10q-7 -5 -5 -15l11 7q2 -14 4 -15q2 8 3 8q3 -16 12 -19q0 2 -1 6v5q1 6 8 4q-4 -14 23 -21q30 -7 32 -23q-12 -3 -11 0q4 -1 5 -10q2 -8 6 -9q3 5 1 11q-1 5 3 8q10 -9 7 -22q26 -2 26 -8h-15
q-4 -22 0 -18q9 1 20 -4q13 -5 6 -14q-4 -2 -9 8q-4 7 -10 -1q10 0 7 -6q-7 -12 -7 -9q7 -8 23 -13q14 -5 18 -12q-17 -9 -15 0q11 -3 7 -13l-7 -17q0 -7 7 -23q7 -14 5 -23q1 2 3 1q3 0 4 -3q-7 3 -7 -4q-1 -7 -4 -7q-38 -13 -63 -37q-11 10 -26 2q-27 -15 -33 -16
q4 -22 -8 -34q-14 -14 -14 -22q1 0 -6 3q-3 1 -5 -3q4 0 3 -4t-7 -3q3 -17 -4 -51q-5 -26 4 -41q-5 -3 -6 -11t-8 -11q-6 10 7 -110q2 -3 8 -7q5 -4 7 -8q3 -51 -45 -49q-47 3 -55 45q39 37 19 133q-2 -12 -3 -35q0 -26 -1 -36q-5 -43 -26 -65q-15 15 -8 38q6 22 23 32
q-38 3 -81 -44t-84 -41q1 10 -4 10q-1 0 -5 -1t-6 -2q-3 10 -12 18q-8 7 -10 19q8 -77 64 -157q16 -22 52 -66q34 -42 49 -64q13 -39 52 -74q15 5 26 -3q-11 -2 -11 -4q7 -12 58 -16q44 -3 41 -24q26 -2 33 7q3 -9 18 -11q135 25 170 70q16 21 36 74q20 51 37 73
q15 18 64 59q41 34 58 62q-5 13 -15 192q2 0 5 -3q3 -1 6 -1q27 54 35 139q9 91 -13 144q-8 152 -29 215q-35 110 -129 124q-11 15 -8 26q-59 19 -99 77q-70 18 -194 16q-161 -1 -203 2q-23 -18 -55 -40q-9 -6 -31 -15q-20 -8 -28 -15q-12 -8 -48 -99q-5 -12 -48 -169
q2 -12 0 -40q-2 -30 0 -45q17 -134 37 -151zM655 799q-4 13 2 19q-9 1 -9 -17q1 -17 5 -20q5 4 2 18zM1519 193q2 2 6 -2q4 -3 2 -4t-6 2t-2 4zM1522 170q3 2 7 0q3 -2 0 -5t-6 0t-1 5zM1524 148q2 2 5 1q2 -2 1 -5q-1 -2 -4 0t-2 4zM1524 138q2 2 5 0t1 -4t-5 0t-1 4z
M1523 127q1 4 4 1q4 -2 2 -5q-1 -3 -3 -1q-3 2 -3 5zM1522 116q1 2 4 0q3 -1 1 -4q-2 -2 -5 0q-2 2 0 4zM1525 176q0 -1 -4 1q-3 3 -2 4q2 2 4 -1q3 -2 2 -4zM1514 225q2 2 5 -1q3 -2 1 -3q-2 -2 -5 0t-1 4zM1368 105q-10 44 0 142q1 15 8 25t14 8q20 -7 11 -41
q-28 -97 -14 -135q12 -37 37 -40q46 -6 58 60q9 54 -4 122q-8 38 2 43q13 6 19 -28q19 -93 15 -136q-5 -73 -63 -81q-67 -9 -83 61zM1505 72q2 3 5 2q2 -2 0 -5t-4 -1q-3 2 -1 4zM1409 225q-1 -3 -3 -1q-3 2 -1 5q1 3 3 0q2 -2 1 -4zM1418 244q-1 -1 -5 1q-3 3 -1 5t5 -1
q2 -4 1 -5zM1402 218q2 2 4 1q3 -1 1 -4t-5 -1q-2 2 0 4zM1513 276q-2 -2 -6 0q-3 3 -2 4q2 1 6 -1t2 -3zM1509 251q2 2 5 0q3 -1 2 -2q-1 -2 -5 -1q-3 1 -2 3zM1509 262q2 2 6 0q5 -2 2 -5t-7 0q-4 2 -1 5zM1480 294q-17 -9 -10 -42q29 -136 -17 -171q-11 -8 -29 -1
q-17 7 -22 21q-16 51 14 117q19 44 -4 59q-6 3 -13 6q-14 6 -24 -2q-9 -8 -10 -23q-8 -150 -3 -165q12 -34 45 -58q44 -32 88 5q39 34 44 86q-1 -13 -15 117q-4 36 -13 49q-10 13 -31 2zM882 -118q2 1 5 -2t2 -4q-2 -1 -5 2t-2 4zM885 -138q2 2 5 0q4 -2 1 -4q-3 -3 -5 0
q-3 2 -1 4zM887 -157q1 2 3 1q3 -2 2 -4t-4 0t-1 3zM887 -165q2 1 4 0q3 -2 1 -4q-2 -1 -5 0q-2 2 0 4zM886 -174q1 2 3 0q3 -2 2 -4q-1 -3 -3 -1t-2 5zM884 -184q2 2 4 0q3 -1 1 -3t-4 -1q-2 2 -1 4zM888 -133q-1 -1 -4 1q-2 2 -1 3q1 2 3 0t2 -4zM878 -92q2 2 4 0
q3 -2 1 -3t-4 0q-3 2 -1 3zM754 -194q-9 38 -1 122q4 33 20 27q17 -6 8 -34q-23 -83 -11 -116q10 -31 31 -34q39 -5 49 52q9 46 -3 104q-6 32 2 36q11 5 16 -24q16 -79 13 -115q-5 -63 -54 -69q-56 -8 -70 51zM871 -221q1 2 3 1q3 -1 1 -4t-4 -1t0 4zM789 -92q-1 -2 -3 0
q-3 2 -1 4q1 2 3 0q1 -2 1 -4zM796 -75q-1 -1 -4 1q-2 2 -1 4q2 1 4 -1q2 -3 1 -4zM783 -97q1 2 3 1t0 -4q-1 -2 -3 -1q-2 2 0 4zM877 -48q-2 -2 -5 0t-1 4q1 1 4 -1q4 -2 2 -3zM874 -69q1 1 4 0t2 -2t-4 -1q-3 1 -2 3zM873 -60q2 2 6 0t1 -4q-2 -2 -5 0t-2 4zM849 -33
q-14 -7 -9 -35q25 -116 -14 -146q-10 -7 -25 -1q-14 6 -18 18q-14 43 11 100q17 37 -3 50q-5 3 -11 5q-12 5 -20 -2q-8 -6 -9 -19q-7 -128 -2 -141q10 -29 37 -49q39 -27 76 4q33 29 37 73q-1 -10 -12 100q-4 31 -12 42t-26 1zM1219 148q-10 -7 -10 -22q1 -9 2 -24
q1 -19 2 -24q2 -37 -17 -38q-18 -1 -16 35q1 15 9 89q6 54 6 90q0 40 33 44q63 7 87 -29q17 -23 7 -53q-10 -29 -34 -43q-27 -15 -13 -34q27 -35 36 -60q5 -13 3 -24q-3 -11 -10 -11q-14 0 -23 33q-14 47 -40 69q-11 9 -22 2zM1222 61q2 2 6 1q4 -2 1 -5q-3 -2 -6 0t-1 4z
M1227 73h2v-2v-2q0 -4 -7 0q-3 1 -1 4q1 4 3 2q1 -2 3 -2zM1221 82q2 2 5 0q3 -1 1 -3t-5 0t-1 3zM1220 94q3 2 5 0q3 -3 1 -4q-3 -2 -5 0q-3 2 -1 4zM1333 204q1 -3 -2 -2q-4 1 -5 3q-1 3 2 3t5 -4zM1318 190q2 2 5 1t1 -3t-5 -1t-1 3zM1314 175q-1 2 1 3q6 4 2 5q2 0 3 -3
q0 -3 -2 -4q-3 -2 -4 -1zM1325 77q-1 -2 -4 0t-1 4q1 2 4 1q2 -2 1 -5zM1331 66q-2 -2 -3 0q-3 4 -2 5q5 1 6 -2q1 -2 -1 -3zM1329 59q0 3 4 1q3 -1 2 -4q-2 -2 -5 -1q-2 2 -1 4zM1277 71q10 -46 37 -50h1q14 -2 22 13t3 29q-8 22 -31 61q-16 26 -2 37q26 18 33 39
q16 45 -24 79q-38 32 -92 26q-33 -4 -34 -45q0 -5 -16 -191q-3 -36 14 -46t35 -3q17 7 13 42q-3 23 -4 42q-1 15 8 19q10 5 18 -7q13 -17 19 -45zM1244 200q-9 7 -5 20q12 32 35 31q12 0 16 -13q5 -14 -4 -25q-8 -8 -20 -14q-13 -6 -22 1zM1230 258q3 3 6 0q4 -3 1 -6
q-2 -3 -6 0t-1 6zM1231 236q-9 3 -2 -5q-7 8 2 5zM1260 276q-14 0 -28 -11q-13 -11 -15 -26q0 -1 -3 -21q-2 -15 6 -25q9 -10 23 -7q71 15 64 64q-4 24 -47 26zM749 139q27 -35 37 -60q5 -13 2 -24t-9 -11q-14 0 -24 33q-13 47 -40 69q-11 9 -21 2q-11 -7 -10 -22
q0 -9 1 -24q2 -19 2 -24q2 -37 -16 -38q-19 -1 -16 35q1 15 9 89q5 54 6 90q0 40 33 44q62 7 87 -29q16 -23 6 -53q-9 -29 -34 -43q-27 -15 -13 -34zM696 61q3 2 6 1q4 -2 1 -5q-2 -2 -6 0q-3 2 -1 4zM701 73h2q1 -1 1 -2v-2q0 -4 -8 0q-3 1 -1 4q2 4 3 2q2 -2 3 -2zM695 82
q2 2 5 0q4 -1 1 -3q-2 -2 -5 0t-1 3zM695 94q2 2 5 0q2 -3 0 -4q-2 -2 -5 0t0 4zM807 204q2 -3 -2 -2t-5 3q-1 3 2 3t5 -4zM793 190q1 2 4 1t1 -3q-1 -2 -4 -1t-1 3zM789 175q-2 2 0 3q6 4 2 5q3 0 3 -3q1 -3 -2 -4q-2 -2 -3 -1zM800 77q-2 -2 -4 0q-3 2 -2 4t4 1q3 -2 2 -5
zM805 66q-2 -2 -3 0q-3 4 -2 5q5 1 6 -2q1 -2 -1 -3zM803 59q1 3 4 1q4 -1 2 -4q-2 -2 -4 -1q-3 2 -2 4zM814 200q16 45 -23 79q-39 32 -93 26q-33 -4 -33 -45q0 -5 -16 -191q-3 -36 14 -46q16 -10 34 -3q17 7 13 42q-3 24 -4 42q-1 15 9 19q9 5 18 -7q12 -17 19 -45
q10 -46 37 -50v0q14 -2 23 13q8 15 2 29q-7 22 -31 61q-16 26 -1 37q25 18 32 39zM740 199q-13 -6 -22 1q-8 7 -4 20q11 32 34 31q12 0 17 -13q5 -14 -5 -25q-8 -8 -20 -14zM704 258q3 3 7 0q3 -3 1 -6q-3 -3 -7 0t-1 6zM705 236q-9 3 -1 -5q-8 8 1 5zM707 265
q-14 -11 -16 -26l-3 -21q-2 -15 6 -25q9 -10 23 -7q71 15 64 64q-4 24 -46 26q-15 0 -28 -11zM622 59q0 3 4 1q3 -1 2 -4q-2 -2 -5 -1q-2 2 -1 4zM619 71q5 1 6 -2q1 -2 -1 -3q-2 -2 -3 0q-3 4 -2 5zM613 81q1 2 4 1q2 -2 1 -5q-1 -2 -4 0t-1 4zM574 77q-14 47 -40 69
q-11 9 -22 2q-10 -7 -10 -22q1 -9 2 -24q1 -19 2 -24q2 -37 -17 -38q-18 -1 -16 35q1 15 9 89q6 54 6 90q0 40 33 44q63 7 87 -29q17 -23 7 -53q-10 -29 -34 -43q-27 -15 -13 -34q27 -35 36 -60q5 -13 3 -24q-3 -11 -10 -11q-14 0 -23 33zM515 61q2 2 6 1q4 -2 1 -5
q-3 -2 -6 0t-1 4zM520 73h2v-2v-2q0 -4 -7 0q-3 1 -1 4q1 4 3 2q1 -2 3 -2zM514 82q2 2 5 0q3 -1 1 -3t-5 0t-1 3zM513 94q3 2 5 0q3 -3 1 -4q-3 -2 -5 0q-3 2 -1 4zM626 204q1 -3 -2 -2q-4 1 -5 3q-1 3 2 3t5 -4zM611 190q2 2 5 1t1 -3t-5 -1t-1 3zM607 175q-1 2 1 3
q6 4 2 5q2 0 3 -3q0 -3 -2 -4q-3 -2 -4 -1zM602 124q-16 26 -2 37q26 18 33 39q16 45 -24 79q-38 32 -92 26q-33 -4 -34 -45q0 -5 -16 -191q-3 -36 14 -46t35 -3q17 7 13 42q-3 24 -4 42q-1 15 8 19q10 5 18 -7q13 -17 19 -45q10 -46 37 -50h1q14 -2 22 13t3 29
q-8 22 -31 61zM537 200q-9 7 -5 20q12 32 35 31q12 0 16 -13q5 -14 -4 -25q-8 -8 -20 -14q-13 -6 -22 1zM523 258q3 3 6 0q4 -3 1 -6q-2 -3 -6 0t-1 6zM524 236q-9 3 -2 -5q-7 8 2 5zM553 276q-14 0 -28 -11q-13 -11 -15 -26l-3 -21q-2 -15 6 -25q9 -10 23 -7q71 15 64 64
q-4 24 -47 26zM1475 -169q23 -30 31 -52q4 -11 2 -20t-8 -9q-12 0 -20 28q-12 40 -34 58q-10 8 -19 2t-8 -19q-1 11 3 -41q2 -31 -14 -32t-14 30q1 13 8 76q5 46 5 76q0 35 28 38q53 6 74 -24q14 -20 6 -46q-8 -25 -29 -36q-24 -13 -11 -29zM1430 -236q2 2 5 1q3 -2 1 -4
q-3 -2 -5 -1q-3 2 -1 4zM1434 -226h2v-2v-1q0 -4 -7 0q-2 1 -1 4q2 3 3 1t3 -2zM1429 -218q1 1 4 0t1 -2q-2 -2 -4 0q-3 1 -1 2zM1428 -208q2 2 5 0q2 -2 0 -3q-2 -2 -5 0q-2 2 0 3zM1524 -114q1 -2 -2 -2q-3 1 -4 3q-1 3 2 2q3 0 4 -3zM1512 -126q1 2 3 1q3 -1 2 -2
q-2 -2 -4 -1q-3 0 -1 2zM1508 -138q-1 1 1 2q5 4 2 5q7 -3 0 -7q-2 -2 -3 0zM1518 -222q-1 -2 -4 -1q-2 2 -1 4t3 1q3 -1 2 -4zM1523 -232q-2 -1 -3 1q-3 3 -2 3q5 1 5 -1q1 -2 0 -3zM1520 -237q1 2 4 0q3 -1 2 -3q-2 -2 -4 -1q-2 2 -2 4zM1530 -117q14 38 -20 67
q-33 27 -79 22q-28 -3 -28 -38q0 -4 -14 -163q-2 -30 12 -39q14 -8 29 -2q15 5 11 35q-2 20 -3 36q-1 12 7 16t16 -6q10 -15 16 -39q8 -38 31 -42h1q12 -2 19 11t2 25q-6 18 -26 52q-14 22 -2 31q22 16 28 34zM1467 -118q-11 -5 -19 1q-7 6 -4 16q10 28 30 27q10 0 14 -11
q4 -12 -4 -21q-7 -7 -17 -12zM1436 -68q3 2 6 0q3 -3 1 -5t-6 0q-3 2 -1 5zM1437 -87q-7 3 -1 -4q-6 7 1 4zM1438 -62q-11 -9 -13 -22q0 1 -2 -18q-2 -13 5 -21q7 -9 19 -6q61 13 55 54q-3 21 -40 22q-12 0 -24 -9zM1871 -240q-15 -7 -28 -5q-16 3 -43 14q-29 12 -24 24
q2 8 28 -6q22 -13 40 -11q22 2 23 26q2 29 -44 57q-48 29 -48 58q0 7 2 13q8 26 40 31q28 3 58 -11q10 -6 14 -15q4 -8 -2 -11q-16 -7 -32 12q-10 13 -22 13q-10 0 -21 -10q-12 -10 -12 -20q-2 -15 49 -64q49 -48 41 -77q-3 -11 -19 -18zM1895 -179q-2 -2 -4 2q-7 10 2 3
q3 -3 2 -5zM1900 -240q-2 -2 -3 1q-2 3 -1 4q1 2 3 -1q3 -2 1 -4zM1905 -214q0 -2 -2 -3q-3 -1 -5 1t-1 4t2 0q6 -5 6 -2zM1897 -227q2 2 4 -1q3 -2 1 -4q-1 -2 -4 0q-2 3 -1 5zM1890 -246q1 1 3 -2q1 -2 0 -4q-2 -1 -3 2t0 4zM1889 -86q0 2 3 0q3 -1 3 -3t-3 0q-3 1 -3 3z
M1903 -87q-1 -2 -4 1q-4 2 -3 4t5 -1q3 -2 2 -4zM1910 -84q0 -2 -4 1q-3 2 -3 5q1 2 4 -1t3 -5zM1880 -90q1 2 5 0q5 -2 4 -3q0 -2 -5 0q-4 2 -4 3zM1874 -88q13 -12 23 -11h1q12 2 13 14q0 12 -9 21q-60 51 -106 24q-32 -18 -25 -54q4 -19 54 -52q44 -29 37 -57
q-3 -9 -13 -13q-21 -9 -44 9q-1 1 -2 1q-9 8 -19 8t-12 -7q-6 -16 4 -27q7 -9 10 -11q44 -26 93 -24q26 1 30 39q4 35 -10 57q-4 7 -69 62q-10 8 -12 15q-3 17 9 24q11 5 25 -1q5 -2 22 -17zM1809 222q6 16 24 23t24 -7q11 -29 6 -75q-4 -42 -23 -74q-9 -13 -26 -10
q-18 3 -20 19t1 55q2 37 14 69zM1797 209q-2 -2 -5 0q-2 3 1 5q3 3 5 0t-1 -5zM1785 133q3 1 4 -2q2 -3 -1 -5q-3 -1 -4 2q-2 3 1 5zM1788 142q-3 -2 -5 1q-1 3 1 5q3 1 5 -2q2 -2 -1 -4zM1801 228q-3 -2 -5 1q-2 4 1 5q4 1 6 -2q1 -3 -2 -4zM1806 239q-3 -2 -5 1t2 4
q3 2 5 -1q2 -2 -2 -4zM1850 94q14 33 17 77q4 46 -6 75q-11 33 -36 30q-12 -1 -16 -4q-23 -17 -31 -113q-9 -101 36 -100q20 0 36 35zM1878 257q18 -35 17 -88q-1 -54 -21 -90q-23 -41 -60 -39q-51 3 -59 87q-6 59 12 105q19 52 58 59q34 5 53 -34zM1899 241q-2 -2 -4 -1
q-2 2 -2 4q1 3 4 1q4 -1 2 -4zM1899 212q-3 2 -2 5t3 3q5 0 6 -6q1 -8 -7 -2zM1902 175q1 3 5 2q3 -1 1 -5q-1 -5 -4 -3q-2 2 -2 6zM1907 142q-3 -4 -5 -2q-3 2 -3 4q0 3 3 2q3 0 4 2t-2 3q-4 1 -3 3q0 3 2 1t3 0q2 2 0 4q-7 8 -1 4t6 -12q-1 -5 -4 -9zM1899 128q-3 1 -1 4
q2 2 4 2q6 0 4 -3q-2 -6 -7 -3zM1889 94q2 2 5 1q2 -1 0 -5q-2 -3 -5 -1t0 5zM1885 57q27 39 31 100q3 62 -19 102q-25 46 -72 39q-33 -6 -54 -46q-19 -37 -22 -88q-2 -51 12 -89q17 -42 48 -49q46 -12 76 31zM390 163q-4 -42 -24 -74q-8 -13 -26 -10q-17 3 -19 19t1 55
q2 37 14 69q5 16 23 23q19 7 24 -7q12 -29 7 -75zM324 209q-3 -2 -5 0q-2 3 0 5q3 3 5 0q3 -3 0 -5zM312 133q3 1 4 -2q2 -3 -1 -5q-3 -1 -5 2q-1 3 2 5zM315 142q-3 -2 -5 1q-1 3 1 5q3 1 5 -2q1 -2 -1 -4zM328 228q-3 -2 -5 1q-3 4 1 5q3 1 5 -2t-1 -4zM333 239
q-3 -2 -5 1t1 4q4 2 6 -1q1 -2 -2 -4zM336 272q-23 -17 -31 -113q-9 -101 35 -100q21 0 37 35q14 33 17 77q4 46 -6 75q-11 33 -36 30q-12 -1 -16 -4zM426 241q-2 -2 -4 -1q-3 2 -2 4q1 3 4 1q3 -1 2 -4zM426 212q-3 2 -2 5t3 3q5 0 6 -6q1 -8 -7 -2zM429 175q1 3 5 2
q3 -1 1 -5q-2 -5 -4 -3q-3 2 -2 6zM434 142q-3 -4 -5 -2q-3 2 -3 4q0 3 3 2q3 0 4 2t-3 3q-3 1 -2 3q0 3 2 1q1 -2 3 0t0 4q-7 8 -1 4t5 -12q0 -5 -3 -9zM426 128q-3 1 -1 4q2 2 4 2q5 0 4 -3q-2 -6 -7 -3zM281 127q-5 59 12 105q20 52 59 59q34 5 53 -34q18 -35 17 -88
q-2 -54 -22 -90q-22 -41 -60 -39q-51 3 -59 87zM415 94q3 2 5 1q3 -1 1 -5q-3 -3 -5 -1q-3 2 -1 5zM298 252q-19 -37 -22 -88t12 -89q16 -42 48 -49q46 -12 76 31q27 39 30 100q4 62 -18 102q-25 46 -72 39q-33 -6 -54 -46zM562 -146q-3 -36 -21 -65q-7 -12 -23 -9t-17 17
q-2 14 0 49q3 33 13 61q5 14 21 20q17 7 21 -6q10 -25 6 -67zM504 -105q-3 -2 -5 1q-2 2 1 4q2 2 4 0q2 -3 0 -5zM493 -172q2 1 4 -2q1 -3 -2 -4q-2 -1 -3 2q-2 3 1 4zM495 -164q-2 -1 -4 1q-1 3 1 4q3 1 4 -1q2 -2 -1 -4zM507 -88q-3 -1 -4 2q-2 3 1 4t4 -2q2 -2 -1 -4z
M512 -78q-3 -2 -5 1t1 4q3 2 5 -1q2 -2 -1 -4zM514 -49q-20 -15 -28 -100q-7 -90 32 -89q40 1 48 100q3 40 -6 67q-10 29 -31 26q-11 -1 -15 -4zM594 -76q-1 -2 -3 -1q-3 2 -2 4t4 1t1 -4zM594 -102q-2 2 -1 4q0 3 2 3q4 0 5 -5q1 -7 -6 -2zM597 -135q1 3 4 2t1 -5
q-1 -3 -3 -2q-3 2 -2 5zM594 -162q0 2 3 2q2 -1 3 1t-2 3q3 -1 0 3q1 -1 3 1q1 2 0 3q-7 7 -1 4q5 -4 4 -11q-1 -15 -7 -10q-2 2 -3 4zM594 -176q-2 1 -1 3q2 2 4 2q5 0 4 -3q-2 -5 -7 -2zM466 -177q-5 52 10 93q18 46 53 52q29 5 47 -29q15 -32 14 -79q-1 -48 -18 -80
q-21 -37 -54 -35q-45 3 -52 78zM585 -207q2 2 4 1q3 -1 1 -4t-5 -1q-2 2 0 4zM461 -144q-2 -45 11 -79q14 -38 42 -45q41 -10 68 29q24 34 27 89q3 54 -17 90q-22 41 -63 34q-62 -10 -68 -118zM393 -146q-3 -36 -21 -65q-7 -12 -23 -9t-18 17q-1 14 1 49q2 33 13 61
q5 14 21 20q16 7 21 -6q10 -25 6 -67zM334 -105q-2 -2 -4 1q-2 2 0 4q3 2 5 0q2 -3 -1 -5zM323 -172q3 1 4 -2q2 -3 -1 -4q-2 -1 -4 2q-1 3 1 4zM326 -164q-2 -1 -4 1q-1 3 1 4t4 -1q1 -2 -1 -4zM338 -88q-3 -1 -5 2t1 4t5 -2q2 -2 -1 -4zM342 -78q-2 -2 -4 1t1 4q3 2 5 -1
q1 -2 -2 -4zM345 -49q-20 -15 -28 -100q-8 -90 32 -89t48 100q3 40 -6 67q-10 29 -32 26q-11 -1 -14 -4zM425 -76q-2 -2 -4 -1q-2 2 -1 4q0 2 3 1t2 -4zM425 -102q-3 2 -2 4q1 3 3 3q4 0 5 -5q1 -7 -6 -2zM428 -135q1 3 4 2t1 -5q-1 -3 -4 -2q-2 2 -1 5zM425 -162q0 2 2 2
q3 -1 4 1t-2 3q3 -1 -1 3q2 -1 3 1q2 2 0 3q-6 7 -1 4q6 -4 5 -11q-1 -15 -8 -10q-2 2 -2 4zM425 -176q-3 1 -1 3q1 2 4 2q5 0 3 -3q-1 -5 -6 -2zM296 -177q-5 52 11 93q18 46 52 52q30 5 47 -29q16 -32 15 -79q-1 -48 -19 -80q-20 -37 -53 -35q-45 3 -53 78zM416 -207
q2 2 4 1t0 -4t-4 -1t0 4zM292 -144q-3 -45 10 -79q15 -38 43 -45q40 -10 67 29q24 34 28 89q3 54 -17 90q-22 41 -64 34q-61 -10 -67 -118zM667 -77q1 2 3 0q2 -3 0 -4q-1 -2 -2 0q-2 2 -1 4zM683 -241q32 -1 31 2q7 -13 -20 -22q-11 -3 -26 2q-16 6 -22 16q-20 38 -13 112
q7 72 29 92q18 15 42 3q11 -5 13 -16q3 -11 -3 -15q-9 -8 -14 8q-2 7 -14 7q-13 0 -19 -10q-19 -29 -20 -87q-1 -56 14 -78q9 -14 22 -14zM654 -125q2 5 6 -1q1 -2 0 -3q-2 -1 -3 0q-3 1 -3 4zM661 -98q2 1 3 -1q2 -2 0 -4t-3 1q-2 2 0 4zM714 -76q0 1 2 -1q3 -2 3 -4
q-1 -2 -3 1q-2 2 -2 4zM724 -76q0 -2 -2 0q-3 2 -3 4q0 3 2 1q3 -3 3 -5zM692 -66q4 -4 4 -10q0 -12 13 -17q8 -3 20 8q5 5 4 17q0 12 -8 21q-24 31 -55 19q-37 -14 -43 -122q-4 -61 22 -107q17 -30 47 -24q11 2 19 6q11 5 16 19q4 14 -3 22q-13 15 -31 2q-5 -4 -15 3
q-10 8 -14 19q-17 59 8 129q3 9 7 14q4 4 9 1zM1566 -238q0 8 13 14q11 4 11 -11q0 -11 -12 -14q-12 -2 -12 11zM1562 -238q1 -26 16 -29q22 -5 27 17q3 16 -3 28q-4 7 -24 2q-16 -4 -16 -18zM279 -38q2 2 5 -2q3 -5 2 -6q-2 -1 -5 3t-2 5zM278 -54q2 -4 3 -2t-3 5
q-3 4 -1 5q3 0 7 -5q3 -4 0 -7t-6 0q5 -5 0 4zM273 -62q2 1 5 -1q3 -3 1 -4q-3 -1 -6 2q-2 2 0 3zM270 -70q2 2 5 -1q2 -3 0 -5t-4 1t-1 5zM270 -79q0 1 2 -2q3 -2 2 -4q0 -1 -2 2q-3 3 -2 4zM266 -86q2 2 3 -1q2 -3 1 -5q0 -2 -2 1q-3 2 -2 5zM265 -95q1 2 3 0q2 -3 1 -5
q-2 -2 -4 0q-1 3 0 5zM262 -115q-2 2 -2 4t1 0q2 -1 4 0q3 1 1 2q4 -4 -1 5q4 -7 4 -8q-4 -8 -7 -3zM257 -128q2 1 4 0q3 -2 0 -4q-2 -2 -4 0q-2 3 0 4zM211 -245q-16 -2 -23 27q-8 32 -10 38q-3 12 -10 13q-7 0 -11 -12q-5 -14 -11 -37q-7 -29 -24 -30q-17 -2 -22 27
q-4 26 -10 71q-7 53 -10 72q-5 33 11 37q18 4 14 -28q-9 -89 5 -139q4 -12 11 -12q8 0 11 13q1 8 7 41q4 27 24 33q18 6 24 -21q8 -38 11 -50q4 -12 9 -11q6 0 9 12q7 34 22 138q4 32 19 32q14 1 8 -30q-4 -19 -17 -76q-12 -48 -16 -78q-5 -29 -21 -30zM246 -178q0 2 2 0
q2 -3 2 -5t-2 1q-2 2 -2 4zM244 -187q2 2 5 0q2 -1 0 -3t-4 0t-1 3zM242 -202q1 2 4 0q3 -3 1 -4q-1 -1 -4 1t-1 3zM240 -209q2 2 5 -1q2 -2 0 -4q-1 -1 -4 1q-2 3 -1 4zM239 -217q2 1 4 -1t1 -3q-2 -1 -4 1t-1 3zM240 -242q-7 6 0 -3q-7 9 0 3zM242 -238q-1 -1 -3 0
q-3 2 -2 4q1 1 3 -1q3 -2 2 -3zM236 -249q1 2 4 0q3 -3 2 -5q-1 -3 -4 0t-2 5zM156 -212q0 2 2 0q3 -2 1 -4q-1 -2 -2 0q-2 3 -1 4zM151 -224q1 1 3 -1q2 -1 2 -3q-1 -2 -4 0q-2 2 -1 4zM149 -237q2 2 4 0q3 -2 2 -4q-2 -1 -4 1q-3 1 -2 3zM147 -244q2 1 5 0q3 -2 1 -4
q-2 -1 -4 1q-3 2 -2 3zM146 -251q1 1 4 -1q3 -1 1 -3q-1 -1 -4 1t-1 3zM112 -108q-1 -1 -3 0q-3 2 -1 3q1 2 3 0q2 -1 1 -3zM115 -93q-3 -2 -5 -1q-3 2 -1 3q2 2 5 1q3 -2 1 -3zM115 -85q-1 -2 -4 -1t-1 3q1 2 4 1t1 -3zM117 -71q0 -2 -3 0q-2 1 -2 3q1 2 4 0q2 -2 1 -3z
M119 -64q-1 -2 -3 0t-1 3q0 2 3 0q2 -1 1 -3zM194 -146q1 2 4 0q2 -2 1 -3q-1 -2 -4 0q-2 1 -1 3zM196 -142q-6 3 -6 4q-1 2 2 1q4 0 6 -4q3 -3 -2 -1zM234 -57q-6 -54 -15 -102q-3 -13 -7 -13q-4 1 -5 13q-1 15 -4 22q-7 22 -42 10q-22 -7 -26 -34l-2 -10q-2 -12 -8 -12
q-6 -1 -8 12q-6 37 7 92q7 31 -1 39q-11 9 -30 5q-22 -4 -18 -33q2 -18 11 -77q7 -47 9 -78q3 -31 13 -41q6 -7 30 -5q21 2 25 32q1 4 2 14q1 8 2 13q1 12 7 12q5 -1 7 -13q6 -27 13 -39q14 -24 39 -18q16 4 18 34q5 91 32 152q14 31 5 43q-11 16 -32 13q-19 -2 -22 -31z
M217 298q40 5 36 -9q-2 -10 -41 -12h-1h-1q-36 -3 -38 -40q-5 -78 5 -146q5 -35 -8 -41q-6 -3 -10 6q-5 8 -5 23q-1 24 1 78q2 53 1 78q0 15 -11 25t-25 9q-34 -2 -38 8q-5 13 31 14q59 1 104 7zM265 265q-2 -1 -5 1t-1 3t5 0q3 -2 1 -4zM194 79q-1 -2 -5 0q-3 2 -2 4t5 0
q3 -1 2 -4zM204 50q-2 -3 -6 0q-5 3 -3 5q1 2 6 0q4 -3 3 -5zM198 61q-6 7 1 5q-7 2 -1 -5zM177 237q0 5 6 1q2 -1 1 -3q0 -2 -2 -2q-5 0 -5 4zM115 246q36 -5 36 -33q0 -24 -2 -71q-1 -47 -1 -72q0 -16 10 -29q10 -15 24 -16h7q13 1 17 19q3 16 -2 32q-23 71 -14 144
q4 32 42 33h5q33 0 37 16q4 12 -5 29q-6 11 -45 5q-25 -4 -117 -7q-15 0 -24 -6q-9 -7 -6 -15q9 -24 37 -29q-1 1 1 0zM1227 -63q1 1 4 0q3 -2 1 -3t-4 0q-2 2 -1 3zM1187 -56h-2q-30 -3 -32 -34q-5 -66 4 -124q5 -30 -6 -35q-14 -7 -14 24q0 21 1 66q2 46 2 67
q-1 13 -10 22q-9 8 -22 7q-28 -2 -32 7q-4 11 27 12q50 1 88 6q34 4 31 -8q-2 -8 -35 -10zM1172 -224q-1 -2 -4 0q-3 1 -2 3t4 0q2 -2 2 -3zM1180 -250q-1 -2 -5 1q-4 2 -3 4t5 0t3 -5zM1175 -240q-5 6 1 4q-6 2 -1 -4zM1157 -90q0 4 5 1q2 -1 1 -3q0 -1 -2 -1q-4 0 -4 3z
M1097 -39q-32 -1 -25 -18q8 -21 32 -25h1q30 -5 30 -29q0 -20 -1 -60t-2 -61q0 -14 9 -25q9 -13 21 -14h5q12 1 15 17q2 13 -2 27q-19 60 -12 123q4 27 36 27l4 1q29 0 32 13q3 11 -5 25q-5 9 -38 4q-21 -3 -100 -5zM1050 -63q2 1 4 0q3 -2 1 -3q-1 -1 -4 0q-2 2 -1 3z
M1011 -56h-2q-31 -3 -33 -34q-4 -66 4 -124q5 -30 -6 -35q-13 -7 -13 24q-1 21 1 66q1 46 1 67q0 13 -10 22q-9 8 -22 7q-28 -2 -32 7q-4 11 27 12q50 1 89 6q34 4 31 -8q-3 -8 -35 -10zM995 -224q-1 -2 -4 0q-3 1 -2 3t4 0t2 -3zM1003 -250q-1 -2 -5 1q-4 2 -2 4q1 2 5 0
q3 -2 2 -5zM998 -240q-5 6 1 4q-6 2 -1 -4zM981 -90q0 4 4 1q2 -1 2 -3q-1 -1 -3 -1q-3 0 -3 3zM921 -39q-32 -1 -26 -18q8 -21 32 -25h1q30 -5 30 -29q0 -20 -1 -60t-1 -61q0 -14 8 -25q9 -13 21 -14h5q12 1 15 17q3 13 -2 27q-19 60 -11 123q3 27 36 27l3 1q29 0 32 13
q3 11 -5 25q-5 9 -38 4q-21 -3 -99 -5zM1599 118q2 2 5 0t0 -4q-2 -2 -5 0q-3 1 0 4zM1601 138q-3 -2 -5 0q-3 2 0 5t6 1q2 -3 -1 -6zM1568 57q-5 12 -5 29q-1 23 0 81q1 53 0 83q-1 38 22 43q21 4 30 -37q11 -49 54 -146q7 -15 12 -14q6 1 6 17q2 51 -3 147q-2 40 12 40
q13 0 11 -40q-6 -163 -8 -179q-3 -41 -22 -40q-14 0 -27 41q-4 13 -12 37q-9 25 -12 36q-19 60 -22 68q-7 15 -14 13t-7 -19q1 -51 11 -129q4 -38 -13 -41q-7 -2 -13 10zM1634 251q-1 -2 -5 -1q-4 2 -3 4q1 3 5 1q4 -1 3 -4zM1636 239q1 -5 -3 -3q-5 3 -5 6t4 2t4 -5z
M1637 265q1 -3 0 -5q-2 -2 -4 -1q-5 3 -2 3q2 1 1 3q-2 3 -6 4q-5 2 -4 5t5 1q5 -2 10 -10zM1645 208q-2 -3 -5 -2q-4 1 -2 4q2 2 5 1q4 -1 2 -3zM1641 199q1 2 5 1q3 -2 2 -4q-1 -3 -5 -1t-2 4zM1712 56q-3 -3 -5 -1q-3 2 -1 4q3 2 6 1q2 -2 0 -4zM1720 208q-1 -3 -3 -3
q-4 0 -4 3q-1 4 0 6q2 2 3 0q5 -6 4 -6zM1721 229q-2 -3 -5 0t-1 5t5 -1q3 -2 1 -4zM1723 252q-3 -3 -6 0q-3 4 -1 6q3 2 6 0q4 -2 1 -6zM1717 280q2 2 5 -1q8 -9 5 -12q-3 -6 -9 -2q-3 2 -2 4t3 0t2 1t-3 6t-1 4zM1718 245q0 2 3 -1q4 -2 2 -5q-2 -2 -4 1t-1 5zM1705 38
q3 3 6 1q4 -2 1 -5t-6 -1t-1 5zM1605 192q3 1 9 -15q25 -73 33 -105q10 -40 18 -47q11 -9 31 -9q21 1 23 42q4 140 9 175q7 45 -1 57q-9 16 -32 15q-21 0 -17 -37q6 -49 4 -102q0 -17 -6 -18q-5 -1 -10 15q-14 41 -21 87q-8 50 -42 52h-9q-17 -1 -27 -14q-11 -13 -10 -30
q4 -66 -1 -177q-2 -33 14 -50q12 -15 34 -10q20 4 14 47q-13 83 -15 107q-2 17 2 17zM1077 69q-10 8 -12 24q0 3 -1 10q-1 6 -1 9q-1 15 3 25q5 11 11 10q25 -5 27 -37q2 -22 -8 -37q-7 -12 -19 -4zM1053 71q0 4 6 1q2 -2 1 -4t-3 -2q-4 0 -4 5zM1057 98q-2 -2 -5 -1t-1 4
q2 2 5 0q2 -2 1 -3zM1057 123q0 -3 -7 0q-3 1 -2 4q2 3 4 1q5 -3 5 -5zM1055 143q-3 -2 -7 -1q-3 2 -1 4t6 0q4 -1 2 -3zM1054 152q-1 -1 -4 1q-3 1 -3 3q1 1 5 0q4 -2 2 -4zM1054 83q2 2 5 0q2 -3 1 -4q-2 -2 -5 0t-1 4zM1045 164q-8 -8 -6 -23q1 -10 4 -28q3 -22 4 -29
q2 -16 14 -26q12 -11 24 -3q23 14 26 46q2 31 -18 51q-10 10 -27 15q-13 4 -21 -3zM1055 56q-1 -3 2 -3q4 0 3 3q0 3 -3 3q-2 0 -2 -3zM1068 250q-3 -3 -6 0q-3 2 -1 4t6 1t1 -5zM1070 270q1 -4 -3 -1q-3 3 -3 5q-1 3 3 1q3 -1 3 -5zM1076 256q4 14 20 2q15 -12 8 -25
q-2 -5 -6 -9q-9 -10 -18 -1q-9 8 -7 23q1 6 3 10zM1111 232q6 14 -2 33t-21 22q-14 4 -25 -9q-10 -11 -11 -27q-1 -5 -1 -11q-2 -15 8 -26q9 -11 23 -7q20 7 29 25zM1119 31q-4 -1 -6 3q-1 3 -1 5q1 2 3 0q2 -3 4 -3q2 1 1 3q-3 6 -1 4q-6 7 2 3q-3 1 0 3t5 -1q5 -6 -1 -13
q-3 -3 -6 -4zM1032 42q-10 11 -11 27q-2 99 0 198q1 43 33 51q19 5 37 0q14 -5 29 -24t17 -34q4 -34 -26 -59q-27 -23 -20 -24q14 -4 31 -29q9 -14 10 -27q5 -38 -16 -63q-21 -24 -58 -27q-15 -1 -26 11zM1106 35q2 2 3 -1q3 -11 -3 -4q-3 2 0 5zM1137 62q-3 -1 -5 2t-1 4
q2 1 5 -2q4 -3 1 -4zM1138 123q-2 -2 -3 2q0 4 1 5q1 0 3 -3q1 -3 -1 -4zM1141 77q-2 -1 -4 2q-2 4 1 5q2 2 4 -2q2 -3 -1 -5zM1127 59q4 1 7 -3q3 -3 -1 -5q-5 -2 -7 2q-3 4 1 6zM1135 146q-21 29 -3 47q12 11 16 21q21 52 -20 89q-39 34 -85 18q-30 -10 -29 -54
q3 -101 2 -205q0 -33 11 -43q14 -14 44 -11q42 4 64 31q21 28 15 71q-2 18 -15 36zM868 63q2 0 3 3l-4 4q-4 0 -4 -3q0 -4 5 -4zM870 209q-1 -39 24 -33q12 2 21 -1t8 -8q-2 -17 -25 -14q-11 1 -21 -8q-10 -10 -12 -24q-2 -10 -4 -29q-1 -13 6 -22q1 0 3 -1t1 -3q9 -7 21 -5
q14 2 25 3q33 5 33 -7q-1 -11 -38 -13q-27 -1 -35 -2q-15 0 -25 11q-11 11 -10 26q0 25 4 88q4 61 4 94q1 35 36 37q20 0 50 2q15 0 20 -9t-9 -12q-13 -3 -35 -2q-15 1 -28 -8q-14 -10 -14 -24v-36zM889 257q-1 -3 -4 1q-4 3 -3 6q1 2 5 -1q3 -3 2 -6zM881 252q2 2 6 -1
q4 -4 2 -6q-2 -1 -6 2q-4 4 -2 5zM880 242q1 1 5 -2t2 -5t-5 2q-4 4 -2 5zM879 230q2 2 5 -1q3 -2 2 -3q-2 -2 -5 0q-3 3 -2 4zM879 219q1 3 4 1t2 -5t-4 -1q-3 3 -2 5zM879 208q2 2 5 0q2 -1 1 -3q-2 -2 -5 -1q-3 2 -1 4zM883 196q-2 -1 -5 0t-1 3t5 0q2 -1 1 -3zM882 185
q-2 -3 -5 0q-3 2 0 4q2 2 5 0t0 -4zM938 160q-2 -2 -5 1q-2 2 -1 4q1 3 4 0q3 -4 2 -5zM982 281q-3 -1 -6 2q-2 3 0 5q3 1 6 -2t0 -5zM894 218q1 14 15 26q12 11 27 12h7q35 2 45 15q9 13 0 25q-7 12 -41 10q-20 -1 -66 -3q-35 -2 -36 -37q-2 -98 -9 -192q-3 -37 5 -47
q9 -9 45 -8q34 2 46 3q35 4 37 24q2 14 -7 23q-5 5 -45 1h-5q-15 -2 -24 7t-8 23q3 35 32 34t33 17q2 9 -4 20q-8 13 -19 14q-31 4 -28 32v1zM1665 -234q2 0 3 3q-2 1 -4 3q-3 0 -3 -2q0 -4 4 -4zM1757 -42q3 1 5 -2q3 -2 0 -4q-2 -1 -5 2q-2 2 0 4zM1683 -68q-1 -3 -4 0
q-2 3 -2 5q1 2 4 0q3 -3 2 -5zM1677 -73q1 2 5 -1q3 -3 1 -4q-2 -2 -5 1t-1 4zM1675 -81q2 1 5 -2t1 -4q-1 -2 -4 2q-3 3 -2 4zM1675 -91q1 1 4 -1t1 -3q-1 -2 -4 0q-3 3 -1 4zM1675 -101q1 2 3 1q3 -2 2 -5q-1 -2 -4 0q-3 3 -1 4zM1675 -110q1 1 4 0q2 -2 0 -3q-1 -2 -3 0
q-3 1 -1 3zM1678 -120q-2 -1 -4 -1q-3 1 -1 3q1 2 4 0q2 -1 1 -2zM1677 -130q-2 -3 -4 0q-3 2 0 4q2 2 4 0q3 -2 0 -4zM1703 -52q-13 1 -24 -7q-12 -8 -12 -20v-31q-1 -32 21 -28q26 6 24 -8t-22 -11q-23 3 -28 -27q-1 -9 -3 -25q-1 -11 5 -19q2 0 3 -1t1 -2q7 -6 18 -5
q11 2 21 3q28 4 28 -6q0 -9 -32 -11q-23 -1 -30 -1q-13 -1 -22 9q-9 9 -8 22q0 21 3 75q3 52 4 80q1 30 30 31q17 1 43 2q13 0 17 -7q5 -8 -7 -11q-11 -2 -30 -2zM1724 -151q-1 -2 -3 0t-1 4t3 0q3 -3 1 -4zM1733 -27q-17 -1 -56 -2q-31 -2 -31 -32q-2 -83 -8 -163
q-3 -32 4 -40t38 -7q30 1 40 2q30 3 32 20q1 13 -6 20q-5 5 -39 1h-2h-2q-30 -3 -27 26q2 30 27 29q24 -1 28 14q1 8 -4 17q-6 11 -16 12q-26 3 -24 28v0q3 31 36 33h6q29 1 38 13q8 10 1 21q-7 10 -35 8zM1280 -234q2 0 3 3q-2 1 -3 3q-4 0 -4 -2q0 -4 4 -4zM1372 -42
q3 1 6 -2q2 -2 0 -4q-3 -1 -5 2q-3 2 -1 4zM1298 -68q-1 -3 -3 0q-3 3 -3 5q1 2 4 0q3 -3 2 -5zM1292 -73q1 2 5 -1q3 -3 1 -4q-2 -2 -5 1t-1 4zM1290 -81q2 1 5 -2t2 -4q-2 -2 -5 2q-3 3 -2 4zM1290 -91q2 1 4 -1q3 -2 2 -3q-2 -2 -5 0q-3 3 -1 4zM1290 -101q1 2 3 1
q3 -2 2 -5q-1 -2 -4 0q-2 3 -1 4zM1290 -110q2 1 4 0q2 -2 1 -3q-2 -2 -4 0q-3 1 -1 3zM1293 -120q-1 -1 -4 -1q-3 1 -1 3t4 0q2 -1 1 -2zM1292 -130q-2 -3 -4 0q-2 2 0 4t4 0q3 -2 0 -4zM1318 -52q-13 1 -24 -7q-12 -8 -12 -20v-15v-16q-1 -32 21 -28q26 6 24 -8t-21 -11
q-24 3 -29 -27q-1 -9 -2 -25q-2 -11 5 -19q1 0 2 -1t1 -2q8 -6 18 -5q11 2 21 3q28 4 28 -6q0 -9 -32 -11q-23 -1 -30 -1q-13 -1 -22 9q-9 9 -8 22q0 21 4 75q3 52 3 80q1 30 30 31q18 1 43 2q13 0 17 -7q5 -8 -7 -11q-11 -2 -30 -2zM1340 -151q-1 -2 -4 0q-2 2 -1 4t3 0
q3 -3 2 -4zM1292 -29q-30 -2 -31 -32q-2 -83 -8 -163q-3 -32 4 -40q8 -9 38 -7q30 1 40 2q30 3 32 20q1 13 -6 20q-5 5 -39 1h-2h-2q-30 -3 -27 26q2 30 27 29q24 -1 28 14q1 8 -4 17q-6 11 -16 12q-26 3 -24 28h1q2 31 36 33h5q30 1 38 13q8 10 1 21q-7 10 -35 8
q-17 -1 -56 -2z" />
    <glyph glyph-name="ordfeminine" unicode="&#xaa;" horiz-adv-x="648" 
 />
    <glyph glyph-name="guillemotleft" unicode="&#xab;" horiz-adv-x="944" 
 />
    <glyph glyph-name="logicalnot" unicode="&#xac;" 
 />
    </font>
</defs>
</svg>
